G04 #@! TF.GenerationSoftware,KiCad,Pcbnew,(5.1.4)-1*
G04 #@! TF.CreationDate,2022-05-24T18:09:22-07:00*
G04 #@! TF.ProjectId,pcb-keyb-tut,7063622d-6b65-4796-922d-7475742e6b69,rev?*
G04 #@! TF.SameCoordinates,Original*
G04 #@! TF.FileFunction,Legend,Top*
G04 #@! TF.FilePolarity,Positive*
%FSLAX46Y46*%
G04 Gerber Fmt 4.6, Leading zero omitted, Abs format (unit mm)*
G04 Created by KiCad (PCBNEW (5.1.4)-1) date 2022-05-24 18:09:22*
%MOMM*%
%LPD*%
G04 APERTURE LIST*
%ADD10C,0.150000*%
%ADD11C,0.120000*%
%ADD12R,1.502000X1.302000*%
%ADD13C,4.089800*%
%ADD14C,1.852000*%
%ADD15R,1.302000X1.002000*%
%ADD16R,0.602000X2.352000*%
%ADD17O,1.802000X2.802000*%
%ADD18R,1.602000X0.652000*%
%ADD19R,0.652000X1.602000*%
%ADD20R,1.902000X1.202000*%
%ADD21C,0.100000*%
%ADD22C,1.077000*%
%ADD23C,1.352000*%
G04 APERTURE END LIST*
D10*
X97266714Y-150820380D02*
X97266714Y-150153714D01*
X97266714Y-149820380D02*
X97219095Y-149868000D01*
X97266714Y-149915619D01*
X97314333Y-149868000D01*
X97266714Y-149820380D01*
X97266714Y-149915619D01*
X98647666Y-150820380D02*
X98552428Y-150772761D01*
X98504809Y-150677523D01*
X98504809Y-149820380D01*
X99028619Y-150820380D02*
X99028619Y-150153714D01*
X99028619Y-149820380D02*
X98981000Y-149868000D01*
X99028619Y-149915619D01*
X99076238Y-149868000D01*
X99028619Y-149820380D01*
X99028619Y-149915619D01*
X99504809Y-150820380D02*
X99504809Y-149820380D01*
X99600047Y-150439428D02*
X99885761Y-150820380D01*
X99885761Y-150153714D02*
X99504809Y-150534666D01*
X100695285Y-150772761D02*
X100600047Y-150820380D01*
X100409571Y-150820380D01*
X100314333Y-150772761D01*
X100266714Y-150677523D01*
X100266714Y-150296571D01*
X100314333Y-150201333D01*
X100409571Y-150153714D01*
X100600047Y-150153714D01*
X100695285Y-150201333D01*
X100742904Y-150296571D01*
X100742904Y-150391809D01*
X100266714Y-150487047D01*
X102361952Y-150153714D02*
X102361952Y-150820380D01*
X101933380Y-150153714D02*
X101933380Y-150677523D01*
X101981000Y-150772761D01*
X102076238Y-150820380D01*
X102219095Y-150820380D01*
X102314333Y-150772761D01*
X102361952Y-150725142D01*
X102838142Y-150820380D02*
X102838142Y-150153714D01*
X102838142Y-150344190D02*
X102885761Y-150248952D01*
X102933380Y-150201333D01*
X103028619Y-150153714D01*
X103123857Y-150153714D01*
X104219095Y-150820380D02*
X104219095Y-149820380D01*
X104219095Y-150201333D02*
X104314333Y-150153714D01*
X104504809Y-150153714D01*
X104600047Y-150201333D01*
X104647666Y-150248952D01*
X104695285Y-150344190D01*
X104695285Y-150629904D01*
X104647666Y-150725142D01*
X104600047Y-150772761D01*
X104504809Y-150820380D01*
X104314333Y-150820380D01*
X104219095Y-150772761D01*
X105552428Y-150153714D02*
X105552428Y-150820380D01*
X105123857Y-150153714D02*
X105123857Y-150677523D01*
X105171476Y-150772761D01*
X105266714Y-150820380D01*
X105409571Y-150820380D01*
X105504809Y-150772761D01*
X105552428Y-150725142D01*
X105885761Y-150153714D02*
X106266714Y-150153714D01*
X106028619Y-149820380D02*
X106028619Y-150677523D01*
X106076238Y-150772761D01*
X106171476Y-150820380D01*
X106266714Y-150820380D01*
X106457190Y-150153714D02*
X106838142Y-150153714D01*
X106600047Y-149820380D02*
X106600047Y-150677523D01*
X106647666Y-150772761D01*
X106742904Y-150820380D01*
X106838142Y-150820380D01*
D11*
X139700000Y-116681250D02*
X139700000Y-146050000D01*
X139700000Y-146050000D02*
G75*
G02X134143750Y-151606250I-5556250J0D01*
G01*
X96043750Y-151606250D02*
X134143750Y-151606250D01*
X135731250Y-113506250D02*
X136525000Y-113506250D01*
X136525000Y-113506250D02*
G75*
G02X139700000Y-116681250I0J-3175000D01*
G01*
X96043750Y-113506250D02*
X135731250Y-113506250D01*
X57943750Y-115093750D02*
X57943750Y-150018750D01*
X57943750Y-115093750D02*
G75*
G02X59531250Y-113506250I1587500J0D01*
G01*
X59531250Y-151606250D02*
G75*
G02X57943750Y-150018750I0J1587500D01*
G01*
X108998000Y-117285500D02*
X108998000Y-120585500D01*
X108998000Y-120585500D02*
X112998000Y-120585500D01*
X93456250Y-144331250D02*
X93456250Y-140431250D01*
X95456250Y-144331250D02*
X95456250Y-140431250D01*
X93456250Y-144331250D02*
X95456250Y-144331250D01*
X93456250Y-125281250D02*
X93456250Y-121381250D01*
X95456250Y-125281250D02*
X95456250Y-121381250D01*
X93456250Y-125281250D02*
X95456250Y-125281250D01*
X74406250Y-144331250D02*
X74406250Y-140431250D01*
X76406250Y-144331250D02*
X76406250Y-140431250D01*
X74406250Y-144331250D02*
X76406250Y-144331250D01*
X74406250Y-125281250D02*
X74406250Y-121381250D01*
X76406250Y-125281250D02*
X76406250Y-121381250D01*
X74406250Y-125281250D02*
X76406250Y-125281250D01*
D10*
X134818750Y-120543750D02*
X127118750Y-120543750D01*
X127118750Y-115093750D02*
X127118750Y-120543750D01*
X134818750Y-115093750D02*
X134818750Y-120543750D01*
X116300000Y-137731250D02*
X116300000Y-137156250D01*
X105950000Y-137731250D02*
X105950000Y-137056250D01*
X105950000Y-127381250D02*
X105950000Y-128056250D01*
X116300000Y-127381250D02*
X116300000Y-128056250D01*
X116300000Y-137731250D02*
X115625000Y-137731250D01*
X116300000Y-127381250D02*
X115625000Y-127381250D01*
X105950000Y-127381250D02*
X106625000Y-127381250D01*
X105950000Y-137731250D02*
X106625000Y-137731250D01*
X116300000Y-137156250D02*
X117575000Y-137156250D01*
X130381250Y-146843750D02*
G75*
G03X130381250Y-146843750I-1000000J0D01*
G01*
X126781250Y-149443750D02*
X126781250Y-144243750D01*
X131981250Y-149443750D02*
X126781250Y-149443750D01*
X131981250Y-144243750D02*
X131981250Y-149443750D01*
X126781250Y-144243750D02*
X131981250Y-144243750D01*
D11*
X102310000Y-139958578D02*
X102310000Y-139441422D01*
X100890000Y-139958578D02*
X100890000Y-139441422D01*
X121146500Y-123852172D02*
X121146500Y-124369328D01*
X122566500Y-123852172D02*
X122566500Y-124369328D01*
X130535750Y-125893328D02*
X130535750Y-125376172D01*
X129115750Y-125893328D02*
X129115750Y-125376172D01*
X133425000Y-125734578D02*
X133425000Y-125217422D01*
X132005000Y-125734578D02*
X132005000Y-125217422D01*
X135847500Y-133158314D02*
X135847500Y-131954186D01*
X134027500Y-133158314D02*
X134027500Y-131954186D01*
X120448000Y-131186422D02*
X120448000Y-131703578D01*
X121868000Y-131186422D02*
X121868000Y-131703578D01*
X116470500Y-118676922D02*
X116470500Y-119194078D01*
X115050500Y-118676922D02*
X115050500Y-119194078D01*
X105525500Y-119194078D02*
X105525500Y-118676922D01*
X106945500Y-119194078D02*
X106945500Y-118676922D01*
X115971250Y-142616422D02*
X115971250Y-143133578D01*
X117391250Y-142616422D02*
X117391250Y-143133578D01*
X119391500Y-124369328D02*
X119391500Y-123852172D01*
X117971500Y-124369328D02*
X117971500Y-123852172D01*
X106897672Y-143585000D02*
X107414828Y-143585000D01*
X106897672Y-142165000D02*
X107414828Y-142165000D01*
X102310000Y-129639828D02*
X102310000Y-129122672D01*
X100890000Y-129639828D02*
X100890000Y-129122672D01*
D10*
X110521809Y-116461690D02*
X110521809Y-116937880D01*
X110188476Y-115937880D02*
X110521809Y-116461690D01*
X110855142Y-115937880D01*
X111712285Y-116937880D02*
X111140857Y-116937880D01*
X111426571Y-116937880D02*
X111426571Y-115937880D01*
X111331333Y-116080738D01*
X111236095Y-116175976D01*
X111140857Y-116223595D01*
X92908630Y-142819345D02*
X91908630Y-142819345D01*
X91908630Y-142581250D01*
X91956250Y-142438392D01*
X92051488Y-142343154D01*
X92146726Y-142295535D01*
X92337202Y-142247916D01*
X92480059Y-142247916D01*
X92670535Y-142295535D01*
X92765773Y-142343154D01*
X92861011Y-142438392D01*
X92908630Y-142581250D01*
X92908630Y-142819345D01*
X92241964Y-141390773D02*
X92908630Y-141390773D01*
X91861011Y-141628869D02*
X92575297Y-141866964D01*
X92575297Y-141247916D01*
X92908630Y-123769345D02*
X91908630Y-123769345D01*
X91908630Y-123531250D01*
X91956250Y-123388392D01*
X92051488Y-123293154D01*
X92146726Y-123245535D01*
X92337202Y-123197916D01*
X92480059Y-123197916D01*
X92670535Y-123245535D01*
X92765773Y-123293154D01*
X92861011Y-123388392D01*
X92908630Y-123531250D01*
X92908630Y-123769345D01*
X91908630Y-122864583D02*
X91908630Y-122245535D01*
X92289583Y-122578869D01*
X92289583Y-122436011D01*
X92337202Y-122340773D01*
X92384821Y-122293154D01*
X92480059Y-122245535D01*
X92718154Y-122245535D01*
X92813392Y-122293154D01*
X92861011Y-122340773D01*
X92908630Y-122436011D01*
X92908630Y-122721726D01*
X92861011Y-122816964D01*
X92813392Y-122864583D01*
X73858630Y-142819345D02*
X72858630Y-142819345D01*
X72858630Y-142581250D01*
X72906250Y-142438392D01*
X73001488Y-142343154D01*
X73096726Y-142295535D01*
X73287202Y-142247916D01*
X73430059Y-142247916D01*
X73620535Y-142295535D01*
X73715773Y-142343154D01*
X73811011Y-142438392D01*
X73858630Y-142581250D01*
X73858630Y-142819345D01*
X72953869Y-141866964D02*
X72906250Y-141819345D01*
X72858630Y-141724107D01*
X72858630Y-141486011D01*
X72906250Y-141390773D01*
X72953869Y-141343154D01*
X73049107Y-141295535D01*
X73144345Y-141295535D01*
X73287202Y-141343154D01*
X73858630Y-141914583D01*
X73858630Y-141295535D01*
X73858630Y-123769345D02*
X72858630Y-123769345D01*
X72858630Y-123531250D01*
X72906250Y-123388392D01*
X73001488Y-123293154D01*
X73096726Y-123245535D01*
X73287202Y-123197916D01*
X73430059Y-123197916D01*
X73620535Y-123245535D01*
X73715773Y-123293154D01*
X73811011Y-123388392D01*
X73858630Y-123531250D01*
X73858630Y-123769345D01*
X73858630Y-122245535D02*
X73858630Y-122816964D01*
X73858630Y-122531250D02*
X72858630Y-122531250D01*
X73001488Y-122626488D01*
X73096726Y-122721726D01*
X73144345Y-122816964D01*
X129230654Y-116578130D02*
X129230654Y-117387654D01*
X129278273Y-117482892D01*
X129325892Y-117530511D01*
X129421130Y-117578130D01*
X129611607Y-117578130D01*
X129706845Y-117530511D01*
X129754464Y-117482892D01*
X129802083Y-117387654D01*
X129802083Y-116578130D01*
X130230654Y-117530511D02*
X130373511Y-117578130D01*
X130611607Y-117578130D01*
X130706845Y-117530511D01*
X130754464Y-117482892D01*
X130802083Y-117387654D01*
X130802083Y-117292416D01*
X130754464Y-117197178D01*
X130706845Y-117149559D01*
X130611607Y-117101940D01*
X130421130Y-117054321D01*
X130325892Y-117006702D01*
X130278273Y-116959083D01*
X130230654Y-116863845D01*
X130230654Y-116768607D01*
X130278273Y-116673369D01*
X130325892Y-116625750D01*
X130421130Y-116578130D01*
X130659226Y-116578130D01*
X130802083Y-116625750D01*
X131563988Y-117054321D02*
X131706845Y-117101940D01*
X131754464Y-117149559D01*
X131802083Y-117244797D01*
X131802083Y-117387654D01*
X131754464Y-117482892D01*
X131706845Y-117530511D01*
X131611607Y-117578130D01*
X131230654Y-117578130D01*
X131230654Y-116578130D01*
X131563988Y-116578130D01*
X131659226Y-116625750D01*
X131706845Y-116673369D01*
X131754464Y-116768607D01*
X131754464Y-116863845D01*
X131706845Y-116959083D01*
X131659226Y-117006702D01*
X131563988Y-117054321D01*
X131230654Y-117054321D01*
X132754464Y-117578130D02*
X132183035Y-117578130D01*
X132468750Y-117578130D02*
X132468750Y-116578130D01*
X132373511Y-116720988D01*
X132278273Y-116816226D01*
X132183035Y-116863845D01*
X110363095Y-139458630D02*
X110363095Y-140268154D01*
X110410714Y-140363392D01*
X110458333Y-140411011D01*
X110553571Y-140458630D01*
X110744047Y-140458630D01*
X110839285Y-140411011D01*
X110886904Y-140363392D01*
X110934523Y-140268154D01*
X110934523Y-139458630D01*
X111934523Y-140458630D02*
X111363095Y-140458630D01*
X111648809Y-140458630D02*
X111648809Y-139458630D01*
X111553571Y-139601488D01*
X111458333Y-139696726D01*
X111363095Y-139744345D01*
X128047916Y-151312511D02*
X128190773Y-151360130D01*
X128428869Y-151360130D01*
X128524107Y-151312511D01*
X128571726Y-151264892D01*
X128619345Y-151169654D01*
X128619345Y-151074416D01*
X128571726Y-150979178D01*
X128524107Y-150931559D01*
X128428869Y-150883940D01*
X128238392Y-150836321D01*
X128143154Y-150788702D01*
X128095535Y-150741083D01*
X128047916Y-150645845D01*
X128047916Y-150550607D01*
X128095535Y-150455369D01*
X128143154Y-150407750D01*
X128238392Y-150360130D01*
X128476488Y-150360130D01*
X128619345Y-150407750D01*
X128952678Y-150360130D02*
X129190773Y-151360130D01*
X129381250Y-150645845D01*
X129571726Y-151360130D01*
X129809821Y-150360130D01*
X130714583Y-151360130D02*
X130143154Y-151360130D01*
X130428869Y-151360130D02*
X130428869Y-150360130D01*
X130333630Y-150502988D01*
X130238392Y-150598226D01*
X130143154Y-150645845D01*
X100402380Y-139866666D02*
X99926190Y-140200000D01*
X100402380Y-140438095D02*
X99402380Y-140438095D01*
X99402380Y-140057142D01*
X99450000Y-139961904D01*
X99497619Y-139914285D01*
X99592857Y-139866666D01*
X99735714Y-139866666D01*
X99830952Y-139914285D01*
X99878571Y-139961904D01*
X99926190Y-140057142D01*
X99926190Y-140438095D01*
X99735714Y-139009523D02*
X100402380Y-139009523D01*
X99354761Y-139247619D02*
X100069047Y-139485714D01*
X100069047Y-138866666D01*
X123958880Y-124277416D02*
X123482690Y-124610750D01*
X123958880Y-124848845D02*
X122958880Y-124848845D01*
X122958880Y-124467892D01*
X123006500Y-124372654D01*
X123054119Y-124325035D01*
X123149357Y-124277416D01*
X123292214Y-124277416D01*
X123387452Y-124325035D01*
X123435071Y-124372654D01*
X123482690Y-124467892D01*
X123482690Y-124848845D01*
X122958880Y-123944083D02*
X122958880Y-123325035D01*
X123339833Y-123658369D01*
X123339833Y-123515511D01*
X123387452Y-123420273D01*
X123435071Y-123372654D01*
X123530309Y-123325035D01*
X123768404Y-123325035D01*
X123863642Y-123372654D01*
X123911261Y-123420273D01*
X123958880Y-123515511D01*
X123958880Y-123801226D01*
X123911261Y-123896464D01*
X123863642Y-123944083D01*
X128628130Y-125801416D02*
X128151940Y-126134750D01*
X128628130Y-126372845D02*
X127628130Y-126372845D01*
X127628130Y-125991892D01*
X127675750Y-125896654D01*
X127723369Y-125849035D01*
X127818607Y-125801416D01*
X127961464Y-125801416D01*
X128056702Y-125849035D01*
X128104321Y-125896654D01*
X128151940Y-125991892D01*
X128151940Y-126372845D01*
X127723369Y-125420464D02*
X127675750Y-125372845D01*
X127628130Y-125277607D01*
X127628130Y-125039511D01*
X127675750Y-124944273D01*
X127723369Y-124896654D01*
X127818607Y-124849035D01*
X127913845Y-124849035D01*
X128056702Y-124896654D01*
X128628130Y-125468083D01*
X128628130Y-124849035D01*
X131517380Y-125642666D02*
X131041190Y-125976000D01*
X131517380Y-126214095D02*
X130517380Y-126214095D01*
X130517380Y-125833142D01*
X130565000Y-125737904D01*
X130612619Y-125690285D01*
X130707857Y-125642666D01*
X130850714Y-125642666D01*
X130945952Y-125690285D01*
X130993571Y-125737904D01*
X131041190Y-125833142D01*
X131041190Y-126214095D01*
X131517380Y-124690285D02*
X131517380Y-125261714D01*
X131517380Y-124976000D02*
X130517380Y-124976000D01*
X130660238Y-125071238D01*
X130755476Y-125166476D01*
X130803095Y-125261714D01*
X133046071Y-132889583D02*
X133046071Y-133222916D01*
X133569880Y-133222916D02*
X132569880Y-133222916D01*
X132569880Y-132746726D01*
X133569880Y-131841964D02*
X133569880Y-132413392D01*
X133569880Y-132127678D02*
X132569880Y-132127678D01*
X132712738Y-132222916D01*
X132807976Y-132318154D01*
X132855595Y-132413392D01*
X123165142Y-131611666D02*
X123212761Y-131659285D01*
X123260380Y-131802142D01*
X123260380Y-131897380D01*
X123212761Y-132040238D01*
X123117523Y-132135476D01*
X123022285Y-132183095D01*
X122831809Y-132230714D01*
X122688952Y-132230714D01*
X122498476Y-132183095D01*
X122403238Y-132135476D01*
X122308000Y-132040238D01*
X122260380Y-131897380D01*
X122260380Y-131802142D01*
X122308000Y-131659285D01*
X122355619Y-131611666D01*
X122260380Y-131278333D02*
X122260380Y-130611666D01*
X123260380Y-131040238D01*
X117767642Y-119102166D02*
X117815261Y-119149785D01*
X117862880Y-119292642D01*
X117862880Y-119387880D01*
X117815261Y-119530738D01*
X117720023Y-119625976D01*
X117624785Y-119673595D01*
X117434309Y-119721214D01*
X117291452Y-119721214D01*
X117100976Y-119673595D01*
X117005738Y-119625976D01*
X116910500Y-119530738D01*
X116862880Y-119387880D01*
X116862880Y-119292642D01*
X116910500Y-119149785D01*
X116958119Y-119102166D01*
X116862880Y-118245023D02*
X116862880Y-118435500D01*
X116910500Y-118530738D01*
X116958119Y-118578357D01*
X117100976Y-118673595D01*
X117291452Y-118721214D01*
X117672404Y-118721214D01*
X117767642Y-118673595D01*
X117815261Y-118625976D01*
X117862880Y-118530738D01*
X117862880Y-118340261D01*
X117815261Y-118245023D01*
X117767642Y-118197404D01*
X117672404Y-118149785D01*
X117434309Y-118149785D01*
X117339071Y-118197404D01*
X117291452Y-118245023D01*
X117243833Y-118340261D01*
X117243833Y-118530738D01*
X117291452Y-118625976D01*
X117339071Y-118673595D01*
X117434309Y-118721214D01*
X104942642Y-119102166D02*
X104990261Y-119149785D01*
X105037880Y-119292642D01*
X105037880Y-119387880D01*
X104990261Y-119530738D01*
X104895023Y-119625976D01*
X104799785Y-119673595D01*
X104609309Y-119721214D01*
X104466452Y-119721214D01*
X104275976Y-119673595D01*
X104180738Y-119625976D01*
X104085500Y-119530738D01*
X104037880Y-119387880D01*
X104037880Y-119292642D01*
X104085500Y-119149785D01*
X104133119Y-119102166D01*
X104037880Y-118197404D02*
X104037880Y-118673595D01*
X104514071Y-118721214D01*
X104466452Y-118673595D01*
X104418833Y-118578357D01*
X104418833Y-118340261D01*
X104466452Y-118245023D01*
X104514071Y-118197404D01*
X104609309Y-118149785D01*
X104847404Y-118149785D01*
X104942642Y-118197404D01*
X104990261Y-118245023D01*
X105037880Y-118340261D01*
X105037880Y-118578357D01*
X104990261Y-118673595D01*
X104942642Y-118721214D01*
X115450892Y-143041666D02*
X115498511Y-143089285D01*
X115546130Y-143232142D01*
X115546130Y-143327380D01*
X115498511Y-143470238D01*
X115403273Y-143565476D01*
X115308035Y-143613095D01*
X115117559Y-143660714D01*
X114974702Y-143660714D01*
X114784226Y-143613095D01*
X114688988Y-143565476D01*
X114593750Y-143470238D01*
X114546130Y-143327380D01*
X114546130Y-143232142D01*
X114593750Y-143089285D01*
X114641369Y-143041666D01*
X114879464Y-142184523D02*
X115546130Y-142184523D01*
X114498511Y-142422619D02*
X115212797Y-142660714D01*
X115212797Y-142041666D01*
X117388642Y-124277416D02*
X117436261Y-124325035D01*
X117483880Y-124467892D01*
X117483880Y-124563130D01*
X117436261Y-124705988D01*
X117341023Y-124801226D01*
X117245785Y-124848845D01*
X117055309Y-124896464D01*
X116912452Y-124896464D01*
X116721976Y-124848845D01*
X116626738Y-124801226D01*
X116531500Y-124705988D01*
X116483880Y-124563130D01*
X116483880Y-124467892D01*
X116531500Y-124325035D01*
X116579119Y-124277416D01*
X116483880Y-123944083D02*
X116483880Y-123325035D01*
X116864833Y-123658369D01*
X116864833Y-123515511D01*
X116912452Y-123420273D01*
X116960071Y-123372654D01*
X117055309Y-123325035D01*
X117293404Y-123325035D01*
X117388642Y-123372654D01*
X117436261Y-123420273D01*
X117483880Y-123515511D01*
X117483880Y-123801226D01*
X117436261Y-123896464D01*
X117388642Y-123944083D01*
X106989583Y-141582142D02*
X106941964Y-141629761D01*
X106799107Y-141677380D01*
X106703869Y-141677380D01*
X106561011Y-141629761D01*
X106465773Y-141534523D01*
X106418154Y-141439285D01*
X106370535Y-141248809D01*
X106370535Y-141105952D01*
X106418154Y-140915476D01*
X106465773Y-140820238D01*
X106561011Y-140725000D01*
X106703869Y-140677380D01*
X106799107Y-140677380D01*
X106941964Y-140725000D01*
X106989583Y-140772619D01*
X107370535Y-140772619D02*
X107418154Y-140725000D01*
X107513392Y-140677380D01*
X107751488Y-140677380D01*
X107846726Y-140725000D01*
X107894345Y-140772619D01*
X107941964Y-140867857D01*
X107941964Y-140963095D01*
X107894345Y-141105952D01*
X107322916Y-141677380D01*
X107941964Y-141677380D01*
X100307142Y-129547916D02*
X100354761Y-129595535D01*
X100402380Y-129738392D01*
X100402380Y-129833630D01*
X100354761Y-129976488D01*
X100259523Y-130071726D01*
X100164285Y-130119345D01*
X99973809Y-130166964D01*
X99830952Y-130166964D01*
X99640476Y-130119345D01*
X99545238Y-130071726D01*
X99450000Y-129976488D01*
X99402380Y-129833630D01*
X99402380Y-129738392D01*
X99450000Y-129595535D01*
X99497619Y-129547916D01*
X100402380Y-128595535D02*
X100402380Y-129166964D01*
X100402380Y-128881250D02*
X99402380Y-128881250D01*
X99545238Y-128976488D01*
X99640476Y-129071726D01*
X99688095Y-129166964D01*
%LPC*%
D12*
X109898000Y-119785500D03*
X112098000Y-119785500D03*
X112098000Y-118085500D03*
X109898000Y-118085500D03*
D13*
X86527000Y-142041000D03*
D14*
X81447000Y-142041000D03*
X91607000Y-142041000D03*
D13*
X86518750Y-123031250D03*
D14*
X81438750Y-123031250D03*
X91598750Y-123031250D03*
D13*
X67468750Y-142081250D03*
D14*
X62388750Y-142081250D03*
X72548750Y-142081250D03*
D13*
X67468750Y-123031250D03*
D14*
X62388750Y-123031250D03*
X72548750Y-123031250D03*
D15*
X94456250Y-140431250D03*
X94456250Y-143731250D03*
X94456250Y-121381250D03*
X94456250Y-124681250D03*
X75406250Y-140431250D03*
X75406250Y-143731250D03*
X75406250Y-121381250D03*
X75406250Y-124681250D03*
D16*
X129368750Y-119593750D03*
X130168750Y-119593750D03*
X130968750Y-119593750D03*
X131768750Y-119593750D03*
X132568750Y-119593750D03*
D17*
X134618750Y-119593750D03*
X127318750Y-119593750D03*
X127318750Y-115093750D03*
X134618750Y-115093750D03*
D18*
X116825000Y-136556250D03*
X116825000Y-135756250D03*
X116825000Y-134956250D03*
X116825000Y-134156250D03*
X116825000Y-133356250D03*
X116825000Y-132556250D03*
X116825000Y-131756250D03*
X116825000Y-130956250D03*
X116825000Y-130156250D03*
X116825000Y-129356250D03*
X116825000Y-128556250D03*
D19*
X115125000Y-126856250D03*
X114325000Y-126856250D03*
X113525000Y-126856250D03*
X112725000Y-126856250D03*
X111925000Y-126856250D03*
X111125000Y-126856250D03*
X110325000Y-126856250D03*
X109525000Y-126856250D03*
X108725000Y-126856250D03*
X107925000Y-126856250D03*
X107125000Y-126856250D03*
D18*
X105425000Y-128556250D03*
X105425000Y-129356250D03*
X105425000Y-130156250D03*
X105425000Y-130956250D03*
X105425000Y-131756250D03*
X105425000Y-132556250D03*
X105425000Y-133356250D03*
X105425000Y-134156250D03*
X105425000Y-134956250D03*
X105425000Y-135756250D03*
X105425000Y-136556250D03*
D19*
X107125000Y-138256250D03*
X107925000Y-138256250D03*
X108725000Y-138256250D03*
X109525000Y-138256250D03*
X110325000Y-138256250D03*
X111125000Y-138256250D03*
X111925000Y-138256250D03*
X112725000Y-138256250D03*
X113525000Y-138256250D03*
X114325000Y-138256250D03*
X115125000Y-138256250D03*
D20*
X132481250Y-148693750D03*
X126281250Y-144993750D03*
X132481250Y-144993750D03*
X126281250Y-148693750D03*
D21*
G36*
X102108141Y-138225297D02*
G01*
X102134278Y-138229174D01*
X102159909Y-138235594D01*
X102184788Y-138244495D01*
X102208674Y-138255793D01*
X102231337Y-138269377D01*
X102252560Y-138285117D01*
X102272139Y-138302861D01*
X102289883Y-138322440D01*
X102305623Y-138343663D01*
X102319207Y-138366326D01*
X102330505Y-138390212D01*
X102339406Y-138415091D01*
X102345826Y-138440722D01*
X102349703Y-138466859D01*
X102351000Y-138493250D01*
X102351000Y-139031750D01*
X102349703Y-139058141D01*
X102345826Y-139084278D01*
X102339406Y-139109909D01*
X102330505Y-139134788D01*
X102319207Y-139158674D01*
X102305623Y-139181337D01*
X102289883Y-139202560D01*
X102272139Y-139222139D01*
X102252560Y-139239883D01*
X102231337Y-139255623D01*
X102208674Y-139269207D01*
X102184788Y-139280505D01*
X102159909Y-139289406D01*
X102134278Y-139295826D01*
X102108141Y-139299703D01*
X102081750Y-139301000D01*
X101118250Y-139301000D01*
X101091859Y-139299703D01*
X101065722Y-139295826D01*
X101040091Y-139289406D01*
X101015212Y-139280505D01*
X100991326Y-139269207D01*
X100968663Y-139255623D01*
X100947440Y-139239883D01*
X100927861Y-139222139D01*
X100910117Y-139202560D01*
X100894377Y-139181337D01*
X100880793Y-139158674D01*
X100869495Y-139134788D01*
X100860594Y-139109909D01*
X100854174Y-139084278D01*
X100850297Y-139058141D01*
X100849000Y-139031750D01*
X100849000Y-138493250D01*
X100850297Y-138466859D01*
X100854174Y-138440722D01*
X100860594Y-138415091D01*
X100869495Y-138390212D01*
X100880793Y-138366326D01*
X100894377Y-138343663D01*
X100910117Y-138322440D01*
X100927861Y-138302861D01*
X100947440Y-138285117D01*
X100968663Y-138269377D01*
X100991326Y-138255793D01*
X101015212Y-138244495D01*
X101040091Y-138235594D01*
X101065722Y-138229174D01*
X101091859Y-138225297D01*
X101118250Y-138224000D01*
X102081750Y-138224000D01*
X102108141Y-138225297D01*
X102108141Y-138225297D01*
G37*
D22*
X101600000Y-138762500D03*
D21*
G36*
X102108141Y-140100297D02*
G01*
X102134278Y-140104174D01*
X102159909Y-140110594D01*
X102184788Y-140119495D01*
X102208674Y-140130793D01*
X102231337Y-140144377D01*
X102252560Y-140160117D01*
X102272139Y-140177861D01*
X102289883Y-140197440D01*
X102305623Y-140218663D01*
X102319207Y-140241326D01*
X102330505Y-140265212D01*
X102339406Y-140290091D01*
X102345826Y-140315722D01*
X102349703Y-140341859D01*
X102351000Y-140368250D01*
X102351000Y-140906750D01*
X102349703Y-140933141D01*
X102345826Y-140959278D01*
X102339406Y-140984909D01*
X102330505Y-141009788D01*
X102319207Y-141033674D01*
X102305623Y-141056337D01*
X102289883Y-141077560D01*
X102272139Y-141097139D01*
X102252560Y-141114883D01*
X102231337Y-141130623D01*
X102208674Y-141144207D01*
X102184788Y-141155505D01*
X102159909Y-141164406D01*
X102134278Y-141170826D01*
X102108141Y-141174703D01*
X102081750Y-141176000D01*
X101118250Y-141176000D01*
X101091859Y-141174703D01*
X101065722Y-141170826D01*
X101040091Y-141164406D01*
X101015212Y-141155505D01*
X100991326Y-141144207D01*
X100968663Y-141130623D01*
X100947440Y-141114883D01*
X100927861Y-141097139D01*
X100910117Y-141077560D01*
X100894377Y-141056337D01*
X100880793Y-141033674D01*
X100869495Y-141009788D01*
X100860594Y-140984909D01*
X100854174Y-140959278D01*
X100850297Y-140933141D01*
X100849000Y-140906750D01*
X100849000Y-140368250D01*
X100850297Y-140341859D01*
X100854174Y-140315722D01*
X100860594Y-140290091D01*
X100869495Y-140265212D01*
X100880793Y-140241326D01*
X100894377Y-140218663D01*
X100910117Y-140197440D01*
X100927861Y-140177861D01*
X100947440Y-140160117D01*
X100968663Y-140144377D01*
X100991326Y-140130793D01*
X101015212Y-140119495D01*
X101040091Y-140110594D01*
X101065722Y-140104174D01*
X101091859Y-140100297D01*
X101118250Y-140099000D01*
X102081750Y-140099000D01*
X102108141Y-140100297D01*
X102108141Y-140100297D01*
G37*
D22*
X101600000Y-140637500D03*
D21*
G36*
X122364641Y-124511047D02*
G01*
X122390778Y-124514924D01*
X122416409Y-124521344D01*
X122441288Y-124530245D01*
X122465174Y-124541543D01*
X122487837Y-124555127D01*
X122509060Y-124570867D01*
X122528639Y-124588611D01*
X122546383Y-124608190D01*
X122562123Y-124629413D01*
X122575707Y-124652076D01*
X122587005Y-124675962D01*
X122595906Y-124700841D01*
X122602326Y-124726472D01*
X122606203Y-124752609D01*
X122607500Y-124779000D01*
X122607500Y-125317500D01*
X122606203Y-125343891D01*
X122602326Y-125370028D01*
X122595906Y-125395659D01*
X122587005Y-125420538D01*
X122575707Y-125444424D01*
X122562123Y-125467087D01*
X122546383Y-125488310D01*
X122528639Y-125507889D01*
X122509060Y-125525633D01*
X122487837Y-125541373D01*
X122465174Y-125554957D01*
X122441288Y-125566255D01*
X122416409Y-125575156D01*
X122390778Y-125581576D01*
X122364641Y-125585453D01*
X122338250Y-125586750D01*
X121374750Y-125586750D01*
X121348359Y-125585453D01*
X121322222Y-125581576D01*
X121296591Y-125575156D01*
X121271712Y-125566255D01*
X121247826Y-125554957D01*
X121225163Y-125541373D01*
X121203940Y-125525633D01*
X121184361Y-125507889D01*
X121166617Y-125488310D01*
X121150877Y-125467087D01*
X121137293Y-125444424D01*
X121125995Y-125420538D01*
X121117094Y-125395659D01*
X121110674Y-125370028D01*
X121106797Y-125343891D01*
X121105500Y-125317500D01*
X121105500Y-124779000D01*
X121106797Y-124752609D01*
X121110674Y-124726472D01*
X121117094Y-124700841D01*
X121125995Y-124675962D01*
X121137293Y-124652076D01*
X121150877Y-124629413D01*
X121166617Y-124608190D01*
X121184361Y-124588611D01*
X121203940Y-124570867D01*
X121225163Y-124555127D01*
X121247826Y-124541543D01*
X121271712Y-124530245D01*
X121296591Y-124521344D01*
X121322222Y-124514924D01*
X121348359Y-124511047D01*
X121374750Y-124509750D01*
X122338250Y-124509750D01*
X122364641Y-124511047D01*
X122364641Y-124511047D01*
G37*
D22*
X121856500Y-125048250D03*
D21*
G36*
X122364641Y-122636047D02*
G01*
X122390778Y-122639924D01*
X122416409Y-122646344D01*
X122441288Y-122655245D01*
X122465174Y-122666543D01*
X122487837Y-122680127D01*
X122509060Y-122695867D01*
X122528639Y-122713611D01*
X122546383Y-122733190D01*
X122562123Y-122754413D01*
X122575707Y-122777076D01*
X122587005Y-122800962D01*
X122595906Y-122825841D01*
X122602326Y-122851472D01*
X122606203Y-122877609D01*
X122607500Y-122904000D01*
X122607500Y-123442500D01*
X122606203Y-123468891D01*
X122602326Y-123495028D01*
X122595906Y-123520659D01*
X122587005Y-123545538D01*
X122575707Y-123569424D01*
X122562123Y-123592087D01*
X122546383Y-123613310D01*
X122528639Y-123632889D01*
X122509060Y-123650633D01*
X122487837Y-123666373D01*
X122465174Y-123679957D01*
X122441288Y-123691255D01*
X122416409Y-123700156D01*
X122390778Y-123706576D01*
X122364641Y-123710453D01*
X122338250Y-123711750D01*
X121374750Y-123711750D01*
X121348359Y-123710453D01*
X121322222Y-123706576D01*
X121296591Y-123700156D01*
X121271712Y-123691255D01*
X121247826Y-123679957D01*
X121225163Y-123666373D01*
X121203940Y-123650633D01*
X121184361Y-123632889D01*
X121166617Y-123613310D01*
X121150877Y-123592087D01*
X121137293Y-123569424D01*
X121125995Y-123545538D01*
X121117094Y-123520659D01*
X121110674Y-123495028D01*
X121106797Y-123468891D01*
X121105500Y-123442500D01*
X121105500Y-122904000D01*
X121106797Y-122877609D01*
X121110674Y-122851472D01*
X121117094Y-122825841D01*
X121125995Y-122800962D01*
X121137293Y-122777076D01*
X121150877Y-122754413D01*
X121166617Y-122733190D01*
X121184361Y-122713611D01*
X121203940Y-122695867D01*
X121225163Y-122680127D01*
X121247826Y-122666543D01*
X121271712Y-122655245D01*
X121296591Y-122646344D01*
X121322222Y-122639924D01*
X121348359Y-122636047D01*
X121374750Y-122634750D01*
X122338250Y-122634750D01*
X122364641Y-122636047D01*
X122364641Y-122636047D01*
G37*
D22*
X121856500Y-123173250D03*
D21*
G36*
X130333891Y-124160047D02*
G01*
X130360028Y-124163924D01*
X130385659Y-124170344D01*
X130410538Y-124179245D01*
X130434424Y-124190543D01*
X130457087Y-124204127D01*
X130478310Y-124219867D01*
X130497889Y-124237611D01*
X130515633Y-124257190D01*
X130531373Y-124278413D01*
X130544957Y-124301076D01*
X130556255Y-124324962D01*
X130565156Y-124349841D01*
X130571576Y-124375472D01*
X130575453Y-124401609D01*
X130576750Y-124428000D01*
X130576750Y-124966500D01*
X130575453Y-124992891D01*
X130571576Y-125019028D01*
X130565156Y-125044659D01*
X130556255Y-125069538D01*
X130544957Y-125093424D01*
X130531373Y-125116087D01*
X130515633Y-125137310D01*
X130497889Y-125156889D01*
X130478310Y-125174633D01*
X130457087Y-125190373D01*
X130434424Y-125203957D01*
X130410538Y-125215255D01*
X130385659Y-125224156D01*
X130360028Y-125230576D01*
X130333891Y-125234453D01*
X130307500Y-125235750D01*
X129344000Y-125235750D01*
X129317609Y-125234453D01*
X129291472Y-125230576D01*
X129265841Y-125224156D01*
X129240962Y-125215255D01*
X129217076Y-125203957D01*
X129194413Y-125190373D01*
X129173190Y-125174633D01*
X129153611Y-125156889D01*
X129135867Y-125137310D01*
X129120127Y-125116087D01*
X129106543Y-125093424D01*
X129095245Y-125069538D01*
X129086344Y-125044659D01*
X129079924Y-125019028D01*
X129076047Y-124992891D01*
X129074750Y-124966500D01*
X129074750Y-124428000D01*
X129076047Y-124401609D01*
X129079924Y-124375472D01*
X129086344Y-124349841D01*
X129095245Y-124324962D01*
X129106543Y-124301076D01*
X129120127Y-124278413D01*
X129135867Y-124257190D01*
X129153611Y-124237611D01*
X129173190Y-124219867D01*
X129194413Y-124204127D01*
X129217076Y-124190543D01*
X129240962Y-124179245D01*
X129265841Y-124170344D01*
X129291472Y-124163924D01*
X129317609Y-124160047D01*
X129344000Y-124158750D01*
X130307500Y-124158750D01*
X130333891Y-124160047D01*
X130333891Y-124160047D01*
G37*
D22*
X129825750Y-124697250D03*
D21*
G36*
X130333891Y-126035047D02*
G01*
X130360028Y-126038924D01*
X130385659Y-126045344D01*
X130410538Y-126054245D01*
X130434424Y-126065543D01*
X130457087Y-126079127D01*
X130478310Y-126094867D01*
X130497889Y-126112611D01*
X130515633Y-126132190D01*
X130531373Y-126153413D01*
X130544957Y-126176076D01*
X130556255Y-126199962D01*
X130565156Y-126224841D01*
X130571576Y-126250472D01*
X130575453Y-126276609D01*
X130576750Y-126303000D01*
X130576750Y-126841500D01*
X130575453Y-126867891D01*
X130571576Y-126894028D01*
X130565156Y-126919659D01*
X130556255Y-126944538D01*
X130544957Y-126968424D01*
X130531373Y-126991087D01*
X130515633Y-127012310D01*
X130497889Y-127031889D01*
X130478310Y-127049633D01*
X130457087Y-127065373D01*
X130434424Y-127078957D01*
X130410538Y-127090255D01*
X130385659Y-127099156D01*
X130360028Y-127105576D01*
X130333891Y-127109453D01*
X130307500Y-127110750D01*
X129344000Y-127110750D01*
X129317609Y-127109453D01*
X129291472Y-127105576D01*
X129265841Y-127099156D01*
X129240962Y-127090255D01*
X129217076Y-127078957D01*
X129194413Y-127065373D01*
X129173190Y-127049633D01*
X129153611Y-127031889D01*
X129135867Y-127012310D01*
X129120127Y-126991087D01*
X129106543Y-126968424D01*
X129095245Y-126944538D01*
X129086344Y-126919659D01*
X129079924Y-126894028D01*
X129076047Y-126867891D01*
X129074750Y-126841500D01*
X129074750Y-126303000D01*
X129076047Y-126276609D01*
X129079924Y-126250472D01*
X129086344Y-126224841D01*
X129095245Y-126199962D01*
X129106543Y-126176076D01*
X129120127Y-126153413D01*
X129135867Y-126132190D01*
X129153611Y-126112611D01*
X129173190Y-126094867D01*
X129194413Y-126079127D01*
X129217076Y-126065543D01*
X129240962Y-126054245D01*
X129265841Y-126045344D01*
X129291472Y-126038924D01*
X129317609Y-126035047D01*
X129344000Y-126033750D01*
X130307500Y-126033750D01*
X130333891Y-126035047D01*
X130333891Y-126035047D01*
G37*
D22*
X129825750Y-126572250D03*
D21*
G36*
X133223141Y-124001297D02*
G01*
X133249278Y-124005174D01*
X133274909Y-124011594D01*
X133299788Y-124020495D01*
X133323674Y-124031793D01*
X133346337Y-124045377D01*
X133367560Y-124061117D01*
X133387139Y-124078861D01*
X133404883Y-124098440D01*
X133420623Y-124119663D01*
X133434207Y-124142326D01*
X133445505Y-124166212D01*
X133454406Y-124191091D01*
X133460826Y-124216722D01*
X133464703Y-124242859D01*
X133466000Y-124269250D01*
X133466000Y-124807750D01*
X133464703Y-124834141D01*
X133460826Y-124860278D01*
X133454406Y-124885909D01*
X133445505Y-124910788D01*
X133434207Y-124934674D01*
X133420623Y-124957337D01*
X133404883Y-124978560D01*
X133387139Y-124998139D01*
X133367560Y-125015883D01*
X133346337Y-125031623D01*
X133323674Y-125045207D01*
X133299788Y-125056505D01*
X133274909Y-125065406D01*
X133249278Y-125071826D01*
X133223141Y-125075703D01*
X133196750Y-125077000D01*
X132233250Y-125077000D01*
X132206859Y-125075703D01*
X132180722Y-125071826D01*
X132155091Y-125065406D01*
X132130212Y-125056505D01*
X132106326Y-125045207D01*
X132083663Y-125031623D01*
X132062440Y-125015883D01*
X132042861Y-124998139D01*
X132025117Y-124978560D01*
X132009377Y-124957337D01*
X131995793Y-124934674D01*
X131984495Y-124910788D01*
X131975594Y-124885909D01*
X131969174Y-124860278D01*
X131965297Y-124834141D01*
X131964000Y-124807750D01*
X131964000Y-124269250D01*
X131965297Y-124242859D01*
X131969174Y-124216722D01*
X131975594Y-124191091D01*
X131984495Y-124166212D01*
X131995793Y-124142326D01*
X132009377Y-124119663D01*
X132025117Y-124098440D01*
X132042861Y-124078861D01*
X132062440Y-124061117D01*
X132083663Y-124045377D01*
X132106326Y-124031793D01*
X132130212Y-124020495D01*
X132155091Y-124011594D01*
X132180722Y-124005174D01*
X132206859Y-124001297D01*
X132233250Y-124000000D01*
X133196750Y-124000000D01*
X133223141Y-124001297D01*
X133223141Y-124001297D01*
G37*
D22*
X132715000Y-124538500D03*
D21*
G36*
X133223141Y-125876297D02*
G01*
X133249278Y-125880174D01*
X133274909Y-125886594D01*
X133299788Y-125895495D01*
X133323674Y-125906793D01*
X133346337Y-125920377D01*
X133367560Y-125936117D01*
X133387139Y-125953861D01*
X133404883Y-125973440D01*
X133420623Y-125994663D01*
X133434207Y-126017326D01*
X133445505Y-126041212D01*
X133454406Y-126066091D01*
X133460826Y-126091722D01*
X133464703Y-126117859D01*
X133466000Y-126144250D01*
X133466000Y-126682750D01*
X133464703Y-126709141D01*
X133460826Y-126735278D01*
X133454406Y-126760909D01*
X133445505Y-126785788D01*
X133434207Y-126809674D01*
X133420623Y-126832337D01*
X133404883Y-126853560D01*
X133387139Y-126873139D01*
X133367560Y-126890883D01*
X133346337Y-126906623D01*
X133323674Y-126920207D01*
X133299788Y-126931505D01*
X133274909Y-126940406D01*
X133249278Y-126946826D01*
X133223141Y-126950703D01*
X133196750Y-126952000D01*
X132233250Y-126952000D01*
X132206859Y-126950703D01*
X132180722Y-126946826D01*
X132155091Y-126940406D01*
X132130212Y-126931505D01*
X132106326Y-126920207D01*
X132083663Y-126906623D01*
X132062440Y-126890883D01*
X132042861Y-126873139D01*
X132025117Y-126853560D01*
X132009377Y-126832337D01*
X131995793Y-126809674D01*
X131984495Y-126785788D01*
X131975594Y-126760909D01*
X131969174Y-126735278D01*
X131965297Y-126709141D01*
X131964000Y-126682750D01*
X131964000Y-126144250D01*
X131965297Y-126117859D01*
X131969174Y-126091722D01*
X131975594Y-126066091D01*
X131984495Y-126041212D01*
X131995793Y-126017326D01*
X132009377Y-125994663D01*
X132025117Y-125973440D01*
X132042861Y-125953861D01*
X132062440Y-125936117D01*
X132083663Y-125920377D01*
X132106326Y-125906793D01*
X132130212Y-125895495D01*
X132155091Y-125886594D01*
X132180722Y-125880174D01*
X132206859Y-125876297D01*
X132233250Y-125875000D01*
X133196750Y-125875000D01*
X133223141Y-125876297D01*
X133223141Y-125876297D01*
G37*
D22*
X132715000Y-126413500D03*
D21*
G36*
X135619604Y-130481552D02*
G01*
X135645852Y-130485446D01*
X135671593Y-130491893D01*
X135696578Y-130500833D01*
X135720566Y-130512178D01*
X135743326Y-130525821D01*
X135764640Y-130541628D01*
X135784302Y-130559448D01*
X135802122Y-130579110D01*
X135817929Y-130600424D01*
X135831572Y-130623184D01*
X135842917Y-130647172D01*
X135851857Y-130672157D01*
X135858304Y-130697898D01*
X135862198Y-130724146D01*
X135863500Y-130750650D01*
X135863500Y-131561850D01*
X135862198Y-131588354D01*
X135858304Y-131614602D01*
X135851857Y-131640343D01*
X135842917Y-131665328D01*
X135831572Y-131689316D01*
X135817929Y-131712076D01*
X135802122Y-131733390D01*
X135784302Y-131753052D01*
X135764640Y-131770872D01*
X135743326Y-131786679D01*
X135720566Y-131800322D01*
X135696578Y-131811667D01*
X135671593Y-131820607D01*
X135645852Y-131827054D01*
X135619604Y-131830948D01*
X135593100Y-131832250D01*
X134281900Y-131832250D01*
X134255396Y-131830948D01*
X134229148Y-131827054D01*
X134203407Y-131820607D01*
X134178422Y-131811667D01*
X134154434Y-131800322D01*
X134131674Y-131786679D01*
X134110360Y-131770872D01*
X134090698Y-131753052D01*
X134072878Y-131733390D01*
X134057071Y-131712076D01*
X134043428Y-131689316D01*
X134032083Y-131665328D01*
X134023143Y-131640343D01*
X134016696Y-131614602D01*
X134012802Y-131588354D01*
X134011500Y-131561850D01*
X134011500Y-130750650D01*
X134012802Y-130724146D01*
X134016696Y-130697898D01*
X134023143Y-130672157D01*
X134032083Y-130647172D01*
X134043428Y-130623184D01*
X134057071Y-130600424D01*
X134072878Y-130579110D01*
X134090698Y-130559448D01*
X134110360Y-130541628D01*
X134131674Y-130525821D01*
X134154434Y-130512178D01*
X134178422Y-130500833D01*
X134203407Y-130491893D01*
X134229148Y-130485446D01*
X134255396Y-130481552D01*
X134281900Y-130480250D01*
X135593100Y-130480250D01*
X135619604Y-130481552D01*
X135619604Y-130481552D01*
G37*
D23*
X134937500Y-131156250D03*
D21*
G36*
X135619604Y-133281552D02*
G01*
X135645852Y-133285446D01*
X135671593Y-133291893D01*
X135696578Y-133300833D01*
X135720566Y-133312178D01*
X135743326Y-133325821D01*
X135764640Y-133341628D01*
X135784302Y-133359448D01*
X135802122Y-133379110D01*
X135817929Y-133400424D01*
X135831572Y-133423184D01*
X135842917Y-133447172D01*
X135851857Y-133472157D01*
X135858304Y-133497898D01*
X135862198Y-133524146D01*
X135863500Y-133550650D01*
X135863500Y-134361850D01*
X135862198Y-134388354D01*
X135858304Y-134414602D01*
X135851857Y-134440343D01*
X135842917Y-134465328D01*
X135831572Y-134489316D01*
X135817929Y-134512076D01*
X135802122Y-134533390D01*
X135784302Y-134553052D01*
X135764640Y-134570872D01*
X135743326Y-134586679D01*
X135720566Y-134600322D01*
X135696578Y-134611667D01*
X135671593Y-134620607D01*
X135645852Y-134627054D01*
X135619604Y-134630948D01*
X135593100Y-134632250D01*
X134281900Y-134632250D01*
X134255396Y-134630948D01*
X134229148Y-134627054D01*
X134203407Y-134620607D01*
X134178422Y-134611667D01*
X134154434Y-134600322D01*
X134131674Y-134586679D01*
X134110360Y-134570872D01*
X134090698Y-134553052D01*
X134072878Y-134533390D01*
X134057071Y-134512076D01*
X134043428Y-134489316D01*
X134032083Y-134465328D01*
X134023143Y-134440343D01*
X134016696Y-134414602D01*
X134012802Y-134388354D01*
X134011500Y-134361850D01*
X134011500Y-133550650D01*
X134012802Y-133524146D01*
X134016696Y-133497898D01*
X134023143Y-133472157D01*
X134032083Y-133447172D01*
X134043428Y-133423184D01*
X134057071Y-133400424D01*
X134072878Y-133379110D01*
X134090698Y-133359448D01*
X134110360Y-133341628D01*
X134131674Y-133325821D01*
X134154434Y-133312178D01*
X134178422Y-133300833D01*
X134203407Y-133291893D01*
X134229148Y-133285446D01*
X134255396Y-133281552D01*
X134281900Y-133280250D01*
X135593100Y-133280250D01*
X135619604Y-133281552D01*
X135619604Y-133281552D01*
G37*
D23*
X134937500Y-133956250D03*
D21*
G36*
X121666141Y-131845297D02*
G01*
X121692278Y-131849174D01*
X121717909Y-131855594D01*
X121742788Y-131864495D01*
X121766674Y-131875793D01*
X121789337Y-131889377D01*
X121810560Y-131905117D01*
X121830139Y-131922861D01*
X121847883Y-131942440D01*
X121863623Y-131963663D01*
X121877207Y-131986326D01*
X121888505Y-132010212D01*
X121897406Y-132035091D01*
X121903826Y-132060722D01*
X121907703Y-132086859D01*
X121909000Y-132113250D01*
X121909000Y-132651750D01*
X121907703Y-132678141D01*
X121903826Y-132704278D01*
X121897406Y-132729909D01*
X121888505Y-132754788D01*
X121877207Y-132778674D01*
X121863623Y-132801337D01*
X121847883Y-132822560D01*
X121830139Y-132842139D01*
X121810560Y-132859883D01*
X121789337Y-132875623D01*
X121766674Y-132889207D01*
X121742788Y-132900505D01*
X121717909Y-132909406D01*
X121692278Y-132915826D01*
X121666141Y-132919703D01*
X121639750Y-132921000D01*
X120676250Y-132921000D01*
X120649859Y-132919703D01*
X120623722Y-132915826D01*
X120598091Y-132909406D01*
X120573212Y-132900505D01*
X120549326Y-132889207D01*
X120526663Y-132875623D01*
X120505440Y-132859883D01*
X120485861Y-132842139D01*
X120468117Y-132822560D01*
X120452377Y-132801337D01*
X120438793Y-132778674D01*
X120427495Y-132754788D01*
X120418594Y-132729909D01*
X120412174Y-132704278D01*
X120408297Y-132678141D01*
X120407000Y-132651750D01*
X120407000Y-132113250D01*
X120408297Y-132086859D01*
X120412174Y-132060722D01*
X120418594Y-132035091D01*
X120427495Y-132010212D01*
X120438793Y-131986326D01*
X120452377Y-131963663D01*
X120468117Y-131942440D01*
X120485861Y-131922861D01*
X120505440Y-131905117D01*
X120526663Y-131889377D01*
X120549326Y-131875793D01*
X120573212Y-131864495D01*
X120598091Y-131855594D01*
X120623722Y-131849174D01*
X120649859Y-131845297D01*
X120676250Y-131844000D01*
X121639750Y-131844000D01*
X121666141Y-131845297D01*
X121666141Y-131845297D01*
G37*
D22*
X121158000Y-132382500D03*
D21*
G36*
X121666141Y-129970297D02*
G01*
X121692278Y-129974174D01*
X121717909Y-129980594D01*
X121742788Y-129989495D01*
X121766674Y-130000793D01*
X121789337Y-130014377D01*
X121810560Y-130030117D01*
X121830139Y-130047861D01*
X121847883Y-130067440D01*
X121863623Y-130088663D01*
X121877207Y-130111326D01*
X121888505Y-130135212D01*
X121897406Y-130160091D01*
X121903826Y-130185722D01*
X121907703Y-130211859D01*
X121909000Y-130238250D01*
X121909000Y-130776750D01*
X121907703Y-130803141D01*
X121903826Y-130829278D01*
X121897406Y-130854909D01*
X121888505Y-130879788D01*
X121877207Y-130903674D01*
X121863623Y-130926337D01*
X121847883Y-130947560D01*
X121830139Y-130967139D01*
X121810560Y-130984883D01*
X121789337Y-131000623D01*
X121766674Y-131014207D01*
X121742788Y-131025505D01*
X121717909Y-131034406D01*
X121692278Y-131040826D01*
X121666141Y-131044703D01*
X121639750Y-131046000D01*
X120676250Y-131046000D01*
X120649859Y-131044703D01*
X120623722Y-131040826D01*
X120598091Y-131034406D01*
X120573212Y-131025505D01*
X120549326Y-131014207D01*
X120526663Y-131000623D01*
X120505440Y-130984883D01*
X120485861Y-130967139D01*
X120468117Y-130947560D01*
X120452377Y-130926337D01*
X120438793Y-130903674D01*
X120427495Y-130879788D01*
X120418594Y-130854909D01*
X120412174Y-130829278D01*
X120408297Y-130803141D01*
X120407000Y-130776750D01*
X120407000Y-130238250D01*
X120408297Y-130211859D01*
X120412174Y-130185722D01*
X120418594Y-130160091D01*
X120427495Y-130135212D01*
X120438793Y-130111326D01*
X120452377Y-130088663D01*
X120468117Y-130067440D01*
X120485861Y-130047861D01*
X120505440Y-130030117D01*
X120526663Y-130014377D01*
X120549326Y-130000793D01*
X120573212Y-129989495D01*
X120598091Y-129980594D01*
X120623722Y-129974174D01*
X120649859Y-129970297D01*
X120676250Y-129969000D01*
X121639750Y-129969000D01*
X121666141Y-129970297D01*
X121666141Y-129970297D01*
G37*
D22*
X121158000Y-130507500D03*
D21*
G36*
X116268641Y-117460797D02*
G01*
X116294778Y-117464674D01*
X116320409Y-117471094D01*
X116345288Y-117479995D01*
X116369174Y-117491293D01*
X116391837Y-117504877D01*
X116413060Y-117520617D01*
X116432639Y-117538361D01*
X116450383Y-117557940D01*
X116466123Y-117579163D01*
X116479707Y-117601826D01*
X116491005Y-117625712D01*
X116499906Y-117650591D01*
X116506326Y-117676222D01*
X116510203Y-117702359D01*
X116511500Y-117728750D01*
X116511500Y-118267250D01*
X116510203Y-118293641D01*
X116506326Y-118319778D01*
X116499906Y-118345409D01*
X116491005Y-118370288D01*
X116479707Y-118394174D01*
X116466123Y-118416837D01*
X116450383Y-118438060D01*
X116432639Y-118457639D01*
X116413060Y-118475383D01*
X116391837Y-118491123D01*
X116369174Y-118504707D01*
X116345288Y-118516005D01*
X116320409Y-118524906D01*
X116294778Y-118531326D01*
X116268641Y-118535203D01*
X116242250Y-118536500D01*
X115278750Y-118536500D01*
X115252359Y-118535203D01*
X115226222Y-118531326D01*
X115200591Y-118524906D01*
X115175712Y-118516005D01*
X115151826Y-118504707D01*
X115129163Y-118491123D01*
X115107940Y-118475383D01*
X115088361Y-118457639D01*
X115070617Y-118438060D01*
X115054877Y-118416837D01*
X115041293Y-118394174D01*
X115029995Y-118370288D01*
X115021094Y-118345409D01*
X115014674Y-118319778D01*
X115010797Y-118293641D01*
X115009500Y-118267250D01*
X115009500Y-117728750D01*
X115010797Y-117702359D01*
X115014674Y-117676222D01*
X115021094Y-117650591D01*
X115029995Y-117625712D01*
X115041293Y-117601826D01*
X115054877Y-117579163D01*
X115070617Y-117557940D01*
X115088361Y-117538361D01*
X115107940Y-117520617D01*
X115129163Y-117504877D01*
X115151826Y-117491293D01*
X115175712Y-117479995D01*
X115200591Y-117471094D01*
X115226222Y-117464674D01*
X115252359Y-117460797D01*
X115278750Y-117459500D01*
X116242250Y-117459500D01*
X116268641Y-117460797D01*
X116268641Y-117460797D01*
G37*
D22*
X115760500Y-117998000D03*
D21*
G36*
X116268641Y-119335797D02*
G01*
X116294778Y-119339674D01*
X116320409Y-119346094D01*
X116345288Y-119354995D01*
X116369174Y-119366293D01*
X116391837Y-119379877D01*
X116413060Y-119395617D01*
X116432639Y-119413361D01*
X116450383Y-119432940D01*
X116466123Y-119454163D01*
X116479707Y-119476826D01*
X116491005Y-119500712D01*
X116499906Y-119525591D01*
X116506326Y-119551222D01*
X116510203Y-119577359D01*
X116511500Y-119603750D01*
X116511500Y-120142250D01*
X116510203Y-120168641D01*
X116506326Y-120194778D01*
X116499906Y-120220409D01*
X116491005Y-120245288D01*
X116479707Y-120269174D01*
X116466123Y-120291837D01*
X116450383Y-120313060D01*
X116432639Y-120332639D01*
X116413060Y-120350383D01*
X116391837Y-120366123D01*
X116369174Y-120379707D01*
X116345288Y-120391005D01*
X116320409Y-120399906D01*
X116294778Y-120406326D01*
X116268641Y-120410203D01*
X116242250Y-120411500D01*
X115278750Y-120411500D01*
X115252359Y-120410203D01*
X115226222Y-120406326D01*
X115200591Y-120399906D01*
X115175712Y-120391005D01*
X115151826Y-120379707D01*
X115129163Y-120366123D01*
X115107940Y-120350383D01*
X115088361Y-120332639D01*
X115070617Y-120313060D01*
X115054877Y-120291837D01*
X115041293Y-120269174D01*
X115029995Y-120245288D01*
X115021094Y-120220409D01*
X115014674Y-120194778D01*
X115010797Y-120168641D01*
X115009500Y-120142250D01*
X115009500Y-119603750D01*
X115010797Y-119577359D01*
X115014674Y-119551222D01*
X115021094Y-119525591D01*
X115029995Y-119500712D01*
X115041293Y-119476826D01*
X115054877Y-119454163D01*
X115070617Y-119432940D01*
X115088361Y-119413361D01*
X115107940Y-119395617D01*
X115129163Y-119379877D01*
X115151826Y-119366293D01*
X115175712Y-119354995D01*
X115200591Y-119346094D01*
X115226222Y-119339674D01*
X115252359Y-119335797D01*
X115278750Y-119334500D01*
X116242250Y-119334500D01*
X116268641Y-119335797D01*
X116268641Y-119335797D01*
G37*
D22*
X115760500Y-119873000D03*
D21*
G36*
X106743641Y-119335797D02*
G01*
X106769778Y-119339674D01*
X106795409Y-119346094D01*
X106820288Y-119354995D01*
X106844174Y-119366293D01*
X106866837Y-119379877D01*
X106888060Y-119395617D01*
X106907639Y-119413361D01*
X106925383Y-119432940D01*
X106941123Y-119454163D01*
X106954707Y-119476826D01*
X106966005Y-119500712D01*
X106974906Y-119525591D01*
X106981326Y-119551222D01*
X106985203Y-119577359D01*
X106986500Y-119603750D01*
X106986500Y-120142250D01*
X106985203Y-120168641D01*
X106981326Y-120194778D01*
X106974906Y-120220409D01*
X106966005Y-120245288D01*
X106954707Y-120269174D01*
X106941123Y-120291837D01*
X106925383Y-120313060D01*
X106907639Y-120332639D01*
X106888060Y-120350383D01*
X106866837Y-120366123D01*
X106844174Y-120379707D01*
X106820288Y-120391005D01*
X106795409Y-120399906D01*
X106769778Y-120406326D01*
X106743641Y-120410203D01*
X106717250Y-120411500D01*
X105753750Y-120411500D01*
X105727359Y-120410203D01*
X105701222Y-120406326D01*
X105675591Y-120399906D01*
X105650712Y-120391005D01*
X105626826Y-120379707D01*
X105604163Y-120366123D01*
X105582940Y-120350383D01*
X105563361Y-120332639D01*
X105545617Y-120313060D01*
X105529877Y-120291837D01*
X105516293Y-120269174D01*
X105504995Y-120245288D01*
X105496094Y-120220409D01*
X105489674Y-120194778D01*
X105485797Y-120168641D01*
X105484500Y-120142250D01*
X105484500Y-119603750D01*
X105485797Y-119577359D01*
X105489674Y-119551222D01*
X105496094Y-119525591D01*
X105504995Y-119500712D01*
X105516293Y-119476826D01*
X105529877Y-119454163D01*
X105545617Y-119432940D01*
X105563361Y-119413361D01*
X105582940Y-119395617D01*
X105604163Y-119379877D01*
X105626826Y-119366293D01*
X105650712Y-119354995D01*
X105675591Y-119346094D01*
X105701222Y-119339674D01*
X105727359Y-119335797D01*
X105753750Y-119334500D01*
X106717250Y-119334500D01*
X106743641Y-119335797D01*
X106743641Y-119335797D01*
G37*
D22*
X106235500Y-119873000D03*
D21*
G36*
X106743641Y-117460797D02*
G01*
X106769778Y-117464674D01*
X106795409Y-117471094D01*
X106820288Y-117479995D01*
X106844174Y-117491293D01*
X106866837Y-117504877D01*
X106888060Y-117520617D01*
X106907639Y-117538361D01*
X106925383Y-117557940D01*
X106941123Y-117579163D01*
X106954707Y-117601826D01*
X106966005Y-117625712D01*
X106974906Y-117650591D01*
X106981326Y-117676222D01*
X106985203Y-117702359D01*
X106986500Y-117728750D01*
X106986500Y-118267250D01*
X106985203Y-118293641D01*
X106981326Y-118319778D01*
X106974906Y-118345409D01*
X106966005Y-118370288D01*
X106954707Y-118394174D01*
X106941123Y-118416837D01*
X106925383Y-118438060D01*
X106907639Y-118457639D01*
X106888060Y-118475383D01*
X106866837Y-118491123D01*
X106844174Y-118504707D01*
X106820288Y-118516005D01*
X106795409Y-118524906D01*
X106769778Y-118531326D01*
X106743641Y-118535203D01*
X106717250Y-118536500D01*
X105753750Y-118536500D01*
X105727359Y-118535203D01*
X105701222Y-118531326D01*
X105675591Y-118524906D01*
X105650712Y-118516005D01*
X105626826Y-118504707D01*
X105604163Y-118491123D01*
X105582940Y-118475383D01*
X105563361Y-118457639D01*
X105545617Y-118438060D01*
X105529877Y-118416837D01*
X105516293Y-118394174D01*
X105504995Y-118370288D01*
X105496094Y-118345409D01*
X105489674Y-118319778D01*
X105485797Y-118293641D01*
X105484500Y-118267250D01*
X105484500Y-117728750D01*
X105485797Y-117702359D01*
X105489674Y-117676222D01*
X105496094Y-117650591D01*
X105504995Y-117625712D01*
X105516293Y-117601826D01*
X105529877Y-117579163D01*
X105545617Y-117557940D01*
X105563361Y-117538361D01*
X105582940Y-117520617D01*
X105604163Y-117504877D01*
X105626826Y-117491293D01*
X105650712Y-117479995D01*
X105675591Y-117471094D01*
X105701222Y-117464674D01*
X105727359Y-117460797D01*
X105753750Y-117459500D01*
X106717250Y-117459500D01*
X106743641Y-117460797D01*
X106743641Y-117460797D01*
G37*
D22*
X106235500Y-117998000D03*
D21*
G36*
X117189391Y-143275297D02*
G01*
X117215528Y-143279174D01*
X117241159Y-143285594D01*
X117266038Y-143294495D01*
X117289924Y-143305793D01*
X117312587Y-143319377D01*
X117333810Y-143335117D01*
X117353389Y-143352861D01*
X117371133Y-143372440D01*
X117386873Y-143393663D01*
X117400457Y-143416326D01*
X117411755Y-143440212D01*
X117420656Y-143465091D01*
X117427076Y-143490722D01*
X117430953Y-143516859D01*
X117432250Y-143543250D01*
X117432250Y-144081750D01*
X117430953Y-144108141D01*
X117427076Y-144134278D01*
X117420656Y-144159909D01*
X117411755Y-144184788D01*
X117400457Y-144208674D01*
X117386873Y-144231337D01*
X117371133Y-144252560D01*
X117353389Y-144272139D01*
X117333810Y-144289883D01*
X117312587Y-144305623D01*
X117289924Y-144319207D01*
X117266038Y-144330505D01*
X117241159Y-144339406D01*
X117215528Y-144345826D01*
X117189391Y-144349703D01*
X117163000Y-144351000D01*
X116199500Y-144351000D01*
X116173109Y-144349703D01*
X116146972Y-144345826D01*
X116121341Y-144339406D01*
X116096462Y-144330505D01*
X116072576Y-144319207D01*
X116049913Y-144305623D01*
X116028690Y-144289883D01*
X116009111Y-144272139D01*
X115991367Y-144252560D01*
X115975627Y-144231337D01*
X115962043Y-144208674D01*
X115950745Y-144184788D01*
X115941844Y-144159909D01*
X115935424Y-144134278D01*
X115931547Y-144108141D01*
X115930250Y-144081750D01*
X115930250Y-143543250D01*
X115931547Y-143516859D01*
X115935424Y-143490722D01*
X115941844Y-143465091D01*
X115950745Y-143440212D01*
X115962043Y-143416326D01*
X115975627Y-143393663D01*
X115991367Y-143372440D01*
X116009111Y-143352861D01*
X116028690Y-143335117D01*
X116049913Y-143319377D01*
X116072576Y-143305793D01*
X116096462Y-143294495D01*
X116121341Y-143285594D01*
X116146972Y-143279174D01*
X116173109Y-143275297D01*
X116199500Y-143274000D01*
X117163000Y-143274000D01*
X117189391Y-143275297D01*
X117189391Y-143275297D01*
G37*
D22*
X116681250Y-143812500D03*
D21*
G36*
X117189391Y-141400297D02*
G01*
X117215528Y-141404174D01*
X117241159Y-141410594D01*
X117266038Y-141419495D01*
X117289924Y-141430793D01*
X117312587Y-141444377D01*
X117333810Y-141460117D01*
X117353389Y-141477861D01*
X117371133Y-141497440D01*
X117386873Y-141518663D01*
X117400457Y-141541326D01*
X117411755Y-141565212D01*
X117420656Y-141590091D01*
X117427076Y-141615722D01*
X117430953Y-141641859D01*
X117432250Y-141668250D01*
X117432250Y-142206750D01*
X117430953Y-142233141D01*
X117427076Y-142259278D01*
X117420656Y-142284909D01*
X117411755Y-142309788D01*
X117400457Y-142333674D01*
X117386873Y-142356337D01*
X117371133Y-142377560D01*
X117353389Y-142397139D01*
X117333810Y-142414883D01*
X117312587Y-142430623D01*
X117289924Y-142444207D01*
X117266038Y-142455505D01*
X117241159Y-142464406D01*
X117215528Y-142470826D01*
X117189391Y-142474703D01*
X117163000Y-142476000D01*
X116199500Y-142476000D01*
X116173109Y-142474703D01*
X116146972Y-142470826D01*
X116121341Y-142464406D01*
X116096462Y-142455505D01*
X116072576Y-142444207D01*
X116049913Y-142430623D01*
X116028690Y-142414883D01*
X116009111Y-142397139D01*
X115991367Y-142377560D01*
X115975627Y-142356337D01*
X115962043Y-142333674D01*
X115950745Y-142309788D01*
X115941844Y-142284909D01*
X115935424Y-142259278D01*
X115931547Y-142233141D01*
X115930250Y-142206750D01*
X115930250Y-141668250D01*
X115931547Y-141641859D01*
X115935424Y-141615722D01*
X115941844Y-141590091D01*
X115950745Y-141565212D01*
X115962043Y-141541326D01*
X115975627Y-141518663D01*
X115991367Y-141497440D01*
X116009111Y-141477861D01*
X116028690Y-141460117D01*
X116049913Y-141444377D01*
X116072576Y-141430793D01*
X116096462Y-141419495D01*
X116121341Y-141410594D01*
X116146972Y-141404174D01*
X116173109Y-141400297D01*
X116199500Y-141399000D01*
X117163000Y-141399000D01*
X117189391Y-141400297D01*
X117189391Y-141400297D01*
G37*
D22*
X116681250Y-141937500D03*
D21*
G36*
X119189641Y-122636047D02*
G01*
X119215778Y-122639924D01*
X119241409Y-122646344D01*
X119266288Y-122655245D01*
X119290174Y-122666543D01*
X119312837Y-122680127D01*
X119334060Y-122695867D01*
X119353639Y-122713611D01*
X119371383Y-122733190D01*
X119387123Y-122754413D01*
X119400707Y-122777076D01*
X119412005Y-122800962D01*
X119420906Y-122825841D01*
X119427326Y-122851472D01*
X119431203Y-122877609D01*
X119432500Y-122904000D01*
X119432500Y-123442500D01*
X119431203Y-123468891D01*
X119427326Y-123495028D01*
X119420906Y-123520659D01*
X119412005Y-123545538D01*
X119400707Y-123569424D01*
X119387123Y-123592087D01*
X119371383Y-123613310D01*
X119353639Y-123632889D01*
X119334060Y-123650633D01*
X119312837Y-123666373D01*
X119290174Y-123679957D01*
X119266288Y-123691255D01*
X119241409Y-123700156D01*
X119215778Y-123706576D01*
X119189641Y-123710453D01*
X119163250Y-123711750D01*
X118199750Y-123711750D01*
X118173359Y-123710453D01*
X118147222Y-123706576D01*
X118121591Y-123700156D01*
X118096712Y-123691255D01*
X118072826Y-123679957D01*
X118050163Y-123666373D01*
X118028940Y-123650633D01*
X118009361Y-123632889D01*
X117991617Y-123613310D01*
X117975877Y-123592087D01*
X117962293Y-123569424D01*
X117950995Y-123545538D01*
X117942094Y-123520659D01*
X117935674Y-123495028D01*
X117931797Y-123468891D01*
X117930500Y-123442500D01*
X117930500Y-122904000D01*
X117931797Y-122877609D01*
X117935674Y-122851472D01*
X117942094Y-122825841D01*
X117950995Y-122800962D01*
X117962293Y-122777076D01*
X117975877Y-122754413D01*
X117991617Y-122733190D01*
X118009361Y-122713611D01*
X118028940Y-122695867D01*
X118050163Y-122680127D01*
X118072826Y-122666543D01*
X118096712Y-122655245D01*
X118121591Y-122646344D01*
X118147222Y-122639924D01*
X118173359Y-122636047D01*
X118199750Y-122634750D01*
X119163250Y-122634750D01*
X119189641Y-122636047D01*
X119189641Y-122636047D01*
G37*
D22*
X118681500Y-123173250D03*
D21*
G36*
X119189641Y-124511047D02*
G01*
X119215778Y-124514924D01*
X119241409Y-124521344D01*
X119266288Y-124530245D01*
X119290174Y-124541543D01*
X119312837Y-124555127D01*
X119334060Y-124570867D01*
X119353639Y-124588611D01*
X119371383Y-124608190D01*
X119387123Y-124629413D01*
X119400707Y-124652076D01*
X119412005Y-124675962D01*
X119420906Y-124700841D01*
X119427326Y-124726472D01*
X119431203Y-124752609D01*
X119432500Y-124779000D01*
X119432500Y-125317500D01*
X119431203Y-125343891D01*
X119427326Y-125370028D01*
X119420906Y-125395659D01*
X119412005Y-125420538D01*
X119400707Y-125444424D01*
X119387123Y-125467087D01*
X119371383Y-125488310D01*
X119353639Y-125507889D01*
X119334060Y-125525633D01*
X119312837Y-125541373D01*
X119290174Y-125554957D01*
X119266288Y-125566255D01*
X119241409Y-125575156D01*
X119215778Y-125581576D01*
X119189641Y-125585453D01*
X119163250Y-125586750D01*
X118199750Y-125586750D01*
X118173359Y-125585453D01*
X118147222Y-125581576D01*
X118121591Y-125575156D01*
X118096712Y-125566255D01*
X118072826Y-125554957D01*
X118050163Y-125541373D01*
X118028940Y-125525633D01*
X118009361Y-125507889D01*
X117991617Y-125488310D01*
X117975877Y-125467087D01*
X117962293Y-125444424D01*
X117950995Y-125420538D01*
X117942094Y-125395659D01*
X117935674Y-125370028D01*
X117931797Y-125343891D01*
X117930500Y-125317500D01*
X117930500Y-124779000D01*
X117931797Y-124752609D01*
X117935674Y-124726472D01*
X117942094Y-124700841D01*
X117950995Y-124675962D01*
X117962293Y-124652076D01*
X117975877Y-124629413D01*
X117991617Y-124608190D01*
X118009361Y-124588611D01*
X118028940Y-124570867D01*
X118050163Y-124555127D01*
X118072826Y-124541543D01*
X118096712Y-124530245D01*
X118121591Y-124521344D01*
X118147222Y-124514924D01*
X118173359Y-124511047D01*
X118199750Y-124509750D01*
X119163250Y-124509750D01*
X119189641Y-124511047D01*
X119189641Y-124511047D01*
G37*
D22*
X118681500Y-125048250D03*
D21*
G36*
X108389391Y-142125297D02*
G01*
X108415528Y-142129174D01*
X108441159Y-142135594D01*
X108466038Y-142144495D01*
X108489924Y-142155793D01*
X108512587Y-142169377D01*
X108533810Y-142185117D01*
X108553389Y-142202861D01*
X108571133Y-142222440D01*
X108586873Y-142243663D01*
X108600457Y-142266326D01*
X108611755Y-142290212D01*
X108620656Y-142315091D01*
X108627076Y-142340722D01*
X108630953Y-142366859D01*
X108632250Y-142393250D01*
X108632250Y-143356750D01*
X108630953Y-143383141D01*
X108627076Y-143409278D01*
X108620656Y-143434909D01*
X108611755Y-143459788D01*
X108600457Y-143483674D01*
X108586873Y-143506337D01*
X108571133Y-143527560D01*
X108553389Y-143547139D01*
X108533810Y-143564883D01*
X108512587Y-143580623D01*
X108489924Y-143594207D01*
X108466038Y-143605505D01*
X108441159Y-143614406D01*
X108415528Y-143620826D01*
X108389391Y-143624703D01*
X108363000Y-143626000D01*
X107824500Y-143626000D01*
X107798109Y-143624703D01*
X107771972Y-143620826D01*
X107746341Y-143614406D01*
X107721462Y-143605505D01*
X107697576Y-143594207D01*
X107674913Y-143580623D01*
X107653690Y-143564883D01*
X107634111Y-143547139D01*
X107616367Y-143527560D01*
X107600627Y-143506337D01*
X107587043Y-143483674D01*
X107575745Y-143459788D01*
X107566844Y-143434909D01*
X107560424Y-143409278D01*
X107556547Y-143383141D01*
X107555250Y-143356750D01*
X107555250Y-142393250D01*
X107556547Y-142366859D01*
X107560424Y-142340722D01*
X107566844Y-142315091D01*
X107575745Y-142290212D01*
X107587043Y-142266326D01*
X107600627Y-142243663D01*
X107616367Y-142222440D01*
X107634111Y-142202861D01*
X107653690Y-142185117D01*
X107674913Y-142169377D01*
X107697576Y-142155793D01*
X107721462Y-142144495D01*
X107746341Y-142135594D01*
X107771972Y-142129174D01*
X107798109Y-142125297D01*
X107824500Y-142124000D01*
X108363000Y-142124000D01*
X108389391Y-142125297D01*
X108389391Y-142125297D01*
G37*
D22*
X108093750Y-142875000D03*
D21*
G36*
X106514391Y-142125297D02*
G01*
X106540528Y-142129174D01*
X106566159Y-142135594D01*
X106591038Y-142144495D01*
X106614924Y-142155793D01*
X106637587Y-142169377D01*
X106658810Y-142185117D01*
X106678389Y-142202861D01*
X106696133Y-142222440D01*
X106711873Y-142243663D01*
X106725457Y-142266326D01*
X106736755Y-142290212D01*
X106745656Y-142315091D01*
X106752076Y-142340722D01*
X106755953Y-142366859D01*
X106757250Y-142393250D01*
X106757250Y-143356750D01*
X106755953Y-143383141D01*
X106752076Y-143409278D01*
X106745656Y-143434909D01*
X106736755Y-143459788D01*
X106725457Y-143483674D01*
X106711873Y-143506337D01*
X106696133Y-143527560D01*
X106678389Y-143547139D01*
X106658810Y-143564883D01*
X106637587Y-143580623D01*
X106614924Y-143594207D01*
X106591038Y-143605505D01*
X106566159Y-143614406D01*
X106540528Y-143620826D01*
X106514391Y-143624703D01*
X106488000Y-143626000D01*
X105949500Y-143626000D01*
X105923109Y-143624703D01*
X105896972Y-143620826D01*
X105871341Y-143614406D01*
X105846462Y-143605505D01*
X105822576Y-143594207D01*
X105799913Y-143580623D01*
X105778690Y-143564883D01*
X105759111Y-143547139D01*
X105741367Y-143527560D01*
X105725627Y-143506337D01*
X105712043Y-143483674D01*
X105700745Y-143459788D01*
X105691844Y-143434909D01*
X105685424Y-143409278D01*
X105681547Y-143383141D01*
X105680250Y-143356750D01*
X105680250Y-142393250D01*
X105681547Y-142366859D01*
X105685424Y-142340722D01*
X105691844Y-142315091D01*
X105700745Y-142290212D01*
X105712043Y-142266326D01*
X105725627Y-142243663D01*
X105741367Y-142222440D01*
X105759111Y-142202861D01*
X105778690Y-142185117D01*
X105799913Y-142169377D01*
X105822576Y-142155793D01*
X105846462Y-142144495D01*
X105871341Y-142135594D01*
X105896972Y-142129174D01*
X105923109Y-142125297D01*
X105949500Y-142124000D01*
X106488000Y-142124000D01*
X106514391Y-142125297D01*
X106514391Y-142125297D01*
G37*
D22*
X106218750Y-142875000D03*
D21*
G36*
X102108141Y-127906547D02*
G01*
X102134278Y-127910424D01*
X102159909Y-127916844D01*
X102184788Y-127925745D01*
X102208674Y-127937043D01*
X102231337Y-127950627D01*
X102252560Y-127966367D01*
X102272139Y-127984111D01*
X102289883Y-128003690D01*
X102305623Y-128024913D01*
X102319207Y-128047576D01*
X102330505Y-128071462D01*
X102339406Y-128096341D01*
X102345826Y-128121972D01*
X102349703Y-128148109D01*
X102351000Y-128174500D01*
X102351000Y-128713000D01*
X102349703Y-128739391D01*
X102345826Y-128765528D01*
X102339406Y-128791159D01*
X102330505Y-128816038D01*
X102319207Y-128839924D01*
X102305623Y-128862587D01*
X102289883Y-128883810D01*
X102272139Y-128903389D01*
X102252560Y-128921133D01*
X102231337Y-128936873D01*
X102208674Y-128950457D01*
X102184788Y-128961755D01*
X102159909Y-128970656D01*
X102134278Y-128977076D01*
X102108141Y-128980953D01*
X102081750Y-128982250D01*
X101118250Y-128982250D01*
X101091859Y-128980953D01*
X101065722Y-128977076D01*
X101040091Y-128970656D01*
X101015212Y-128961755D01*
X100991326Y-128950457D01*
X100968663Y-128936873D01*
X100947440Y-128921133D01*
X100927861Y-128903389D01*
X100910117Y-128883810D01*
X100894377Y-128862587D01*
X100880793Y-128839924D01*
X100869495Y-128816038D01*
X100860594Y-128791159D01*
X100854174Y-128765528D01*
X100850297Y-128739391D01*
X100849000Y-128713000D01*
X100849000Y-128174500D01*
X100850297Y-128148109D01*
X100854174Y-128121972D01*
X100860594Y-128096341D01*
X100869495Y-128071462D01*
X100880793Y-128047576D01*
X100894377Y-128024913D01*
X100910117Y-128003690D01*
X100927861Y-127984111D01*
X100947440Y-127966367D01*
X100968663Y-127950627D01*
X100991326Y-127937043D01*
X101015212Y-127925745D01*
X101040091Y-127916844D01*
X101065722Y-127910424D01*
X101091859Y-127906547D01*
X101118250Y-127905250D01*
X102081750Y-127905250D01*
X102108141Y-127906547D01*
X102108141Y-127906547D01*
G37*
D22*
X101600000Y-128443750D03*
D21*
G36*
X102108141Y-129781547D02*
G01*
X102134278Y-129785424D01*
X102159909Y-129791844D01*
X102184788Y-129800745D01*
X102208674Y-129812043D01*
X102231337Y-129825627D01*
X102252560Y-129841367D01*
X102272139Y-129859111D01*
X102289883Y-129878690D01*
X102305623Y-129899913D01*
X102319207Y-129922576D01*
X102330505Y-129946462D01*
X102339406Y-129971341D01*
X102345826Y-129996972D01*
X102349703Y-130023109D01*
X102351000Y-130049500D01*
X102351000Y-130588000D01*
X102349703Y-130614391D01*
X102345826Y-130640528D01*
X102339406Y-130666159D01*
X102330505Y-130691038D01*
X102319207Y-130714924D01*
X102305623Y-130737587D01*
X102289883Y-130758810D01*
X102272139Y-130778389D01*
X102252560Y-130796133D01*
X102231337Y-130811873D01*
X102208674Y-130825457D01*
X102184788Y-130836755D01*
X102159909Y-130845656D01*
X102134278Y-130852076D01*
X102108141Y-130855953D01*
X102081750Y-130857250D01*
X101118250Y-130857250D01*
X101091859Y-130855953D01*
X101065722Y-130852076D01*
X101040091Y-130845656D01*
X101015212Y-130836755D01*
X100991326Y-130825457D01*
X100968663Y-130811873D01*
X100947440Y-130796133D01*
X100927861Y-130778389D01*
X100910117Y-130758810D01*
X100894377Y-130737587D01*
X100880793Y-130714924D01*
X100869495Y-130691038D01*
X100860594Y-130666159D01*
X100854174Y-130640528D01*
X100850297Y-130614391D01*
X100849000Y-130588000D01*
X100849000Y-130049500D01*
X100850297Y-130023109D01*
X100854174Y-129996972D01*
X100860594Y-129971341D01*
X100869495Y-129946462D01*
X100880793Y-129922576D01*
X100894377Y-129899913D01*
X100910117Y-129878690D01*
X100927861Y-129859111D01*
X100947440Y-129841367D01*
X100968663Y-129825627D01*
X100991326Y-129812043D01*
X101015212Y-129800745D01*
X101040091Y-129791844D01*
X101065722Y-129785424D01*
X101091859Y-129781547D01*
X101118250Y-129780250D01*
X102081750Y-129780250D01*
X102108141Y-129781547D01*
X102108141Y-129781547D01*
G37*
D22*
X101600000Y-130318750D03*
M02*
