M48
; DRILL file {KiCad (5.1.4)-1} date 5/24/2022 6:10:36 PM
; FORMAT={-:-/ absolute / inch / decimal}
; #@! TF.CreationDate,2022-05-24T18:10:36-07:00
; #@! TF.GenerationSoftware,Kicad,Pcbnew,(5.1.4)-1
; #@! TF.FileFunction,Plated,1,2,PTH
FMAT,2
INCH
T1C0.0157
T2C0.0276
T3C0.0409
T4C0.0579
%
G90
G05
T1
X3.93Y-5.13
X4.09Y-5.63
X4.685Y-5.145
X4.69Y-5.345
X4.73Y-4.88
X4.8Y-4.99
X4.91Y-5.71
T3
X3.3566Y-5.7922
X3.4566Y-5.7922
X2.6062Y-5.7938
X2.7062Y-5.7938
X2.6062Y-5.0438
X2.7062Y-5.0438
X3.3562Y-5.0438
X3.4562Y-5.0438
T4
X3.2566Y-5.4922
X3.3081Y-5.4347
X3.505Y-5.415
X3.5066Y-5.3922
X2.5063Y-5.4937
X2.5578Y-5.4363
X2.7547Y-5.4166
X2.7563Y-5.3937
X2.5063Y-4.7437
X2.5578Y-4.6863
X2.7547Y-4.6666
X2.7563Y-4.6437
X3.2563Y-4.7437
X3.3078Y-4.6863
X3.5047Y-4.6666
X3.5063Y-4.6437
T2
G00X5.0125Y-4.5076
M15
G01X5.0125Y-4.5549
M16
G05
G00X5.0125Y-4.6848
M15
G01X5.0125Y-4.732
M16
G05
G00X5.3Y-4.5076
M15
G01X5.3Y-4.5549
M16
G05
G00X5.3Y-4.6848
M15
G01X5.3Y-4.732
M16
G05
T0
M30
