G04 #@! TF.GenerationSoftware,KiCad,Pcbnew,(5.1.4)-1*
G04 #@! TF.CreationDate,2022-05-24T18:09:22-07:00*
G04 #@! TF.ProjectId,pcb-keyb-tut,7063622d-6b65-4796-922d-7475742e6b69,rev?*
G04 #@! TF.SameCoordinates,Original*
G04 #@! TF.FileFunction,Copper,L1,Top*
G04 #@! TF.FilePolarity,Positive*
%FSLAX46Y46*%
G04 Gerber Fmt 4.6, Leading zero omitted, Abs format (unit mm)*
G04 Created by KiCad (PCBNEW (5.1.4)-1) date 2022-05-24 18:09:22*
%MOMM*%
%LPD*%
G04 APERTURE LIST*
%ADD10R,1.400000X1.200000*%
%ADD11C,2.250000*%
%ADD12C,2.250000*%
%ADD13C,1.905000*%
%ADD14R,1.905000X1.905000*%
%ADD15R,1.200000X0.900000*%
%ADD16R,0.500000X2.250000*%
%ADD17O,1.700000X2.700000*%
%ADD18R,1.500000X0.550000*%
%ADD19R,0.550000X1.500000*%
%ADD20R,1.800000X1.100000*%
%ADD21C,0.100000*%
%ADD22C,0.975000*%
%ADD23C,1.250000*%
%ADD24C,0.800000*%
%ADD25C,0.381000*%
%ADD26C,0.254000*%
G04 APERTURE END LIST*
D10*
X109898000Y-119785500D03*
X112098000Y-119785500D03*
X112098000Y-118085500D03*
X109898000Y-118085500D03*
D11*
X89047000Y-137251000D03*
D12*
X89027000Y-137541000D02*
X89067000Y-136961000D01*
D11*
X89067000Y-136961000D03*
X83372001Y-138771000D03*
D12*
X82717000Y-139501000D02*
X84027002Y-138041000D01*
D11*
X84027000Y-138041000D03*
D13*
X85257000Y-147121000D03*
D14*
X87797000Y-147121000D03*
D11*
X89038750Y-118241250D03*
D12*
X89018750Y-118531250D02*
X89058750Y-117951250D01*
D11*
X89058750Y-117951250D03*
X83363751Y-119761250D03*
D12*
X82708750Y-120491250D02*
X84018752Y-119031250D01*
D11*
X84018750Y-119031250D03*
D13*
X85248750Y-128111250D03*
D14*
X87788750Y-128111250D03*
D11*
X69988750Y-137291250D03*
D12*
X69968750Y-137581250D02*
X70008750Y-137001250D01*
D11*
X70008750Y-137001250D03*
X64313751Y-138811250D03*
D12*
X63658750Y-139541250D02*
X64968752Y-138081250D01*
D11*
X64968750Y-138081250D03*
D13*
X66198750Y-147161250D03*
D14*
X68738750Y-147161250D03*
D11*
X69988750Y-118241250D03*
D12*
X69968750Y-118531250D02*
X70008750Y-117951250D01*
D11*
X70008750Y-117951250D03*
X64313751Y-119761250D03*
D12*
X63658750Y-120491250D02*
X64968752Y-119031250D01*
D11*
X64968750Y-119031250D03*
D13*
X66198750Y-128111250D03*
D14*
X68738750Y-128111250D03*
D15*
X94456250Y-140431250D03*
X94456250Y-143731250D03*
X94456250Y-121381250D03*
X94456250Y-124681250D03*
X75406250Y-140431250D03*
X75406250Y-143731250D03*
X75406250Y-121381250D03*
X75406250Y-124681250D03*
D16*
X129368750Y-119593750D03*
X130168750Y-119593750D03*
X130968750Y-119593750D03*
X131768750Y-119593750D03*
X132568750Y-119593750D03*
D17*
X134618750Y-119593750D03*
X127318750Y-119593750D03*
X127318750Y-115093750D03*
X134618750Y-115093750D03*
D18*
X116825000Y-136556250D03*
X116825000Y-135756250D03*
X116825000Y-134956250D03*
X116825000Y-134156250D03*
X116825000Y-133356250D03*
X116825000Y-132556250D03*
X116825000Y-131756250D03*
X116825000Y-130956250D03*
X116825000Y-130156250D03*
X116825000Y-129356250D03*
X116825000Y-128556250D03*
D19*
X115125000Y-126856250D03*
X114325000Y-126856250D03*
X113525000Y-126856250D03*
X112725000Y-126856250D03*
X111925000Y-126856250D03*
X111125000Y-126856250D03*
X110325000Y-126856250D03*
X109525000Y-126856250D03*
X108725000Y-126856250D03*
X107925000Y-126856250D03*
X107125000Y-126856250D03*
D18*
X105425000Y-128556250D03*
X105425000Y-129356250D03*
X105425000Y-130156250D03*
X105425000Y-130956250D03*
X105425000Y-131756250D03*
X105425000Y-132556250D03*
X105425000Y-133356250D03*
X105425000Y-134156250D03*
X105425000Y-134956250D03*
X105425000Y-135756250D03*
X105425000Y-136556250D03*
D19*
X107125000Y-138256250D03*
X107925000Y-138256250D03*
X108725000Y-138256250D03*
X109525000Y-138256250D03*
X110325000Y-138256250D03*
X111125000Y-138256250D03*
X111925000Y-138256250D03*
X112725000Y-138256250D03*
X113525000Y-138256250D03*
X114325000Y-138256250D03*
X115125000Y-138256250D03*
D20*
X132481250Y-148693750D03*
X126281250Y-144993750D03*
X132481250Y-144993750D03*
X126281250Y-148693750D03*
D21*
G36*
X102080142Y-138276174D02*
G01*
X102103803Y-138279684D01*
X102127007Y-138285496D01*
X102149529Y-138293554D01*
X102171153Y-138303782D01*
X102191670Y-138316079D01*
X102210883Y-138330329D01*
X102228607Y-138346393D01*
X102244671Y-138364117D01*
X102258921Y-138383330D01*
X102271218Y-138403847D01*
X102281446Y-138425471D01*
X102289504Y-138447993D01*
X102295316Y-138471197D01*
X102298826Y-138494858D01*
X102300000Y-138518750D01*
X102300000Y-139006250D01*
X102298826Y-139030142D01*
X102295316Y-139053803D01*
X102289504Y-139077007D01*
X102281446Y-139099529D01*
X102271218Y-139121153D01*
X102258921Y-139141670D01*
X102244671Y-139160883D01*
X102228607Y-139178607D01*
X102210883Y-139194671D01*
X102191670Y-139208921D01*
X102171153Y-139221218D01*
X102149529Y-139231446D01*
X102127007Y-139239504D01*
X102103803Y-139245316D01*
X102080142Y-139248826D01*
X102056250Y-139250000D01*
X101143750Y-139250000D01*
X101119858Y-139248826D01*
X101096197Y-139245316D01*
X101072993Y-139239504D01*
X101050471Y-139231446D01*
X101028847Y-139221218D01*
X101008330Y-139208921D01*
X100989117Y-139194671D01*
X100971393Y-139178607D01*
X100955329Y-139160883D01*
X100941079Y-139141670D01*
X100928782Y-139121153D01*
X100918554Y-139099529D01*
X100910496Y-139077007D01*
X100904684Y-139053803D01*
X100901174Y-139030142D01*
X100900000Y-139006250D01*
X100900000Y-138518750D01*
X100901174Y-138494858D01*
X100904684Y-138471197D01*
X100910496Y-138447993D01*
X100918554Y-138425471D01*
X100928782Y-138403847D01*
X100941079Y-138383330D01*
X100955329Y-138364117D01*
X100971393Y-138346393D01*
X100989117Y-138330329D01*
X101008330Y-138316079D01*
X101028847Y-138303782D01*
X101050471Y-138293554D01*
X101072993Y-138285496D01*
X101096197Y-138279684D01*
X101119858Y-138276174D01*
X101143750Y-138275000D01*
X102056250Y-138275000D01*
X102080142Y-138276174D01*
X102080142Y-138276174D01*
G37*
D22*
X101600000Y-138762500D03*
D21*
G36*
X102080142Y-140151174D02*
G01*
X102103803Y-140154684D01*
X102127007Y-140160496D01*
X102149529Y-140168554D01*
X102171153Y-140178782D01*
X102191670Y-140191079D01*
X102210883Y-140205329D01*
X102228607Y-140221393D01*
X102244671Y-140239117D01*
X102258921Y-140258330D01*
X102271218Y-140278847D01*
X102281446Y-140300471D01*
X102289504Y-140322993D01*
X102295316Y-140346197D01*
X102298826Y-140369858D01*
X102300000Y-140393750D01*
X102300000Y-140881250D01*
X102298826Y-140905142D01*
X102295316Y-140928803D01*
X102289504Y-140952007D01*
X102281446Y-140974529D01*
X102271218Y-140996153D01*
X102258921Y-141016670D01*
X102244671Y-141035883D01*
X102228607Y-141053607D01*
X102210883Y-141069671D01*
X102191670Y-141083921D01*
X102171153Y-141096218D01*
X102149529Y-141106446D01*
X102127007Y-141114504D01*
X102103803Y-141120316D01*
X102080142Y-141123826D01*
X102056250Y-141125000D01*
X101143750Y-141125000D01*
X101119858Y-141123826D01*
X101096197Y-141120316D01*
X101072993Y-141114504D01*
X101050471Y-141106446D01*
X101028847Y-141096218D01*
X101008330Y-141083921D01*
X100989117Y-141069671D01*
X100971393Y-141053607D01*
X100955329Y-141035883D01*
X100941079Y-141016670D01*
X100928782Y-140996153D01*
X100918554Y-140974529D01*
X100910496Y-140952007D01*
X100904684Y-140928803D01*
X100901174Y-140905142D01*
X100900000Y-140881250D01*
X100900000Y-140393750D01*
X100901174Y-140369858D01*
X100904684Y-140346197D01*
X100910496Y-140322993D01*
X100918554Y-140300471D01*
X100928782Y-140278847D01*
X100941079Y-140258330D01*
X100955329Y-140239117D01*
X100971393Y-140221393D01*
X100989117Y-140205329D01*
X101008330Y-140191079D01*
X101028847Y-140178782D01*
X101050471Y-140168554D01*
X101072993Y-140160496D01*
X101096197Y-140154684D01*
X101119858Y-140151174D01*
X101143750Y-140150000D01*
X102056250Y-140150000D01*
X102080142Y-140151174D01*
X102080142Y-140151174D01*
G37*
D22*
X101600000Y-140637500D03*
D21*
G36*
X122336642Y-124561924D02*
G01*
X122360303Y-124565434D01*
X122383507Y-124571246D01*
X122406029Y-124579304D01*
X122427653Y-124589532D01*
X122448170Y-124601829D01*
X122467383Y-124616079D01*
X122485107Y-124632143D01*
X122501171Y-124649867D01*
X122515421Y-124669080D01*
X122527718Y-124689597D01*
X122537946Y-124711221D01*
X122546004Y-124733743D01*
X122551816Y-124756947D01*
X122555326Y-124780608D01*
X122556500Y-124804500D01*
X122556500Y-125292000D01*
X122555326Y-125315892D01*
X122551816Y-125339553D01*
X122546004Y-125362757D01*
X122537946Y-125385279D01*
X122527718Y-125406903D01*
X122515421Y-125427420D01*
X122501171Y-125446633D01*
X122485107Y-125464357D01*
X122467383Y-125480421D01*
X122448170Y-125494671D01*
X122427653Y-125506968D01*
X122406029Y-125517196D01*
X122383507Y-125525254D01*
X122360303Y-125531066D01*
X122336642Y-125534576D01*
X122312750Y-125535750D01*
X121400250Y-125535750D01*
X121376358Y-125534576D01*
X121352697Y-125531066D01*
X121329493Y-125525254D01*
X121306971Y-125517196D01*
X121285347Y-125506968D01*
X121264830Y-125494671D01*
X121245617Y-125480421D01*
X121227893Y-125464357D01*
X121211829Y-125446633D01*
X121197579Y-125427420D01*
X121185282Y-125406903D01*
X121175054Y-125385279D01*
X121166996Y-125362757D01*
X121161184Y-125339553D01*
X121157674Y-125315892D01*
X121156500Y-125292000D01*
X121156500Y-124804500D01*
X121157674Y-124780608D01*
X121161184Y-124756947D01*
X121166996Y-124733743D01*
X121175054Y-124711221D01*
X121185282Y-124689597D01*
X121197579Y-124669080D01*
X121211829Y-124649867D01*
X121227893Y-124632143D01*
X121245617Y-124616079D01*
X121264830Y-124601829D01*
X121285347Y-124589532D01*
X121306971Y-124579304D01*
X121329493Y-124571246D01*
X121352697Y-124565434D01*
X121376358Y-124561924D01*
X121400250Y-124560750D01*
X122312750Y-124560750D01*
X122336642Y-124561924D01*
X122336642Y-124561924D01*
G37*
D22*
X121856500Y-125048250D03*
D21*
G36*
X122336642Y-122686924D02*
G01*
X122360303Y-122690434D01*
X122383507Y-122696246D01*
X122406029Y-122704304D01*
X122427653Y-122714532D01*
X122448170Y-122726829D01*
X122467383Y-122741079D01*
X122485107Y-122757143D01*
X122501171Y-122774867D01*
X122515421Y-122794080D01*
X122527718Y-122814597D01*
X122537946Y-122836221D01*
X122546004Y-122858743D01*
X122551816Y-122881947D01*
X122555326Y-122905608D01*
X122556500Y-122929500D01*
X122556500Y-123417000D01*
X122555326Y-123440892D01*
X122551816Y-123464553D01*
X122546004Y-123487757D01*
X122537946Y-123510279D01*
X122527718Y-123531903D01*
X122515421Y-123552420D01*
X122501171Y-123571633D01*
X122485107Y-123589357D01*
X122467383Y-123605421D01*
X122448170Y-123619671D01*
X122427653Y-123631968D01*
X122406029Y-123642196D01*
X122383507Y-123650254D01*
X122360303Y-123656066D01*
X122336642Y-123659576D01*
X122312750Y-123660750D01*
X121400250Y-123660750D01*
X121376358Y-123659576D01*
X121352697Y-123656066D01*
X121329493Y-123650254D01*
X121306971Y-123642196D01*
X121285347Y-123631968D01*
X121264830Y-123619671D01*
X121245617Y-123605421D01*
X121227893Y-123589357D01*
X121211829Y-123571633D01*
X121197579Y-123552420D01*
X121185282Y-123531903D01*
X121175054Y-123510279D01*
X121166996Y-123487757D01*
X121161184Y-123464553D01*
X121157674Y-123440892D01*
X121156500Y-123417000D01*
X121156500Y-122929500D01*
X121157674Y-122905608D01*
X121161184Y-122881947D01*
X121166996Y-122858743D01*
X121175054Y-122836221D01*
X121185282Y-122814597D01*
X121197579Y-122794080D01*
X121211829Y-122774867D01*
X121227893Y-122757143D01*
X121245617Y-122741079D01*
X121264830Y-122726829D01*
X121285347Y-122714532D01*
X121306971Y-122704304D01*
X121329493Y-122696246D01*
X121352697Y-122690434D01*
X121376358Y-122686924D01*
X121400250Y-122685750D01*
X122312750Y-122685750D01*
X122336642Y-122686924D01*
X122336642Y-122686924D01*
G37*
D22*
X121856500Y-123173250D03*
D21*
G36*
X130305892Y-124210924D02*
G01*
X130329553Y-124214434D01*
X130352757Y-124220246D01*
X130375279Y-124228304D01*
X130396903Y-124238532D01*
X130417420Y-124250829D01*
X130436633Y-124265079D01*
X130454357Y-124281143D01*
X130470421Y-124298867D01*
X130484671Y-124318080D01*
X130496968Y-124338597D01*
X130507196Y-124360221D01*
X130515254Y-124382743D01*
X130521066Y-124405947D01*
X130524576Y-124429608D01*
X130525750Y-124453500D01*
X130525750Y-124941000D01*
X130524576Y-124964892D01*
X130521066Y-124988553D01*
X130515254Y-125011757D01*
X130507196Y-125034279D01*
X130496968Y-125055903D01*
X130484671Y-125076420D01*
X130470421Y-125095633D01*
X130454357Y-125113357D01*
X130436633Y-125129421D01*
X130417420Y-125143671D01*
X130396903Y-125155968D01*
X130375279Y-125166196D01*
X130352757Y-125174254D01*
X130329553Y-125180066D01*
X130305892Y-125183576D01*
X130282000Y-125184750D01*
X129369500Y-125184750D01*
X129345608Y-125183576D01*
X129321947Y-125180066D01*
X129298743Y-125174254D01*
X129276221Y-125166196D01*
X129254597Y-125155968D01*
X129234080Y-125143671D01*
X129214867Y-125129421D01*
X129197143Y-125113357D01*
X129181079Y-125095633D01*
X129166829Y-125076420D01*
X129154532Y-125055903D01*
X129144304Y-125034279D01*
X129136246Y-125011757D01*
X129130434Y-124988553D01*
X129126924Y-124964892D01*
X129125750Y-124941000D01*
X129125750Y-124453500D01*
X129126924Y-124429608D01*
X129130434Y-124405947D01*
X129136246Y-124382743D01*
X129144304Y-124360221D01*
X129154532Y-124338597D01*
X129166829Y-124318080D01*
X129181079Y-124298867D01*
X129197143Y-124281143D01*
X129214867Y-124265079D01*
X129234080Y-124250829D01*
X129254597Y-124238532D01*
X129276221Y-124228304D01*
X129298743Y-124220246D01*
X129321947Y-124214434D01*
X129345608Y-124210924D01*
X129369500Y-124209750D01*
X130282000Y-124209750D01*
X130305892Y-124210924D01*
X130305892Y-124210924D01*
G37*
D22*
X129825750Y-124697250D03*
D21*
G36*
X130305892Y-126085924D02*
G01*
X130329553Y-126089434D01*
X130352757Y-126095246D01*
X130375279Y-126103304D01*
X130396903Y-126113532D01*
X130417420Y-126125829D01*
X130436633Y-126140079D01*
X130454357Y-126156143D01*
X130470421Y-126173867D01*
X130484671Y-126193080D01*
X130496968Y-126213597D01*
X130507196Y-126235221D01*
X130515254Y-126257743D01*
X130521066Y-126280947D01*
X130524576Y-126304608D01*
X130525750Y-126328500D01*
X130525750Y-126816000D01*
X130524576Y-126839892D01*
X130521066Y-126863553D01*
X130515254Y-126886757D01*
X130507196Y-126909279D01*
X130496968Y-126930903D01*
X130484671Y-126951420D01*
X130470421Y-126970633D01*
X130454357Y-126988357D01*
X130436633Y-127004421D01*
X130417420Y-127018671D01*
X130396903Y-127030968D01*
X130375279Y-127041196D01*
X130352757Y-127049254D01*
X130329553Y-127055066D01*
X130305892Y-127058576D01*
X130282000Y-127059750D01*
X129369500Y-127059750D01*
X129345608Y-127058576D01*
X129321947Y-127055066D01*
X129298743Y-127049254D01*
X129276221Y-127041196D01*
X129254597Y-127030968D01*
X129234080Y-127018671D01*
X129214867Y-127004421D01*
X129197143Y-126988357D01*
X129181079Y-126970633D01*
X129166829Y-126951420D01*
X129154532Y-126930903D01*
X129144304Y-126909279D01*
X129136246Y-126886757D01*
X129130434Y-126863553D01*
X129126924Y-126839892D01*
X129125750Y-126816000D01*
X129125750Y-126328500D01*
X129126924Y-126304608D01*
X129130434Y-126280947D01*
X129136246Y-126257743D01*
X129144304Y-126235221D01*
X129154532Y-126213597D01*
X129166829Y-126193080D01*
X129181079Y-126173867D01*
X129197143Y-126156143D01*
X129214867Y-126140079D01*
X129234080Y-126125829D01*
X129254597Y-126113532D01*
X129276221Y-126103304D01*
X129298743Y-126095246D01*
X129321947Y-126089434D01*
X129345608Y-126085924D01*
X129369500Y-126084750D01*
X130282000Y-126084750D01*
X130305892Y-126085924D01*
X130305892Y-126085924D01*
G37*
D22*
X129825750Y-126572250D03*
D21*
G36*
X133195142Y-124052174D02*
G01*
X133218803Y-124055684D01*
X133242007Y-124061496D01*
X133264529Y-124069554D01*
X133286153Y-124079782D01*
X133306670Y-124092079D01*
X133325883Y-124106329D01*
X133343607Y-124122393D01*
X133359671Y-124140117D01*
X133373921Y-124159330D01*
X133386218Y-124179847D01*
X133396446Y-124201471D01*
X133404504Y-124223993D01*
X133410316Y-124247197D01*
X133413826Y-124270858D01*
X133415000Y-124294750D01*
X133415000Y-124782250D01*
X133413826Y-124806142D01*
X133410316Y-124829803D01*
X133404504Y-124853007D01*
X133396446Y-124875529D01*
X133386218Y-124897153D01*
X133373921Y-124917670D01*
X133359671Y-124936883D01*
X133343607Y-124954607D01*
X133325883Y-124970671D01*
X133306670Y-124984921D01*
X133286153Y-124997218D01*
X133264529Y-125007446D01*
X133242007Y-125015504D01*
X133218803Y-125021316D01*
X133195142Y-125024826D01*
X133171250Y-125026000D01*
X132258750Y-125026000D01*
X132234858Y-125024826D01*
X132211197Y-125021316D01*
X132187993Y-125015504D01*
X132165471Y-125007446D01*
X132143847Y-124997218D01*
X132123330Y-124984921D01*
X132104117Y-124970671D01*
X132086393Y-124954607D01*
X132070329Y-124936883D01*
X132056079Y-124917670D01*
X132043782Y-124897153D01*
X132033554Y-124875529D01*
X132025496Y-124853007D01*
X132019684Y-124829803D01*
X132016174Y-124806142D01*
X132015000Y-124782250D01*
X132015000Y-124294750D01*
X132016174Y-124270858D01*
X132019684Y-124247197D01*
X132025496Y-124223993D01*
X132033554Y-124201471D01*
X132043782Y-124179847D01*
X132056079Y-124159330D01*
X132070329Y-124140117D01*
X132086393Y-124122393D01*
X132104117Y-124106329D01*
X132123330Y-124092079D01*
X132143847Y-124079782D01*
X132165471Y-124069554D01*
X132187993Y-124061496D01*
X132211197Y-124055684D01*
X132234858Y-124052174D01*
X132258750Y-124051000D01*
X133171250Y-124051000D01*
X133195142Y-124052174D01*
X133195142Y-124052174D01*
G37*
D22*
X132715000Y-124538500D03*
D21*
G36*
X133195142Y-125927174D02*
G01*
X133218803Y-125930684D01*
X133242007Y-125936496D01*
X133264529Y-125944554D01*
X133286153Y-125954782D01*
X133306670Y-125967079D01*
X133325883Y-125981329D01*
X133343607Y-125997393D01*
X133359671Y-126015117D01*
X133373921Y-126034330D01*
X133386218Y-126054847D01*
X133396446Y-126076471D01*
X133404504Y-126098993D01*
X133410316Y-126122197D01*
X133413826Y-126145858D01*
X133415000Y-126169750D01*
X133415000Y-126657250D01*
X133413826Y-126681142D01*
X133410316Y-126704803D01*
X133404504Y-126728007D01*
X133396446Y-126750529D01*
X133386218Y-126772153D01*
X133373921Y-126792670D01*
X133359671Y-126811883D01*
X133343607Y-126829607D01*
X133325883Y-126845671D01*
X133306670Y-126859921D01*
X133286153Y-126872218D01*
X133264529Y-126882446D01*
X133242007Y-126890504D01*
X133218803Y-126896316D01*
X133195142Y-126899826D01*
X133171250Y-126901000D01*
X132258750Y-126901000D01*
X132234858Y-126899826D01*
X132211197Y-126896316D01*
X132187993Y-126890504D01*
X132165471Y-126882446D01*
X132143847Y-126872218D01*
X132123330Y-126859921D01*
X132104117Y-126845671D01*
X132086393Y-126829607D01*
X132070329Y-126811883D01*
X132056079Y-126792670D01*
X132043782Y-126772153D01*
X132033554Y-126750529D01*
X132025496Y-126728007D01*
X132019684Y-126704803D01*
X132016174Y-126681142D01*
X132015000Y-126657250D01*
X132015000Y-126169750D01*
X132016174Y-126145858D01*
X132019684Y-126122197D01*
X132025496Y-126098993D01*
X132033554Y-126076471D01*
X132043782Y-126054847D01*
X132056079Y-126034330D01*
X132070329Y-126015117D01*
X132086393Y-125997393D01*
X132104117Y-125981329D01*
X132123330Y-125967079D01*
X132143847Y-125954782D01*
X132165471Y-125944554D01*
X132187993Y-125936496D01*
X132211197Y-125930684D01*
X132234858Y-125927174D01*
X132258750Y-125926000D01*
X133171250Y-125926000D01*
X133195142Y-125927174D01*
X133195142Y-125927174D01*
G37*
D22*
X132715000Y-126413500D03*
D21*
G36*
X135587004Y-130532454D02*
G01*
X135611273Y-130536054D01*
X135635071Y-130542015D01*
X135658171Y-130550280D01*
X135680349Y-130560770D01*
X135701393Y-130573383D01*
X135721098Y-130587997D01*
X135739277Y-130604473D01*
X135755753Y-130622652D01*
X135770367Y-130642357D01*
X135782980Y-130663401D01*
X135793470Y-130685579D01*
X135801735Y-130708679D01*
X135807696Y-130732477D01*
X135811296Y-130756746D01*
X135812500Y-130781250D01*
X135812500Y-131531250D01*
X135811296Y-131555754D01*
X135807696Y-131580023D01*
X135801735Y-131603821D01*
X135793470Y-131626921D01*
X135782980Y-131649099D01*
X135770367Y-131670143D01*
X135755753Y-131689848D01*
X135739277Y-131708027D01*
X135721098Y-131724503D01*
X135701393Y-131739117D01*
X135680349Y-131751730D01*
X135658171Y-131762220D01*
X135635071Y-131770485D01*
X135611273Y-131776446D01*
X135587004Y-131780046D01*
X135562500Y-131781250D01*
X134312500Y-131781250D01*
X134287996Y-131780046D01*
X134263727Y-131776446D01*
X134239929Y-131770485D01*
X134216829Y-131762220D01*
X134194651Y-131751730D01*
X134173607Y-131739117D01*
X134153902Y-131724503D01*
X134135723Y-131708027D01*
X134119247Y-131689848D01*
X134104633Y-131670143D01*
X134092020Y-131649099D01*
X134081530Y-131626921D01*
X134073265Y-131603821D01*
X134067304Y-131580023D01*
X134063704Y-131555754D01*
X134062500Y-131531250D01*
X134062500Y-130781250D01*
X134063704Y-130756746D01*
X134067304Y-130732477D01*
X134073265Y-130708679D01*
X134081530Y-130685579D01*
X134092020Y-130663401D01*
X134104633Y-130642357D01*
X134119247Y-130622652D01*
X134135723Y-130604473D01*
X134153902Y-130587997D01*
X134173607Y-130573383D01*
X134194651Y-130560770D01*
X134216829Y-130550280D01*
X134239929Y-130542015D01*
X134263727Y-130536054D01*
X134287996Y-130532454D01*
X134312500Y-130531250D01*
X135562500Y-130531250D01*
X135587004Y-130532454D01*
X135587004Y-130532454D01*
G37*
D23*
X134937500Y-131156250D03*
D21*
G36*
X135587004Y-133332454D02*
G01*
X135611273Y-133336054D01*
X135635071Y-133342015D01*
X135658171Y-133350280D01*
X135680349Y-133360770D01*
X135701393Y-133373383D01*
X135721098Y-133387997D01*
X135739277Y-133404473D01*
X135755753Y-133422652D01*
X135770367Y-133442357D01*
X135782980Y-133463401D01*
X135793470Y-133485579D01*
X135801735Y-133508679D01*
X135807696Y-133532477D01*
X135811296Y-133556746D01*
X135812500Y-133581250D01*
X135812500Y-134331250D01*
X135811296Y-134355754D01*
X135807696Y-134380023D01*
X135801735Y-134403821D01*
X135793470Y-134426921D01*
X135782980Y-134449099D01*
X135770367Y-134470143D01*
X135755753Y-134489848D01*
X135739277Y-134508027D01*
X135721098Y-134524503D01*
X135701393Y-134539117D01*
X135680349Y-134551730D01*
X135658171Y-134562220D01*
X135635071Y-134570485D01*
X135611273Y-134576446D01*
X135587004Y-134580046D01*
X135562500Y-134581250D01*
X134312500Y-134581250D01*
X134287996Y-134580046D01*
X134263727Y-134576446D01*
X134239929Y-134570485D01*
X134216829Y-134562220D01*
X134194651Y-134551730D01*
X134173607Y-134539117D01*
X134153902Y-134524503D01*
X134135723Y-134508027D01*
X134119247Y-134489848D01*
X134104633Y-134470143D01*
X134092020Y-134449099D01*
X134081530Y-134426921D01*
X134073265Y-134403821D01*
X134067304Y-134380023D01*
X134063704Y-134355754D01*
X134062500Y-134331250D01*
X134062500Y-133581250D01*
X134063704Y-133556746D01*
X134067304Y-133532477D01*
X134073265Y-133508679D01*
X134081530Y-133485579D01*
X134092020Y-133463401D01*
X134104633Y-133442357D01*
X134119247Y-133422652D01*
X134135723Y-133404473D01*
X134153902Y-133387997D01*
X134173607Y-133373383D01*
X134194651Y-133360770D01*
X134216829Y-133350280D01*
X134239929Y-133342015D01*
X134263727Y-133336054D01*
X134287996Y-133332454D01*
X134312500Y-133331250D01*
X135562500Y-133331250D01*
X135587004Y-133332454D01*
X135587004Y-133332454D01*
G37*
D23*
X134937500Y-133956250D03*
D21*
G36*
X121638142Y-131896174D02*
G01*
X121661803Y-131899684D01*
X121685007Y-131905496D01*
X121707529Y-131913554D01*
X121729153Y-131923782D01*
X121749670Y-131936079D01*
X121768883Y-131950329D01*
X121786607Y-131966393D01*
X121802671Y-131984117D01*
X121816921Y-132003330D01*
X121829218Y-132023847D01*
X121839446Y-132045471D01*
X121847504Y-132067993D01*
X121853316Y-132091197D01*
X121856826Y-132114858D01*
X121858000Y-132138750D01*
X121858000Y-132626250D01*
X121856826Y-132650142D01*
X121853316Y-132673803D01*
X121847504Y-132697007D01*
X121839446Y-132719529D01*
X121829218Y-132741153D01*
X121816921Y-132761670D01*
X121802671Y-132780883D01*
X121786607Y-132798607D01*
X121768883Y-132814671D01*
X121749670Y-132828921D01*
X121729153Y-132841218D01*
X121707529Y-132851446D01*
X121685007Y-132859504D01*
X121661803Y-132865316D01*
X121638142Y-132868826D01*
X121614250Y-132870000D01*
X120701750Y-132870000D01*
X120677858Y-132868826D01*
X120654197Y-132865316D01*
X120630993Y-132859504D01*
X120608471Y-132851446D01*
X120586847Y-132841218D01*
X120566330Y-132828921D01*
X120547117Y-132814671D01*
X120529393Y-132798607D01*
X120513329Y-132780883D01*
X120499079Y-132761670D01*
X120486782Y-132741153D01*
X120476554Y-132719529D01*
X120468496Y-132697007D01*
X120462684Y-132673803D01*
X120459174Y-132650142D01*
X120458000Y-132626250D01*
X120458000Y-132138750D01*
X120459174Y-132114858D01*
X120462684Y-132091197D01*
X120468496Y-132067993D01*
X120476554Y-132045471D01*
X120486782Y-132023847D01*
X120499079Y-132003330D01*
X120513329Y-131984117D01*
X120529393Y-131966393D01*
X120547117Y-131950329D01*
X120566330Y-131936079D01*
X120586847Y-131923782D01*
X120608471Y-131913554D01*
X120630993Y-131905496D01*
X120654197Y-131899684D01*
X120677858Y-131896174D01*
X120701750Y-131895000D01*
X121614250Y-131895000D01*
X121638142Y-131896174D01*
X121638142Y-131896174D01*
G37*
D22*
X121158000Y-132382500D03*
D21*
G36*
X121638142Y-130021174D02*
G01*
X121661803Y-130024684D01*
X121685007Y-130030496D01*
X121707529Y-130038554D01*
X121729153Y-130048782D01*
X121749670Y-130061079D01*
X121768883Y-130075329D01*
X121786607Y-130091393D01*
X121802671Y-130109117D01*
X121816921Y-130128330D01*
X121829218Y-130148847D01*
X121839446Y-130170471D01*
X121847504Y-130192993D01*
X121853316Y-130216197D01*
X121856826Y-130239858D01*
X121858000Y-130263750D01*
X121858000Y-130751250D01*
X121856826Y-130775142D01*
X121853316Y-130798803D01*
X121847504Y-130822007D01*
X121839446Y-130844529D01*
X121829218Y-130866153D01*
X121816921Y-130886670D01*
X121802671Y-130905883D01*
X121786607Y-130923607D01*
X121768883Y-130939671D01*
X121749670Y-130953921D01*
X121729153Y-130966218D01*
X121707529Y-130976446D01*
X121685007Y-130984504D01*
X121661803Y-130990316D01*
X121638142Y-130993826D01*
X121614250Y-130995000D01*
X120701750Y-130995000D01*
X120677858Y-130993826D01*
X120654197Y-130990316D01*
X120630993Y-130984504D01*
X120608471Y-130976446D01*
X120586847Y-130966218D01*
X120566330Y-130953921D01*
X120547117Y-130939671D01*
X120529393Y-130923607D01*
X120513329Y-130905883D01*
X120499079Y-130886670D01*
X120486782Y-130866153D01*
X120476554Y-130844529D01*
X120468496Y-130822007D01*
X120462684Y-130798803D01*
X120459174Y-130775142D01*
X120458000Y-130751250D01*
X120458000Y-130263750D01*
X120459174Y-130239858D01*
X120462684Y-130216197D01*
X120468496Y-130192993D01*
X120476554Y-130170471D01*
X120486782Y-130148847D01*
X120499079Y-130128330D01*
X120513329Y-130109117D01*
X120529393Y-130091393D01*
X120547117Y-130075329D01*
X120566330Y-130061079D01*
X120586847Y-130048782D01*
X120608471Y-130038554D01*
X120630993Y-130030496D01*
X120654197Y-130024684D01*
X120677858Y-130021174D01*
X120701750Y-130020000D01*
X121614250Y-130020000D01*
X121638142Y-130021174D01*
X121638142Y-130021174D01*
G37*
D22*
X121158000Y-130507500D03*
D21*
G36*
X116240642Y-117511674D02*
G01*
X116264303Y-117515184D01*
X116287507Y-117520996D01*
X116310029Y-117529054D01*
X116331653Y-117539282D01*
X116352170Y-117551579D01*
X116371383Y-117565829D01*
X116389107Y-117581893D01*
X116405171Y-117599617D01*
X116419421Y-117618830D01*
X116431718Y-117639347D01*
X116441946Y-117660971D01*
X116450004Y-117683493D01*
X116455816Y-117706697D01*
X116459326Y-117730358D01*
X116460500Y-117754250D01*
X116460500Y-118241750D01*
X116459326Y-118265642D01*
X116455816Y-118289303D01*
X116450004Y-118312507D01*
X116441946Y-118335029D01*
X116431718Y-118356653D01*
X116419421Y-118377170D01*
X116405171Y-118396383D01*
X116389107Y-118414107D01*
X116371383Y-118430171D01*
X116352170Y-118444421D01*
X116331653Y-118456718D01*
X116310029Y-118466946D01*
X116287507Y-118475004D01*
X116264303Y-118480816D01*
X116240642Y-118484326D01*
X116216750Y-118485500D01*
X115304250Y-118485500D01*
X115280358Y-118484326D01*
X115256697Y-118480816D01*
X115233493Y-118475004D01*
X115210971Y-118466946D01*
X115189347Y-118456718D01*
X115168830Y-118444421D01*
X115149617Y-118430171D01*
X115131893Y-118414107D01*
X115115829Y-118396383D01*
X115101579Y-118377170D01*
X115089282Y-118356653D01*
X115079054Y-118335029D01*
X115070996Y-118312507D01*
X115065184Y-118289303D01*
X115061674Y-118265642D01*
X115060500Y-118241750D01*
X115060500Y-117754250D01*
X115061674Y-117730358D01*
X115065184Y-117706697D01*
X115070996Y-117683493D01*
X115079054Y-117660971D01*
X115089282Y-117639347D01*
X115101579Y-117618830D01*
X115115829Y-117599617D01*
X115131893Y-117581893D01*
X115149617Y-117565829D01*
X115168830Y-117551579D01*
X115189347Y-117539282D01*
X115210971Y-117529054D01*
X115233493Y-117520996D01*
X115256697Y-117515184D01*
X115280358Y-117511674D01*
X115304250Y-117510500D01*
X116216750Y-117510500D01*
X116240642Y-117511674D01*
X116240642Y-117511674D01*
G37*
D22*
X115760500Y-117998000D03*
D21*
G36*
X116240642Y-119386674D02*
G01*
X116264303Y-119390184D01*
X116287507Y-119395996D01*
X116310029Y-119404054D01*
X116331653Y-119414282D01*
X116352170Y-119426579D01*
X116371383Y-119440829D01*
X116389107Y-119456893D01*
X116405171Y-119474617D01*
X116419421Y-119493830D01*
X116431718Y-119514347D01*
X116441946Y-119535971D01*
X116450004Y-119558493D01*
X116455816Y-119581697D01*
X116459326Y-119605358D01*
X116460500Y-119629250D01*
X116460500Y-120116750D01*
X116459326Y-120140642D01*
X116455816Y-120164303D01*
X116450004Y-120187507D01*
X116441946Y-120210029D01*
X116431718Y-120231653D01*
X116419421Y-120252170D01*
X116405171Y-120271383D01*
X116389107Y-120289107D01*
X116371383Y-120305171D01*
X116352170Y-120319421D01*
X116331653Y-120331718D01*
X116310029Y-120341946D01*
X116287507Y-120350004D01*
X116264303Y-120355816D01*
X116240642Y-120359326D01*
X116216750Y-120360500D01*
X115304250Y-120360500D01*
X115280358Y-120359326D01*
X115256697Y-120355816D01*
X115233493Y-120350004D01*
X115210971Y-120341946D01*
X115189347Y-120331718D01*
X115168830Y-120319421D01*
X115149617Y-120305171D01*
X115131893Y-120289107D01*
X115115829Y-120271383D01*
X115101579Y-120252170D01*
X115089282Y-120231653D01*
X115079054Y-120210029D01*
X115070996Y-120187507D01*
X115065184Y-120164303D01*
X115061674Y-120140642D01*
X115060500Y-120116750D01*
X115060500Y-119629250D01*
X115061674Y-119605358D01*
X115065184Y-119581697D01*
X115070996Y-119558493D01*
X115079054Y-119535971D01*
X115089282Y-119514347D01*
X115101579Y-119493830D01*
X115115829Y-119474617D01*
X115131893Y-119456893D01*
X115149617Y-119440829D01*
X115168830Y-119426579D01*
X115189347Y-119414282D01*
X115210971Y-119404054D01*
X115233493Y-119395996D01*
X115256697Y-119390184D01*
X115280358Y-119386674D01*
X115304250Y-119385500D01*
X116216750Y-119385500D01*
X116240642Y-119386674D01*
X116240642Y-119386674D01*
G37*
D22*
X115760500Y-119873000D03*
D21*
G36*
X106715642Y-119386674D02*
G01*
X106739303Y-119390184D01*
X106762507Y-119395996D01*
X106785029Y-119404054D01*
X106806653Y-119414282D01*
X106827170Y-119426579D01*
X106846383Y-119440829D01*
X106864107Y-119456893D01*
X106880171Y-119474617D01*
X106894421Y-119493830D01*
X106906718Y-119514347D01*
X106916946Y-119535971D01*
X106925004Y-119558493D01*
X106930816Y-119581697D01*
X106934326Y-119605358D01*
X106935500Y-119629250D01*
X106935500Y-120116750D01*
X106934326Y-120140642D01*
X106930816Y-120164303D01*
X106925004Y-120187507D01*
X106916946Y-120210029D01*
X106906718Y-120231653D01*
X106894421Y-120252170D01*
X106880171Y-120271383D01*
X106864107Y-120289107D01*
X106846383Y-120305171D01*
X106827170Y-120319421D01*
X106806653Y-120331718D01*
X106785029Y-120341946D01*
X106762507Y-120350004D01*
X106739303Y-120355816D01*
X106715642Y-120359326D01*
X106691750Y-120360500D01*
X105779250Y-120360500D01*
X105755358Y-120359326D01*
X105731697Y-120355816D01*
X105708493Y-120350004D01*
X105685971Y-120341946D01*
X105664347Y-120331718D01*
X105643830Y-120319421D01*
X105624617Y-120305171D01*
X105606893Y-120289107D01*
X105590829Y-120271383D01*
X105576579Y-120252170D01*
X105564282Y-120231653D01*
X105554054Y-120210029D01*
X105545996Y-120187507D01*
X105540184Y-120164303D01*
X105536674Y-120140642D01*
X105535500Y-120116750D01*
X105535500Y-119629250D01*
X105536674Y-119605358D01*
X105540184Y-119581697D01*
X105545996Y-119558493D01*
X105554054Y-119535971D01*
X105564282Y-119514347D01*
X105576579Y-119493830D01*
X105590829Y-119474617D01*
X105606893Y-119456893D01*
X105624617Y-119440829D01*
X105643830Y-119426579D01*
X105664347Y-119414282D01*
X105685971Y-119404054D01*
X105708493Y-119395996D01*
X105731697Y-119390184D01*
X105755358Y-119386674D01*
X105779250Y-119385500D01*
X106691750Y-119385500D01*
X106715642Y-119386674D01*
X106715642Y-119386674D01*
G37*
D22*
X106235500Y-119873000D03*
D21*
G36*
X106715642Y-117511674D02*
G01*
X106739303Y-117515184D01*
X106762507Y-117520996D01*
X106785029Y-117529054D01*
X106806653Y-117539282D01*
X106827170Y-117551579D01*
X106846383Y-117565829D01*
X106864107Y-117581893D01*
X106880171Y-117599617D01*
X106894421Y-117618830D01*
X106906718Y-117639347D01*
X106916946Y-117660971D01*
X106925004Y-117683493D01*
X106930816Y-117706697D01*
X106934326Y-117730358D01*
X106935500Y-117754250D01*
X106935500Y-118241750D01*
X106934326Y-118265642D01*
X106930816Y-118289303D01*
X106925004Y-118312507D01*
X106916946Y-118335029D01*
X106906718Y-118356653D01*
X106894421Y-118377170D01*
X106880171Y-118396383D01*
X106864107Y-118414107D01*
X106846383Y-118430171D01*
X106827170Y-118444421D01*
X106806653Y-118456718D01*
X106785029Y-118466946D01*
X106762507Y-118475004D01*
X106739303Y-118480816D01*
X106715642Y-118484326D01*
X106691750Y-118485500D01*
X105779250Y-118485500D01*
X105755358Y-118484326D01*
X105731697Y-118480816D01*
X105708493Y-118475004D01*
X105685971Y-118466946D01*
X105664347Y-118456718D01*
X105643830Y-118444421D01*
X105624617Y-118430171D01*
X105606893Y-118414107D01*
X105590829Y-118396383D01*
X105576579Y-118377170D01*
X105564282Y-118356653D01*
X105554054Y-118335029D01*
X105545996Y-118312507D01*
X105540184Y-118289303D01*
X105536674Y-118265642D01*
X105535500Y-118241750D01*
X105535500Y-117754250D01*
X105536674Y-117730358D01*
X105540184Y-117706697D01*
X105545996Y-117683493D01*
X105554054Y-117660971D01*
X105564282Y-117639347D01*
X105576579Y-117618830D01*
X105590829Y-117599617D01*
X105606893Y-117581893D01*
X105624617Y-117565829D01*
X105643830Y-117551579D01*
X105664347Y-117539282D01*
X105685971Y-117529054D01*
X105708493Y-117520996D01*
X105731697Y-117515184D01*
X105755358Y-117511674D01*
X105779250Y-117510500D01*
X106691750Y-117510500D01*
X106715642Y-117511674D01*
X106715642Y-117511674D01*
G37*
D22*
X106235500Y-117998000D03*
D21*
G36*
X117161392Y-143326174D02*
G01*
X117185053Y-143329684D01*
X117208257Y-143335496D01*
X117230779Y-143343554D01*
X117252403Y-143353782D01*
X117272920Y-143366079D01*
X117292133Y-143380329D01*
X117309857Y-143396393D01*
X117325921Y-143414117D01*
X117340171Y-143433330D01*
X117352468Y-143453847D01*
X117362696Y-143475471D01*
X117370754Y-143497993D01*
X117376566Y-143521197D01*
X117380076Y-143544858D01*
X117381250Y-143568750D01*
X117381250Y-144056250D01*
X117380076Y-144080142D01*
X117376566Y-144103803D01*
X117370754Y-144127007D01*
X117362696Y-144149529D01*
X117352468Y-144171153D01*
X117340171Y-144191670D01*
X117325921Y-144210883D01*
X117309857Y-144228607D01*
X117292133Y-144244671D01*
X117272920Y-144258921D01*
X117252403Y-144271218D01*
X117230779Y-144281446D01*
X117208257Y-144289504D01*
X117185053Y-144295316D01*
X117161392Y-144298826D01*
X117137500Y-144300000D01*
X116225000Y-144300000D01*
X116201108Y-144298826D01*
X116177447Y-144295316D01*
X116154243Y-144289504D01*
X116131721Y-144281446D01*
X116110097Y-144271218D01*
X116089580Y-144258921D01*
X116070367Y-144244671D01*
X116052643Y-144228607D01*
X116036579Y-144210883D01*
X116022329Y-144191670D01*
X116010032Y-144171153D01*
X115999804Y-144149529D01*
X115991746Y-144127007D01*
X115985934Y-144103803D01*
X115982424Y-144080142D01*
X115981250Y-144056250D01*
X115981250Y-143568750D01*
X115982424Y-143544858D01*
X115985934Y-143521197D01*
X115991746Y-143497993D01*
X115999804Y-143475471D01*
X116010032Y-143453847D01*
X116022329Y-143433330D01*
X116036579Y-143414117D01*
X116052643Y-143396393D01*
X116070367Y-143380329D01*
X116089580Y-143366079D01*
X116110097Y-143353782D01*
X116131721Y-143343554D01*
X116154243Y-143335496D01*
X116177447Y-143329684D01*
X116201108Y-143326174D01*
X116225000Y-143325000D01*
X117137500Y-143325000D01*
X117161392Y-143326174D01*
X117161392Y-143326174D01*
G37*
D22*
X116681250Y-143812500D03*
D21*
G36*
X117161392Y-141451174D02*
G01*
X117185053Y-141454684D01*
X117208257Y-141460496D01*
X117230779Y-141468554D01*
X117252403Y-141478782D01*
X117272920Y-141491079D01*
X117292133Y-141505329D01*
X117309857Y-141521393D01*
X117325921Y-141539117D01*
X117340171Y-141558330D01*
X117352468Y-141578847D01*
X117362696Y-141600471D01*
X117370754Y-141622993D01*
X117376566Y-141646197D01*
X117380076Y-141669858D01*
X117381250Y-141693750D01*
X117381250Y-142181250D01*
X117380076Y-142205142D01*
X117376566Y-142228803D01*
X117370754Y-142252007D01*
X117362696Y-142274529D01*
X117352468Y-142296153D01*
X117340171Y-142316670D01*
X117325921Y-142335883D01*
X117309857Y-142353607D01*
X117292133Y-142369671D01*
X117272920Y-142383921D01*
X117252403Y-142396218D01*
X117230779Y-142406446D01*
X117208257Y-142414504D01*
X117185053Y-142420316D01*
X117161392Y-142423826D01*
X117137500Y-142425000D01*
X116225000Y-142425000D01*
X116201108Y-142423826D01*
X116177447Y-142420316D01*
X116154243Y-142414504D01*
X116131721Y-142406446D01*
X116110097Y-142396218D01*
X116089580Y-142383921D01*
X116070367Y-142369671D01*
X116052643Y-142353607D01*
X116036579Y-142335883D01*
X116022329Y-142316670D01*
X116010032Y-142296153D01*
X115999804Y-142274529D01*
X115991746Y-142252007D01*
X115985934Y-142228803D01*
X115982424Y-142205142D01*
X115981250Y-142181250D01*
X115981250Y-141693750D01*
X115982424Y-141669858D01*
X115985934Y-141646197D01*
X115991746Y-141622993D01*
X115999804Y-141600471D01*
X116010032Y-141578847D01*
X116022329Y-141558330D01*
X116036579Y-141539117D01*
X116052643Y-141521393D01*
X116070367Y-141505329D01*
X116089580Y-141491079D01*
X116110097Y-141478782D01*
X116131721Y-141468554D01*
X116154243Y-141460496D01*
X116177447Y-141454684D01*
X116201108Y-141451174D01*
X116225000Y-141450000D01*
X117137500Y-141450000D01*
X117161392Y-141451174D01*
X117161392Y-141451174D01*
G37*
D22*
X116681250Y-141937500D03*
D21*
G36*
X119161642Y-122686924D02*
G01*
X119185303Y-122690434D01*
X119208507Y-122696246D01*
X119231029Y-122704304D01*
X119252653Y-122714532D01*
X119273170Y-122726829D01*
X119292383Y-122741079D01*
X119310107Y-122757143D01*
X119326171Y-122774867D01*
X119340421Y-122794080D01*
X119352718Y-122814597D01*
X119362946Y-122836221D01*
X119371004Y-122858743D01*
X119376816Y-122881947D01*
X119380326Y-122905608D01*
X119381500Y-122929500D01*
X119381500Y-123417000D01*
X119380326Y-123440892D01*
X119376816Y-123464553D01*
X119371004Y-123487757D01*
X119362946Y-123510279D01*
X119352718Y-123531903D01*
X119340421Y-123552420D01*
X119326171Y-123571633D01*
X119310107Y-123589357D01*
X119292383Y-123605421D01*
X119273170Y-123619671D01*
X119252653Y-123631968D01*
X119231029Y-123642196D01*
X119208507Y-123650254D01*
X119185303Y-123656066D01*
X119161642Y-123659576D01*
X119137750Y-123660750D01*
X118225250Y-123660750D01*
X118201358Y-123659576D01*
X118177697Y-123656066D01*
X118154493Y-123650254D01*
X118131971Y-123642196D01*
X118110347Y-123631968D01*
X118089830Y-123619671D01*
X118070617Y-123605421D01*
X118052893Y-123589357D01*
X118036829Y-123571633D01*
X118022579Y-123552420D01*
X118010282Y-123531903D01*
X118000054Y-123510279D01*
X117991996Y-123487757D01*
X117986184Y-123464553D01*
X117982674Y-123440892D01*
X117981500Y-123417000D01*
X117981500Y-122929500D01*
X117982674Y-122905608D01*
X117986184Y-122881947D01*
X117991996Y-122858743D01*
X118000054Y-122836221D01*
X118010282Y-122814597D01*
X118022579Y-122794080D01*
X118036829Y-122774867D01*
X118052893Y-122757143D01*
X118070617Y-122741079D01*
X118089830Y-122726829D01*
X118110347Y-122714532D01*
X118131971Y-122704304D01*
X118154493Y-122696246D01*
X118177697Y-122690434D01*
X118201358Y-122686924D01*
X118225250Y-122685750D01*
X119137750Y-122685750D01*
X119161642Y-122686924D01*
X119161642Y-122686924D01*
G37*
D22*
X118681500Y-123173250D03*
D21*
G36*
X119161642Y-124561924D02*
G01*
X119185303Y-124565434D01*
X119208507Y-124571246D01*
X119231029Y-124579304D01*
X119252653Y-124589532D01*
X119273170Y-124601829D01*
X119292383Y-124616079D01*
X119310107Y-124632143D01*
X119326171Y-124649867D01*
X119340421Y-124669080D01*
X119352718Y-124689597D01*
X119362946Y-124711221D01*
X119371004Y-124733743D01*
X119376816Y-124756947D01*
X119380326Y-124780608D01*
X119381500Y-124804500D01*
X119381500Y-125292000D01*
X119380326Y-125315892D01*
X119376816Y-125339553D01*
X119371004Y-125362757D01*
X119362946Y-125385279D01*
X119352718Y-125406903D01*
X119340421Y-125427420D01*
X119326171Y-125446633D01*
X119310107Y-125464357D01*
X119292383Y-125480421D01*
X119273170Y-125494671D01*
X119252653Y-125506968D01*
X119231029Y-125517196D01*
X119208507Y-125525254D01*
X119185303Y-125531066D01*
X119161642Y-125534576D01*
X119137750Y-125535750D01*
X118225250Y-125535750D01*
X118201358Y-125534576D01*
X118177697Y-125531066D01*
X118154493Y-125525254D01*
X118131971Y-125517196D01*
X118110347Y-125506968D01*
X118089830Y-125494671D01*
X118070617Y-125480421D01*
X118052893Y-125464357D01*
X118036829Y-125446633D01*
X118022579Y-125427420D01*
X118010282Y-125406903D01*
X118000054Y-125385279D01*
X117991996Y-125362757D01*
X117986184Y-125339553D01*
X117982674Y-125315892D01*
X117981500Y-125292000D01*
X117981500Y-124804500D01*
X117982674Y-124780608D01*
X117986184Y-124756947D01*
X117991996Y-124733743D01*
X118000054Y-124711221D01*
X118010282Y-124689597D01*
X118022579Y-124669080D01*
X118036829Y-124649867D01*
X118052893Y-124632143D01*
X118070617Y-124616079D01*
X118089830Y-124601829D01*
X118110347Y-124589532D01*
X118131971Y-124579304D01*
X118154493Y-124571246D01*
X118177697Y-124565434D01*
X118201358Y-124561924D01*
X118225250Y-124560750D01*
X119137750Y-124560750D01*
X119161642Y-124561924D01*
X119161642Y-124561924D01*
G37*
D22*
X118681500Y-125048250D03*
D21*
G36*
X108361392Y-142176174D02*
G01*
X108385053Y-142179684D01*
X108408257Y-142185496D01*
X108430779Y-142193554D01*
X108452403Y-142203782D01*
X108472920Y-142216079D01*
X108492133Y-142230329D01*
X108509857Y-142246393D01*
X108525921Y-142264117D01*
X108540171Y-142283330D01*
X108552468Y-142303847D01*
X108562696Y-142325471D01*
X108570754Y-142347993D01*
X108576566Y-142371197D01*
X108580076Y-142394858D01*
X108581250Y-142418750D01*
X108581250Y-143331250D01*
X108580076Y-143355142D01*
X108576566Y-143378803D01*
X108570754Y-143402007D01*
X108562696Y-143424529D01*
X108552468Y-143446153D01*
X108540171Y-143466670D01*
X108525921Y-143485883D01*
X108509857Y-143503607D01*
X108492133Y-143519671D01*
X108472920Y-143533921D01*
X108452403Y-143546218D01*
X108430779Y-143556446D01*
X108408257Y-143564504D01*
X108385053Y-143570316D01*
X108361392Y-143573826D01*
X108337500Y-143575000D01*
X107850000Y-143575000D01*
X107826108Y-143573826D01*
X107802447Y-143570316D01*
X107779243Y-143564504D01*
X107756721Y-143556446D01*
X107735097Y-143546218D01*
X107714580Y-143533921D01*
X107695367Y-143519671D01*
X107677643Y-143503607D01*
X107661579Y-143485883D01*
X107647329Y-143466670D01*
X107635032Y-143446153D01*
X107624804Y-143424529D01*
X107616746Y-143402007D01*
X107610934Y-143378803D01*
X107607424Y-143355142D01*
X107606250Y-143331250D01*
X107606250Y-142418750D01*
X107607424Y-142394858D01*
X107610934Y-142371197D01*
X107616746Y-142347993D01*
X107624804Y-142325471D01*
X107635032Y-142303847D01*
X107647329Y-142283330D01*
X107661579Y-142264117D01*
X107677643Y-142246393D01*
X107695367Y-142230329D01*
X107714580Y-142216079D01*
X107735097Y-142203782D01*
X107756721Y-142193554D01*
X107779243Y-142185496D01*
X107802447Y-142179684D01*
X107826108Y-142176174D01*
X107850000Y-142175000D01*
X108337500Y-142175000D01*
X108361392Y-142176174D01*
X108361392Y-142176174D01*
G37*
D22*
X108093750Y-142875000D03*
D21*
G36*
X106486392Y-142176174D02*
G01*
X106510053Y-142179684D01*
X106533257Y-142185496D01*
X106555779Y-142193554D01*
X106577403Y-142203782D01*
X106597920Y-142216079D01*
X106617133Y-142230329D01*
X106634857Y-142246393D01*
X106650921Y-142264117D01*
X106665171Y-142283330D01*
X106677468Y-142303847D01*
X106687696Y-142325471D01*
X106695754Y-142347993D01*
X106701566Y-142371197D01*
X106705076Y-142394858D01*
X106706250Y-142418750D01*
X106706250Y-143331250D01*
X106705076Y-143355142D01*
X106701566Y-143378803D01*
X106695754Y-143402007D01*
X106687696Y-143424529D01*
X106677468Y-143446153D01*
X106665171Y-143466670D01*
X106650921Y-143485883D01*
X106634857Y-143503607D01*
X106617133Y-143519671D01*
X106597920Y-143533921D01*
X106577403Y-143546218D01*
X106555779Y-143556446D01*
X106533257Y-143564504D01*
X106510053Y-143570316D01*
X106486392Y-143573826D01*
X106462500Y-143575000D01*
X105975000Y-143575000D01*
X105951108Y-143573826D01*
X105927447Y-143570316D01*
X105904243Y-143564504D01*
X105881721Y-143556446D01*
X105860097Y-143546218D01*
X105839580Y-143533921D01*
X105820367Y-143519671D01*
X105802643Y-143503607D01*
X105786579Y-143485883D01*
X105772329Y-143466670D01*
X105760032Y-143446153D01*
X105749804Y-143424529D01*
X105741746Y-143402007D01*
X105735934Y-143378803D01*
X105732424Y-143355142D01*
X105731250Y-143331250D01*
X105731250Y-142418750D01*
X105732424Y-142394858D01*
X105735934Y-142371197D01*
X105741746Y-142347993D01*
X105749804Y-142325471D01*
X105760032Y-142303847D01*
X105772329Y-142283330D01*
X105786579Y-142264117D01*
X105802643Y-142246393D01*
X105820367Y-142230329D01*
X105839580Y-142216079D01*
X105860097Y-142203782D01*
X105881721Y-142193554D01*
X105904243Y-142185496D01*
X105927447Y-142179684D01*
X105951108Y-142176174D01*
X105975000Y-142175000D01*
X106462500Y-142175000D01*
X106486392Y-142176174D01*
X106486392Y-142176174D01*
G37*
D22*
X106218750Y-142875000D03*
D21*
G36*
X102080142Y-127957424D02*
G01*
X102103803Y-127960934D01*
X102127007Y-127966746D01*
X102149529Y-127974804D01*
X102171153Y-127985032D01*
X102191670Y-127997329D01*
X102210883Y-128011579D01*
X102228607Y-128027643D01*
X102244671Y-128045367D01*
X102258921Y-128064580D01*
X102271218Y-128085097D01*
X102281446Y-128106721D01*
X102289504Y-128129243D01*
X102295316Y-128152447D01*
X102298826Y-128176108D01*
X102300000Y-128200000D01*
X102300000Y-128687500D01*
X102298826Y-128711392D01*
X102295316Y-128735053D01*
X102289504Y-128758257D01*
X102281446Y-128780779D01*
X102271218Y-128802403D01*
X102258921Y-128822920D01*
X102244671Y-128842133D01*
X102228607Y-128859857D01*
X102210883Y-128875921D01*
X102191670Y-128890171D01*
X102171153Y-128902468D01*
X102149529Y-128912696D01*
X102127007Y-128920754D01*
X102103803Y-128926566D01*
X102080142Y-128930076D01*
X102056250Y-128931250D01*
X101143750Y-128931250D01*
X101119858Y-128930076D01*
X101096197Y-128926566D01*
X101072993Y-128920754D01*
X101050471Y-128912696D01*
X101028847Y-128902468D01*
X101008330Y-128890171D01*
X100989117Y-128875921D01*
X100971393Y-128859857D01*
X100955329Y-128842133D01*
X100941079Y-128822920D01*
X100928782Y-128802403D01*
X100918554Y-128780779D01*
X100910496Y-128758257D01*
X100904684Y-128735053D01*
X100901174Y-128711392D01*
X100900000Y-128687500D01*
X100900000Y-128200000D01*
X100901174Y-128176108D01*
X100904684Y-128152447D01*
X100910496Y-128129243D01*
X100918554Y-128106721D01*
X100928782Y-128085097D01*
X100941079Y-128064580D01*
X100955329Y-128045367D01*
X100971393Y-128027643D01*
X100989117Y-128011579D01*
X101008330Y-127997329D01*
X101028847Y-127985032D01*
X101050471Y-127974804D01*
X101072993Y-127966746D01*
X101096197Y-127960934D01*
X101119858Y-127957424D01*
X101143750Y-127956250D01*
X102056250Y-127956250D01*
X102080142Y-127957424D01*
X102080142Y-127957424D01*
G37*
D22*
X101600000Y-128443750D03*
D21*
G36*
X102080142Y-129832424D02*
G01*
X102103803Y-129835934D01*
X102127007Y-129841746D01*
X102149529Y-129849804D01*
X102171153Y-129860032D01*
X102191670Y-129872329D01*
X102210883Y-129886579D01*
X102228607Y-129902643D01*
X102244671Y-129920367D01*
X102258921Y-129939580D01*
X102271218Y-129960097D01*
X102281446Y-129981721D01*
X102289504Y-130004243D01*
X102295316Y-130027447D01*
X102298826Y-130051108D01*
X102300000Y-130075000D01*
X102300000Y-130562500D01*
X102298826Y-130586392D01*
X102295316Y-130610053D01*
X102289504Y-130633257D01*
X102281446Y-130655779D01*
X102271218Y-130677403D01*
X102258921Y-130697920D01*
X102244671Y-130717133D01*
X102228607Y-130734857D01*
X102210883Y-130750921D01*
X102191670Y-130765171D01*
X102171153Y-130777468D01*
X102149529Y-130787696D01*
X102127007Y-130795754D01*
X102103803Y-130801566D01*
X102080142Y-130805076D01*
X102056250Y-130806250D01*
X101143750Y-130806250D01*
X101119858Y-130805076D01*
X101096197Y-130801566D01*
X101072993Y-130795754D01*
X101050471Y-130787696D01*
X101028847Y-130777468D01*
X101008330Y-130765171D01*
X100989117Y-130750921D01*
X100971393Y-130734857D01*
X100955329Y-130717133D01*
X100941079Y-130697920D01*
X100928782Y-130677403D01*
X100918554Y-130655779D01*
X100910496Y-130633257D01*
X100904684Y-130610053D01*
X100901174Y-130586392D01*
X100900000Y-130562500D01*
X100900000Y-130075000D01*
X100901174Y-130051108D01*
X100904684Y-130027447D01*
X100910496Y-130004243D01*
X100918554Y-129981721D01*
X100928782Y-129960097D01*
X100941079Y-129939580D01*
X100955329Y-129920367D01*
X100971393Y-129902643D01*
X100989117Y-129886579D01*
X101008330Y-129872329D01*
X101028847Y-129860032D01*
X101050471Y-129849804D01*
X101072993Y-129841746D01*
X101096197Y-129835934D01*
X101119858Y-129832424D01*
X101143750Y-129831250D01*
X102056250Y-129831250D01*
X102080142Y-129832424D01*
X102080142Y-129832424D01*
G37*
D22*
X101600000Y-130318750D03*
D24*
X99822000Y-130302000D03*
X103886000Y-143002000D03*
X118999000Y-130683000D03*
X120142000Y-123952000D03*
X119126000Y-135763000D03*
X124714000Y-145034000D03*
X121920000Y-126746000D03*
D25*
X106323000Y-118085500D02*
X106235500Y-117998000D01*
X111900902Y-119785500D02*
X112098000Y-119785500D01*
X110200902Y-118085500D02*
X111900902Y-119785500D01*
X109898000Y-118085500D02*
X110200902Y-118085500D01*
X109898000Y-117104500D02*
X110543500Y-116459000D01*
X109898000Y-118085500D02*
X109898000Y-117104500D01*
X110543500Y-116459000D02*
X117221000Y-116459000D01*
X117221000Y-118412500D02*
X115760500Y-119873000D01*
X117221000Y-116459000D02*
X117221000Y-118412500D01*
X112725000Y-122908500D02*
X112725000Y-126856250D01*
X115760500Y-119873000D02*
X112725000Y-122908500D01*
X109810500Y-117998000D02*
X109898000Y-118085500D01*
X106235500Y-117998000D02*
X109810500Y-117998000D01*
X117881500Y-123173250D02*
X118681500Y-123173250D01*
X115277000Y-123173250D02*
X117881500Y-123173250D01*
X112725000Y-125725250D02*
X115277000Y-123173250D01*
X112725000Y-126856250D02*
X112725000Y-125725250D01*
X107925000Y-139167000D02*
X107925000Y-138256250D01*
X108093750Y-139335750D02*
X107925000Y-139167000D01*
X108093750Y-142875000D02*
X108093750Y-139335750D01*
X123691750Y-133356250D02*
X116825000Y-133356250D01*
X123952000Y-133096000D02*
X123691750Y-133356250D01*
X123952000Y-128297540D02*
X123952000Y-133096000D01*
X129368750Y-119593750D02*
X129368750Y-122880790D01*
X129368750Y-122880790D02*
X123952000Y-128297540D01*
X117956000Y-133356250D02*
X116825000Y-133356250D01*
X120771750Y-133356250D02*
X117956000Y-133356250D01*
X121158000Y-132970000D02*
X120771750Y-133356250D01*
X121158000Y-132382500D02*
X121158000Y-132970000D01*
X114325000Y-141456250D02*
X114325000Y-138256250D01*
X116681250Y-143812500D02*
X114325000Y-141456250D01*
X117481250Y-143812500D02*
X118037750Y-143256000D01*
X116681250Y-143812500D02*
X117481250Y-143812500D01*
X118037750Y-143256000D02*
X134747000Y-143256000D01*
X134747000Y-143256000D02*
X136398000Y-144907000D01*
X136398000Y-144907000D02*
X136398000Y-147574000D01*
X135278250Y-148693750D02*
X132481250Y-148693750D01*
X136398000Y-147574000D02*
X135278250Y-148693750D01*
X101712500Y-128556250D02*
X101600000Y-128443750D01*
X105425000Y-128556250D02*
X101712500Y-128556250D01*
X117881500Y-125048250D02*
X118681500Y-125048250D01*
X114405098Y-125048250D02*
X117881500Y-125048250D01*
X113525000Y-125928348D02*
X114405098Y-125048250D01*
X113525000Y-126856250D02*
X113525000Y-125928348D01*
X101600000Y-130318750D02*
X99838750Y-130318750D01*
X99838750Y-130318750D02*
X99822000Y-130302000D01*
X106469000Y-138256250D02*
X107125000Y-138256250D01*
X106218750Y-138506500D02*
X106469000Y-138256250D01*
X106218750Y-142875000D02*
X106218750Y-138506500D01*
X106218750Y-142875000D02*
X104013000Y-142875000D01*
X104013000Y-142875000D02*
X103886000Y-143002000D01*
X117481250Y-141937500D02*
X116681250Y-141937500D01*
X127681250Y-141937500D02*
X117481250Y-141937500D01*
X134937500Y-134681250D02*
X127681250Y-141937500D01*
X134937500Y-133956250D02*
X134937500Y-134681250D01*
X115125000Y-140381250D02*
X115125000Y-138256250D01*
X116681250Y-141937500D02*
X115125000Y-140381250D01*
X116825000Y-135756250D02*
X118484250Y-135756250D01*
X118484250Y-140134500D02*
X116681250Y-141937500D01*
X118484250Y-135756250D02*
X118484250Y-140134500D01*
X116825000Y-131756250D02*
X117925750Y-131756250D01*
X117925750Y-131756250D02*
X118999000Y-130683000D01*
X121077750Y-123952000D02*
X121856500Y-123173250D01*
X120142000Y-123952000D02*
X121077750Y-123952000D01*
X118484250Y-135756250D02*
X119119250Y-135756250D01*
X119119250Y-135756250D02*
X119126000Y-135763000D01*
X102562500Y-129356250D02*
X101600000Y-130318750D01*
X105425000Y-129356250D02*
X102562500Y-129356250D01*
D26*
X111125000Y-125852250D02*
X111125000Y-126856250D01*
X111125000Y-121866500D02*
X111125000Y-125852250D01*
X109898000Y-120639500D02*
X111125000Y-121866500D01*
X109898000Y-119785500D02*
X109898000Y-120639500D01*
X109810500Y-119873000D02*
X109898000Y-119785500D01*
X106235500Y-119873000D02*
X109810500Y-119873000D01*
X112185500Y-117998000D02*
X112098000Y-118085500D01*
X115673000Y-118085500D02*
X115760500Y-117998000D01*
X112098000Y-118085500D02*
X115673000Y-118085500D01*
X112098000Y-118085500D02*
X112198000Y-118085500D01*
X112198000Y-118085500D02*
X113492500Y-119380000D01*
X111925000Y-125852250D02*
X111925000Y-126856250D01*
X111925000Y-122976632D02*
X111925000Y-125852250D01*
X113492500Y-121409132D02*
X111925000Y-122976632D01*
X113492500Y-119380000D02*
X113492500Y-121409132D01*
X119109250Y-132556250D02*
X121158000Y-130507500D01*
X116825000Y-132556250D02*
X119109250Y-132556250D01*
X75256250Y-121381250D02*
X75406250Y-121381250D01*
X72406250Y-118531250D02*
X75256250Y-121381250D01*
X69968750Y-118531250D02*
X72406250Y-118531250D01*
X76260250Y-124681250D02*
X77182000Y-125603000D01*
X75406250Y-124681250D02*
X76260250Y-124681250D01*
X93602250Y-124681250D02*
X94456250Y-124681250D01*
X92680500Y-125603000D02*
X93602250Y-124681250D01*
X77182000Y-125603000D02*
X92680500Y-125603000D01*
X94456250Y-125385250D02*
X94456250Y-124681250D01*
X94456250Y-126012212D02*
X94456250Y-125385250D01*
X100200288Y-131756250D02*
X94456250Y-126012212D01*
X105425000Y-131756250D02*
X100200288Y-131756250D01*
X75256250Y-140431250D02*
X75406250Y-140431250D01*
X72406250Y-137581250D02*
X75256250Y-140431250D01*
X69968750Y-137581250D02*
X72406250Y-137581250D01*
X75406250Y-144435250D02*
X76386000Y-145415000D01*
X75406250Y-143731250D02*
X75406250Y-144435250D01*
X93602250Y-143731250D02*
X94456250Y-143731250D01*
X91918500Y-145415000D02*
X93602250Y-143731250D01*
X76386000Y-145415000D02*
X91918500Y-145415000D01*
X94456250Y-143027250D02*
X94456250Y-143731250D01*
X103327250Y-134156250D02*
X94456250Y-143027250D01*
X105425000Y-134156250D02*
X103327250Y-134156250D01*
X94306250Y-121381250D02*
X94456250Y-121381250D01*
X91456250Y-118531250D02*
X94306250Y-121381250D01*
X89018750Y-118531250D02*
X91456250Y-118531250D01*
X90836000Y-136961000D02*
X89067000Y-136961000D01*
X94456250Y-140431250D02*
X94306250Y-140431250D01*
X94306250Y-140431250D02*
X90836000Y-136961000D01*
D25*
X134937500Y-130431250D02*
X134937500Y-131156250D01*
X134937500Y-123468500D02*
X134937500Y-130431250D01*
X132568750Y-121099750D02*
X134937500Y-123468500D01*
X132568750Y-119593750D02*
X132568750Y-121099750D01*
D26*
X131768750Y-123592250D02*
X132715000Y-124538500D01*
X131768750Y-119593750D02*
X131768750Y-123592250D01*
X131136009Y-127992491D02*
X131136009Y-128204057D01*
X132715000Y-126413500D02*
X131136009Y-127992491D01*
X124383816Y-134956250D02*
X116825000Y-134956250D01*
X131136009Y-128204057D02*
X124383816Y-134956250D01*
X130968750Y-123554250D02*
X129825750Y-124697250D01*
X130968750Y-119593750D02*
X130968750Y-123554250D01*
X129825750Y-127159750D02*
X130682000Y-128016000D01*
X129825750Y-126572250D02*
X129825750Y-127159750D01*
X124541750Y-134156250D02*
X116825000Y-134156250D01*
X130682000Y-128016000D02*
X124541750Y-134156250D01*
X126281250Y-144993750D02*
X124754250Y-144993750D01*
X124754250Y-144993750D02*
X124714000Y-145034000D01*
X121920000Y-125111750D02*
X121856500Y-125048250D01*
X121920000Y-126746000D02*
X121920000Y-125111750D01*
X121300263Y-125604487D02*
X121856500Y-125048250D01*
X121041990Y-125862760D02*
X121300263Y-125604487D01*
X117988832Y-125862760D02*
X121041990Y-125862760D01*
X117905321Y-125779249D02*
X117988832Y-125862760D01*
X114588399Y-125779249D02*
X117905321Y-125779249D01*
X114325000Y-126042648D02*
X114588399Y-125779249D01*
X114325000Y-126856250D02*
X114325000Y-126042648D01*
X103806250Y-136556250D02*
X101600000Y-138762500D01*
X105425000Y-136556250D02*
X103806250Y-136556250D01*
X63658750Y-139541250D02*
X63658750Y-137953750D01*
X63658750Y-139391250D02*
X63658750Y-139541250D01*
X69693750Y-133356250D02*
X63658750Y-139391250D01*
X105425000Y-133356250D02*
X69693750Y-133356250D01*
X82708750Y-139391250D02*
X82708750Y-139541250D01*
X77957648Y-120491250D02*
X82708750Y-120491250D01*
X74479249Y-123969649D02*
X77957648Y-120491250D01*
X74479249Y-125392851D02*
X74479249Y-123969649D01*
X81642648Y-132556250D02*
X74479249Y-125392851D01*
X105425000Y-132556250D02*
X81642648Y-132556250D01*
M02*
