G04 #@! TF.GenerationSoftware,KiCad,Pcbnew,(5.1.4)-1*
G04 #@! TF.CreationDate,2022-05-24T18:09:22-07:00*
G04 #@! TF.ProjectId,pcb-keyb-tut,7063622d-6b65-4796-922d-7475742e6b69,rev?*
G04 #@! TF.SameCoordinates,Original*
G04 #@! TF.FileFunction,Soldermask,Top*
G04 #@! TF.FilePolarity,Negative*
%FSLAX46Y46*%
G04 Gerber Fmt 4.6, Leading zero omitted, Abs format (unit mm)*
G04 Created by KiCad (PCBNEW (5.1.4)-1) date 2022-05-24 18:09:22*
%MOMM*%
%LPD*%
G04 APERTURE LIST*
%ADD10C,0.100000*%
G04 APERTURE END LIST*
D10*
G36*
X133432250Y-149294750D02*
G01*
X131530250Y-149294750D01*
X131530250Y-148092750D01*
X133432250Y-148092750D01*
X133432250Y-149294750D01*
X133432250Y-149294750D01*
G37*
G36*
X127232250Y-149294750D02*
G01*
X125330250Y-149294750D01*
X125330250Y-148092750D01*
X127232250Y-148092750D01*
X127232250Y-149294750D01*
X127232250Y-149294750D01*
G37*
G36*
X127232250Y-145594750D02*
G01*
X125330250Y-145594750D01*
X125330250Y-144392750D01*
X127232250Y-144392750D01*
X127232250Y-145594750D01*
X127232250Y-145594750D01*
G37*
G36*
X133432250Y-145594750D02*
G01*
X131530250Y-145594750D01*
X131530250Y-144392750D01*
X133432250Y-144392750D01*
X133432250Y-145594750D01*
X133432250Y-145594750D01*
G37*
G36*
X117265718Y-143278565D02*
G01*
X117304388Y-143290296D01*
X117340027Y-143309346D01*
X117371267Y-143334983D01*
X117396904Y-143366223D01*
X117415954Y-143401862D01*
X117427685Y-143440532D01*
X117432250Y-143486888D01*
X117432250Y-144138112D01*
X117427685Y-144184468D01*
X117415954Y-144223138D01*
X117396904Y-144258777D01*
X117371267Y-144290017D01*
X117340027Y-144315654D01*
X117304388Y-144334704D01*
X117265718Y-144346435D01*
X117219362Y-144351000D01*
X116143138Y-144351000D01*
X116096782Y-144346435D01*
X116058112Y-144334704D01*
X116022473Y-144315654D01*
X115991233Y-144290017D01*
X115965596Y-144258777D01*
X115946546Y-144223138D01*
X115934815Y-144184468D01*
X115930250Y-144138112D01*
X115930250Y-143486888D01*
X115934815Y-143440532D01*
X115946546Y-143401862D01*
X115965596Y-143366223D01*
X115991233Y-143334983D01*
X116022473Y-143309346D01*
X116058112Y-143290296D01*
X116096782Y-143278565D01*
X116143138Y-143274000D01*
X117219362Y-143274000D01*
X117265718Y-143278565D01*
X117265718Y-143278565D01*
G37*
G36*
X76057250Y-144232250D02*
G01*
X74755250Y-144232250D01*
X74755250Y-143230250D01*
X76057250Y-143230250D01*
X76057250Y-144232250D01*
X76057250Y-144232250D01*
G37*
G36*
X95107250Y-144232250D02*
G01*
X93805250Y-144232250D01*
X93805250Y-143230250D01*
X95107250Y-143230250D01*
X95107250Y-144232250D01*
X95107250Y-144232250D01*
G37*
G36*
X68065224Y-140114934D02*
G01*
X68283224Y-140205233D01*
X68437373Y-140269083D01*
X68772298Y-140492873D01*
X69057127Y-140777702D01*
X69280917Y-141112627D01*
X69313312Y-141190836D01*
X69435066Y-141484776D01*
X69513650Y-141879844D01*
X69513650Y-142282656D01*
X69435066Y-142677724D01*
X69384201Y-142800522D01*
X69280917Y-143049873D01*
X69057127Y-143384798D01*
X68772298Y-143669627D01*
X68437373Y-143893417D01*
X68283224Y-143957267D01*
X68065224Y-144047566D01*
X67670156Y-144126150D01*
X67267344Y-144126150D01*
X66872276Y-144047566D01*
X66654276Y-143957267D01*
X66500127Y-143893417D01*
X66165202Y-143669627D01*
X65880373Y-143384798D01*
X65656583Y-143049873D01*
X65553299Y-142800522D01*
X65502434Y-142677724D01*
X65423850Y-142282656D01*
X65423850Y-141879844D01*
X65502434Y-141484776D01*
X65624188Y-141190836D01*
X65656583Y-141112627D01*
X65880373Y-140777702D01*
X66165202Y-140492873D01*
X66500127Y-140269083D01*
X66654276Y-140205233D01*
X66872276Y-140114934D01*
X67267344Y-140036350D01*
X67670156Y-140036350D01*
X68065224Y-140114934D01*
X68065224Y-140114934D01*
G37*
G36*
X87123474Y-140074684D02*
G01*
X87329404Y-140159983D01*
X87495623Y-140228833D01*
X87830548Y-140452623D01*
X88115377Y-140737452D01*
X88339167Y-141072377D01*
X88375339Y-141159704D01*
X88493316Y-141444526D01*
X88571900Y-141839594D01*
X88571900Y-142242406D01*
X88493316Y-142637474D01*
X88425779Y-142800522D01*
X88339167Y-143009623D01*
X88115377Y-143344548D01*
X87830548Y-143629377D01*
X87495623Y-143853167D01*
X87398450Y-143893417D01*
X87123474Y-144007316D01*
X86728406Y-144085900D01*
X86325594Y-144085900D01*
X85930526Y-144007316D01*
X85655550Y-143893417D01*
X85558377Y-143853167D01*
X85223452Y-143629377D01*
X84938623Y-143344548D01*
X84714833Y-143009623D01*
X84628221Y-142800522D01*
X84560684Y-142637474D01*
X84482100Y-142242406D01*
X84482100Y-141839594D01*
X84560684Y-141444526D01*
X84678661Y-141159704D01*
X84714833Y-141072377D01*
X84938623Y-140737452D01*
X85223452Y-140452623D01*
X85558377Y-140228833D01*
X85724596Y-140159983D01*
X85930526Y-140074684D01*
X86325594Y-139996100D01*
X86728406Y-139996100D01*
X87123474Y-140074684D01*
X87123474Y-140074684D01*
G37*
G36*
X106590718Y-142128565D02*
G01*
X106629388Y-142140296D01*
X106665027Y-142159346D01*
X106696267Y-142184983D01*
X106721904Y-142216223D01*
X106740954Y-142251862D01*
X106752685Y-142290532D01*
X106757250Y-142336888D01*
X106757250Y-143413112D01*
X106752685Y-143459468D01*
X106740954Y-143498138D01*
X106721904Y-143533777D01*
X106696267Y-143565017D01*
X106665027Y-143590654D01*
X106629388Y-143609704D01*
X106590718Y-143621435D01*
X106544362Y-143626000D01*
X105893138Y-143626000D01*
X105846782Y-143621435D01*
X105808112Y-143609704D01*
X105772473Y-143590654D01*
X105741233Y-143565017D01*
X105715596Y-143533777D01*
X105696546Y-143498138D01*
X105684815Y-143459468D01*
X105680250Y-143413112D01*
X105680250Y-142336888D01*
X105684815Y-142290532D01*
X105696546Y-142251862D01*
X105715596Y-142216223D01*
X105741233Y-142184983D01*
X105772473Y-142159346D01*
X105808112Y-142140296D01*
X105846782Y-142128565D01*
X105893138Y-142124000D01*
X106544362Y-142124000D01*
X106590718Y-142128565D01*
X106590718Y-142128565D01*
G37*
G36*
X108465718Y-142128565D02*
G01*
X108504388Y-142140296D01*
X108540027Y-142159346D01*
X108571267Y-142184983D01*
X108596904Y-142216223D01*
X108615954Y-142251862D01*
X108627685Y-142290532D01*
X108632250Y-142336888D01*
X108632250Y-143413112D01*
X108627685Y-143459468D01*
X108615954Y-143498138D01*
X108596904Y-143533777D01*
X108571267Y-143565017D01*
X108540027Y-143590654D01*
X108504388Y-143609704D01*
X108465718Y-143621435D01*
X108419362Y-143626000D01*
X107768138Y-143626000D01*
X107721782Y-143621435D01*
X107683112Y-143609704D01*
X107647473Y-143590654D01*
X107616233Y-143565017D01*
X107590596Y-143533777D01*
X107571546Y-143498138D01*
X107559815Y-143459468D01*
X107555250Y-143413112D01*
X107555250Y-142336888D01*
X107559815Y-142290532D01*
X107571546Y-142251862D01*
X107590596Y-142216223D01*
X107616233Y-142184983D01*
X107647473Y-142159346D01*
X107683112Y-142140296D01*
X107721782Y-142128565D01*
X107768138Y-142124000D01*
X108419362Y-142124000D01*
X108465718Y-142128565D01*
X108465718Y-142128565D01*
G37*
G36*
X72818854Y-141190835D02*
G01*
X72987376Y-141260639D01*
X73139041Y-141361978D01*
X73268022Y-141490959D01*
X73369361Y-141642624D01*
X73439165Y-141811146D01*
X73474750Y-141990047D01*
X73474750Y-142172453D01*
X73439165Y-142351354D01*
X73369361Y-142519876D01*
X73268022Y-142671541D01*
X73139041Y-142800522D01*
X72987376Y-142901861D01*
X72818854Y-142971665D01*
X72639953Y-143007250D01*
X72457547Y-143007250D01*
X72278646Y-142971665D01*
X72110124Y-142901861D01*
X71958459Y-142800522D01*
X71829478Y-142671541D01*
X71728139Y-142519876D01*
X71658335Y-142351354D01*
X71622750Y-142172453D01*
X71622750Y-141990047D01*
X71658335Y-141811146D01*
X71728139Y-141642624D01*
X71829478Y-141490959D01*
X71958459Y-141361978D01*
X72110124Y-141260639D01*
X72278646Y-141190835D01*
X72457547Y-141155250D01*
X72639953Y-141155250D01*
X72818854Y-141190835D01*
X72818854Y-141190835D01*
G37*
G36*
X62658854Y-141190835D02*
G01*
X62827376Y-141260639D01*
X62979041Y-141361978D01*
X63108022Y-141490959D01*
X63209361Y-141642624D01*
X63279165Y-141811146D01*
X63314750Y-141990047D01*
X63314750Y-142172453D01*
X63279165Y-142351354D01*
X63209361Y-142519876D01*
X63108022Y-142671541D01*
X62979041Y-142800522D01*
X62827376Y-142901861D01*
X62658854Y-142971665D01*
X62479953Y-143007250D01*
X62297547Y-143007250D01*
X62118646Y-142971665D01*
X61950124Y-142901861D01*
X61798459Y-142800522D01*
X61669478Y-142671541D01*
X61568139Y-142519876D01*
X61498335Y-142351354D01*
X61462750Y-142172453D01*
X61462750Y-141990047D01*
X61498335Y-141811146D01*
X61568139Y-141642624D01*
X61669478Y-141490959D01*
X61798459Y-141361978D01*
X61950124Y-141260639D01*
X62118646Y-141190835D01*
X62297547Y-141155250D01*
X62479953Y-141155250D01*
X62658854Y-141190835D01*
X62658854Y-141190835D01*
G37*
G36*
X91877104Y-141150585D02*
G01*
X92045626Y-141220389D01*
X92197291Y-141321728D01*
X92326272Y-141450709D01*
X92427611Y-141602374D01*
X92497415Y-141770896D01*
X92533000Y-141949797D01*
X92533000Y-142132203D01*
X92497415Y-142311104D01*
X92427611Y-142479626D01*
X92326272Y-142631291D01*
X92197291Y-142760272D01*
X92045626Y-142861611D01*
X91877104Y-142931415D01*
X91698203Y-142967000D01*
X91515797Y-142967000D01*
X91336896Y-142931415D01*
X91168374Y-142861611D01*
X91016709Y-142760272D01*
X90887728Y-142631291D01*
X90786389Y-142479626D01*
X90716585Y-142311104D01*
X90681000Y-142132203D01*
X90681000Y-141949797D01*
X90716585Y-141770896D01*
X90786389Y-141602374D01*
X90887728Y-141450709D01*
X91016709Y-141321728D01*
X91168374Y-141220389D01*
X91336896Y-141150585D01*
X91515797Y-141115000D01*
X91698203Y-141115000D01*
X91877104Y-141150585D01*
X91877104Y-141150585D01*
G37*
G36*
X81717104Y-141150585D02*
G01*
X81885626Y-141220389D01*
X82037291Y-141321728D01*
X82166272Y-141450709D01*
X82267611Y-141602374D01*
X82337415Y-141770896D01*
X82373000Y-141949797D01*
X82373000Y-142132203D01*
X82337415Y-142311104D01*
X82267611Y-142479626D01*
X82166272Y-142631291D01*
X82037291Y-142760272D01*
X81885626Y-142861611D01*
X81717104Y-142931415D01*
X81538203Y-142967000D01*
X81355797Y-142967000D01*
X81176896Y-142931415D01*
X81008374Y-142861611D01*
X80856709Y-142760272D01*
X80727728Y-142631291D01*
X80626389Y-142479626D01*
X80556585Y-142311104D01*
X80521000Y-142132203D01*
X80521000Y-141949797D01*
X80556585Y-141770896D01*
X80626389Y-141602374D01*
X80727728Y-141450709D01*
X80856709Y-141321728D01*
X81008374Y-141220389D01*
X81176896Y-141150585D01*
X81355797Y-141115000D01*
X81538203Y-141115000D01*
X81717104Y-141150585D01*
X81717104Y-141150585D01*
G37*
G36*
X117265718Y-141403565D02*
G01*
X117304388Y-141415296D01*
X117340027Y-141434346D01*
X117371267Y-141459983D01*
X117396904Y-141491223D01*
X117415954Y-141526862D01*
X117427685Y-141565532D01*
X117432250Y-141611888D01*
X117432250Y-142263112D01*
X117427685Y-142309468D01*
X117415954Y-142348138D01*
X117396904Y-142383777D01*
X117371267Y-142415017D01*
X117340027Y-142440654D01*
X117304388Y-142459704D01*
X117265718Y-142471435D01*
X117219362Y-142476000D01*
X116143138Y-142476000D01*
X116096782Y-142471435D01*
X116058112Y-142459704D01*
X116022473Y-142440654D01*
X115991233Y-142415017D01*
X115965596Y-142383777D01*
X115946546Y-142348138D01*
X115934815Y-142309468D01*
X115930250Y-142263112D01*
X115930250Y-141611888D01*
X115934815Y-141565532D01*
X115946546Y-141526862D01*
X115965596Y-141491223D01*
X115991233Y-141459983D01*
X116022473Y-141434346D01*
X116058112Y-141415296D01*
X116096782Y-141403565D01*
X116143138Y-141399000D01*
X117219362Y-141399000D01*
X117265718Y-141403565D01*
X117265718Y-141403565D01*
G37*
G36*
X102184468Y-140103565D02*
G01*
X102223138Y-140115296D01*
X102258777Y-140134346D01*
X102290017Y-140159983D01*
X102315654Y-140191223D01*
X102334704Y-140226862D01*
X102346435Y-140265532D01*
X102351000Y-140311888D01*
X102351000Y-140963112D01*
X102346435Y-141009468D01*
X102334704Y-141048138D01*
X102315654Y-141083777D01*
X102290017Y-141115017D01*
X102258777Y-141140654D01*
X102223138Y-141159704D01*
X102184468Y-141171435D01*
X102138112Y-141176000D01*
X101061888Y-141176000D01*
X101015532Y-141171435D01*
X100976862Y-141159704D01*
X100941223Y-141140654D01*
X100909983Y-141115017D01*
X100884346Y-141083777D01*
X100865296Y-141048138D01*
X100853565Y-141009468D01*
X100849000Y-140963112D01*
X100849000Y-140311888D01*
X100853565Y-140265532D01*
X100865296Y-140226862D01*
X100884346Y-140191223D01*
X100909983Y-140159983D01*
X100941223Y-140134346D01*
X100976862Y-140115296D01*
X101015532Y-140103565D01*
X101061888Y-140099000D01*
X102138112Y-140099000D01*
X102184468Y-140103565D01*
X102184468Y-140103565D01*
G37*
G36*
X76057250Y-140932250D02*
G01*
X74755250Y-140932250D01*
X74755250Y-139930250D01*
X76057250Y-139930250D01*
X76057250Y-140932250D01*
X76057250Y-140932250D01*
G37*
G36*
X95107250Y-140932250D02*
G01*
X93805250Y-140932250D01*
X93805250Y-139930250D01*
X95107250Y-139930250D01*
X95107250Y-140932250D01*
X95107250Y-140932250D01*
G37*
G36*
X102184468Y-138228565D02*
G01*
X102223138Y-138240296D01*
X102258777Y-138259346D01*
X102290017Y-138284983D01*
X102315654Y-138316223D01*
X102334704Y-138351862D01*
X102346435Y-138390532D01*
X102351000Y-138436888D01*
X102351000Y-139088112D01*
X102346435Y-139134468D01*
X102334704Y-139173138D01*
X102315654Y-139208777D01*
X102290017Y-139240017D01*
X102258777Y-139265654D01*
X102223138Y-139284704D01*
X102184468Y-139296435D01*
X102138112Y-139301000D01*
X101061888Y-139301000D01*
X101015532Y-139296435D01*
X100976862Y-139284704D01*
X100941223Y-139265654D01*
X100909983Y-139240017D01*
X100884346Y-139208777D01*
X100865296Y-139173138D01*
X100853565Y-139134468D01*
X100849000Y-139088112D01*
X100849000Y-138436888D01*
X100853565Y-138390532D01*
X100865296Y-138351862D01*
X100884346Y-138316223D01*
X100909983Y-138284983D01*
X100941223Y-138259346D01*
X100976862Y-138240296D01*
X101015532Y-138228565D01*
X101061888Y-138224000D01*
X102138112Y-138224000D01*
X102184468Y-138228565D01*
X102184468Y-138228565D01*
G37*
G36*
X115451000Y-139057250D02*
G01*
X106799000Y-139057250D01*
X106799000Y-137455250D01*
X115451000Y-137455250D01*
X115451000Y-139057250D01*
X115451000Y-139057250D01*
G37*
G36*
X106226000Y-136882250D02*
G01*
X104624000Y-136882250D01*
X104624000Y-128230250D01*
X106226000Y-128230250D01*
X106226000Y-136882250D01*
X106226000Y-136882250D01*
G37*
G36*
X117626000Y-136882250D02*
G01*
X116024000Y-136882250D01*
X116024000Y-128230250D01*
X117626000Y-128230250D01*
X117626000Y-136882250D01*
X117626000Y-136882250D01*
G37*
G36*
X135706104Y-133284597D02*
G01*
X135742644Y-133295682D01*
X135776321Y-133313683D01*
X135805841Y-133337909D01*
X135830067Y-133367429D01*
X135848068Y-133401106D01*
X135859153Y-133437646D01*
X135863500Y-133481788D01*
X135863500Y-134430712D01*
X135859153Y-134474854D01*
X135848068Y-134511394D01*
X135830067Y-134545071D01*
X135805841Y-134574591D01*
X135776321Y-134598817D01*
X135742644Y-134616818D01*
X135706104Y-134627903D01*
X135661962Y-134632250D01*
X134213038Y-134632250D01*
X134168896Y-134627903D01*
X134132356Y-134616818D01*
X134098679Y-134598817D01*
X134069159Y-134574591D01*
X134044933Y-134545071D01*
X134026932Y-134511394D01*
X134015847Y-134474854D01*
X134011500Y-134430712D01*
X134011500Y-133481788D01*
X134015847Y-133437646D01*
X134026932Y-133401106D01*
X134044933Y-133367429D01*
X134069159Y-133337909D01*
X134098679Y-133313683D01*
X134132356Y-133295682D01*
X134168896Y-133284597D01*
X134213038Y-133280250D01*
X135661962Y-133280250D01*
X135706104Y-133284597D01*
X135706104Y-133284597D01*
G37*
G36*
X121742468Y-131848565D02*
G01*
X121781138Y-131860296D01*
X121816777Y-131879346D01*
X121848017Y-131904983D01*
X121873654Y-131936223D01*
X121892704Y-131971862D01*
X121904435Y-132010532D01*
X121909000Y-132056888D01*
X121909000Y-132708112D01*
X121904435Y-132754468D01*
X121892704Y-132793138D01*
X121873654Y-132828777D01*
X121848017Y-132860017D01*
X121816777Y-132885654D01*
X121781138Y-132904704D01*
X121742468Y-132916435D01*
X121696112Y-132921000D01*
X120619888Y-132921000D01*
X120573532Y-132916435D01*
X120534862Y-132904704D01*
X120499223Y-132885654D01*
X120467983Y-132860017D01*
X120442346Y-132828777D01*
X120423296Y-132793138D01*
X120411565Y-132754468D01*
X120407000Y-132708112D01*
X120407000Y-132056888D01*
X120411565Y-132010532D01*
X120423296Y-131971862D01*
X120442346Y-131936223D01*
X120467983Y-131904983D01*
X120499223Y-131879346D01*
X120534862Y-131860296D01*
X120573532Y-131848565D01*
X120619888Y-131844000D01*
X121696112Y-131844000D01*
X121742468Y-131848565D01*
X121742468Y-131848565D01*
G37*
G36*
X135706104Y-130484597D02*
G01*
X135742644Y-130495682D01*
X135776321Y-130513683D01*
X135805841Y-130537909D01*
X135830067Y-130567429D01*
X135848068Y-130601106D01*
X135859153Y-130637646D01*
X135863500Y-130681788D01*
X135863500Y-131630712D01*
X135859153Y-131674854D01*
X135848068Y-131711394D01*
X135830067Y-131745071D01*
X135805841Y-131774591D01*
X135776321Y-131798817D01*
X135742644Y-131816818D01*
X135706104Y-131827903D01*
X135661962Y-131832250D01*
X134213038Y-131832250D01*
X134168896Y-131827903D01*
X134132356Y-131816818D01*
X134098679Y-131798817D01*
X134069159Y-131774591D01*
X134044933Y-131745071D01*
X134026932Y-131711394D01*
X134015847Y-131674854D01*
X134011500Y-131630712D01*
X134011500Y-130681788D01*
X134015847Y-130637646D01*
X134026932Y-130601106D01*
X134044933Y-130567429D01*
X134069159Y-130537909D01*
X134098679Y-130513683D01*
X134132356Y-130495682D01*
X134168896Y-130484597D01*
X134213038Y-130480250D01*
X135661962Y-130480250D01*
X135706104Y-130484597D01*
X135706104Y-130484597D01*
G37*
G36*
X121742468Y-129973565D02*
G01*
X121781138Y-129985296D01*
X121816777Y-130004346D01*
X121848017Y-130029983D01*
X121873654Y-130061223D01*
X121892704Y-130096862D01*
X121904435Y-130135532D01*
X121909000Y-130181888D01*
X121909000Y-130833112D01*
X121904435Y-130879468D01*
X121892704Y-130918138D01*
X121873654Y-130953777D01*
X121848017Y-130985017D01*
X121816777Y-131010654D01*
X121781138Y-131029704D01*
X121742468Y-131041435D01*
X121696112Y-131046000D01*
X120619888Y-131046000D01*
X120573532Y-131041435D01*
X120534862Y-131029704D01*
X120499223Y-131010654D01*
X120467983Y-130985017D01*
X120442346Y-130953777D01*
X120423296Y-130918138D01*
X120411565Y-130879468D01*
X120407000Y-130833112D01*
X120407000Y-130181888D01*
X120411565Y-130135532D01*
X120423296Y-130096862D01*
X120442346Y-130061223D01*
X120467983Y-130029983D01*
X120499223Y-130004346D01*
X120534862Y-129985296D01*
X120573532Y-129973565D01*
X120619888Y-129969000D01*
X121696112Y-129969000D01*
X121742468Y-129973565D01*
X121742468Y-129973565D01*
G37*
G36*
X102184468Y-129784815D02*
G01*
X102223138Y-129796546D01*
X102258777Y-129815596D01*
X102290017Y-129841233D01*
X102315654Y-129872473D01*
X102334704Y-129908112D01*
X102346435Y-129946782D01*
X102351000Y-129993138D01*
X102351000Y-130644362D01*
X102346435Y-130690718D01*
X102334704Y-130729388D01*
X102315654Y-130765027D01*
X102290017Y-130796267D01*
X102258777Y-130821904D01*
X102223138Y-130840954D01*
X102184468Y-130852685D01*
X102138112Y-130857250D01*
X101061888Y-130857250D01*
X101015532Y-130852685D01*
X100976862Y-130840954D01*
X100941223Y-130821904D01*
X100909983Y-130796267D01*
X100884346Y-130765027D01*
X100865296Y-130729388D01*
X100853565Y-130690718D01*
X100849000Y-130644362D01*
X100849000Y-129993138D01*
X100853565Y-129946782D01*
X100865296Y-129908112D01*
X100884346Y-129872473D01*
X100909983Y-129841233D01*
X100941223Y-129815596D01*
X100976862Y-129796546D01*
X101015532Y-129784815D01*
X101061888Y-129780250D01*
X102138112Y-129780250D01*
X102184468Y-129784815D01*
X102184468Y-129784815D01*
G37*
G36*
X102184468Y-127909815D02*
G01*
X102223138Y-127921546D01*
X102258777Y-127940596D01*
X102290017Y-127966233D01*
X102315654Y-127997473D01*
X102334704Y-128033112D01*
X102346435Y-128071782D01*
X102351000Y-128118138D01*
X102351000Y-128769362D01*
X102346435Y-128815718D01*
X102334704Y-128854388D01*
X102315654Y-128890027D01*
X102290017Y-128921267D01*
X102258777Y-128946904D01*
X102223138Y-128965954D01*
X102184468Y-128977685D01*
X102138112Y-128982250D01*
X101061888Y-128982250D01*
X101015532Y-128977685D01*
X100976862Y-128965954D01*
X100941223Y-128946904D01*
X100909983Y-128921267D01*
X100884346Y-128890027D01*
X100865296Y-128854388D01*
X100853565Y-128815718D01*
X100849000Y-128769362D01*
X100849000Y-128118138D01*
X100853565Y-128071782D01*
X100865296Y-128033112D01*
X100884346Y-127997473D01*
X100909983Y-127966233D01*
X100941223Y-127940596D01*
X100976862Y-127921546D01*
X101015532Y-127909815D01*
X101061888Y-127905250D01*
X102138112Y-127905250D01*
X102184468Y-127909815D01*
X102184468Y-127909815D01*
G37*
G36*
X115451000Y-127657250D02*
G01*
X106799000Y-127657250D01*
X106799000Y-126055250D01*
X115451000Y-126055250D01*
X115451000Y-127657250D01*
X115451000Y-127657250D01*
G37*
G36*
X130410218Y-126038315D02*
G01*
X130448888Y-126050046D01*
X130484527Y-126069096D01*
X130515767Y-126094733D01*
X130541404Y-126125973D01*
X130560454Y-126161612D01*
X130572185Y-126200282D01*
X130576750Y-126246638D01*
X130576750Y-126897862D01*
X130572185Y-126944218D01*
X130560454Y-126982888D01*
X130541404Y-127018527D01*
X130515767Y-127049767D01*
X130484527Y-127075404D01*
X130448888Y-127094454D01*
X130410218Y-127106185D01*
X130363862Y-127110750D01*
X129287638Y-127110750D01*
X129241282Y-127106185D01*
X129202612Y-127094454D01*
X129166973Y-127075404D01*
X129135733Y-127049767D01*
X129110096Y-127018527D01*
X129091046Y-126982888D01*
X129079315Y-126944218D01*
X129074750Y-126897862D01*
X129074750Y-126246638D01*
X129079315Y-126200282D01*
X129091046Y-126161612D01*
X129110096Y-126125973D01*
X129135733Y-126094733D01*
X129166973Y-126069096D01*
X129202612Y-126050046D01*
X129241282Y-126038315D01*
X129287638Y-126033750D01*
X130363862Y-126033750D01*
X130410218Y-126038315D01*
X130410218Y-126038315D01*
G37*
G36*
X133299468Y-125879565D02*
G01*
X133338138Y-125891296D01*
X133373777Y-125910346D01*
X133405017Y-125935983D01*
X133430654Y-125967223D01*
X133449704Y-126002862D01*
X133461435Y-126041532D01*
X133466000Y-126087888D01*
X133466000Y-126739112D01*
X133461435Y-126785468D01*
X133449704Y-126824138D01*
X133430654Y-126859777D01*
X133405017Y-126891017D01*
X133373777Y-126916654D01*
X133338138Y-126935704D01*
X133299468Y-126947435D01*
X133253112Y-126952000D01*
X132176888Y-126952000D01*
X132130532Y-126947435D01*
X132091862Y-126935704D01*
X132056223Y-126916654D01*
X132024983Y-126891017D01*
X131999346Y-126859777D01*
X131980296Y-126824138D01*
X131968565Y-126785468D01*
X131964000Y-126739112D01*
X131964000Y-126087888D01*
X131968565Y-126041532D01*
X131980296Y-126002862D01*
X131999346Y-125967223D01*
X132024983Y-125935983D01*
X132056223Y-125910346D01*
X132091862Y-125891296D01*
X132130532Y-125879565D01*
X132176888Y-125875000D01*
X133253112Y-125875000D01*
X133299468Y-125879565D01*
X133299468Y-125879565D01*
G37*
G36*
X122440968Y-124514315D02*
G01*
X122479638Y-124526046D01*
X122515277Y-124545096D01*
X122546517Y-124570733D01*
X122572154Y-124601973D01*
X122591204Y-124637612D01*
X122602935Y-124676282D01*
X122607500Y-124722638D01*
X122607500Y-125373862D01*
X122602935Y-125420218D01*
X122591204Y-125458888D01*
X122572154Y-125494527D01*
X122546517Y-125525767D01*
X122515277Y-125551404D01*
X122479638Y-125570454D01*
X122440968Y-125582185D01*
X122394612Y-125586750D01*
X121318388Y-125586750D01*
X121272032Y-125582185D01*
X121233362Y-125570454D01*
X121197723Y-125551404D01*
X121166483Y-125525767D01*
X121140846Y-125494527D01*
X121121796Y-125458888D01*
X121110065Y-125420218D01*
X121105500Y-125373862D01*
X121105500Y-124722638D01*
X121110065Y-124676282D01*
X121121796Y-124637612D01*
X121140846Y-124601973D01*
X121166483Y-124570733D01*
X121197723Y-124545096D01*
X121233362Y-124526046D01*
X121272032Y-124514315D01*
X121318388Y-124509750D01*
X122394612Y-124509750D01*
X122440968Y-124514315D01*
X122440968Y-124514315D01*
G37*
G36*
X119265968Y-124514315D02*
G01*
X119304638Y-124526046D01*
X119340277Y-124545096D01*
X119371517Y-124570733D01*
X119397154Y-124601973D01*
X119416204Y-124637612D01*
X119427935Y-124676282D01*
X119432500Y-124722638D01*
X119432500Y-125373862D01*
X119427935Y-125420218D01*
X119416204Y-125458888D01*
X119397154Y-125494527D01*
X119371517Y-125525767D01*
X119340277Y-125551404D01*
X119304638Y-125570454D01*
X119265968Y-125582185D01*
X119219612Y-125586750D01*
X118143388Y-125586750D01*
X118097032Y-125582185D01*
X118058362Y-125570454D01*
X118022723Y-125551404D01*
X117991483Y-125525767D01*
X117965846Y-125494527D01*
X117946796Y-125458888D01*
X117935065Y-125420218D01*
X117930500Y-125373862D01*
X117930500Y-124722638D01*
X117935065Y-124676282D01*
X117946796Y-124637612D01*
X117965846Y-124601973D01*
X117991483Y-124570733D01*
X118022723Y-124545096D01*
X118058362Y-124526046D01*
X118097032Y-124514315D01*
X118143388Y-124509750D01*
X119219612Y-124509750D01*
X119265968Y-124514315D01*
X119265968Y-124514315D01*
G37*
G36*
X130410218Y-124163315D02*
G01*
X130448888Y-124175046D01*
X130484527Y-124194096D01*
X130515767Y-124219733D01*
X130541404Y-124250973D01*
X130560454Y-124286612D01*
X130572185Y-124325282D01*
X130576750Y-124371638D01*
X130576750Y-125022862D01*
X130572185Y-125069218D01*
X130560454Y-125107888D01*
X130541404Y-125143527D01*
X130515767Y-125174767D01*
X130484527Y-125200404D01*
X130448888Y-125219454D01*
X130410218Y-125231185D01*
X130363862Y-125235750D01*
X129287638Y-125235750D01*
X129241282Y-125231185D01*
X129202612Y-125219454D01*
X129166973Y-125200404D01*
X129135733Y-125174767D01*
X129110096Y-125143527D01*
X129091046Y-125107888D01*
X129079315Y-125069218D01*
X129074750Y-125022862D01*
X129074750Y-124371638D01*
X129079315Y-124325282D01*
X129091046Y-124286612D01*
X129110096Y-124250973D01*
X129135733Y-124219733D01*
X129166973Y-124194096D01*
X129202612Y-124175046D01*
X129241282Y-124163315D01*
X129287638Y-124158750D01*
X130363862Y-124158750D01*
X130410218Y-124163315D01*
X130410218Y-124163315D01*
G37*
G36*
X95107250Y-125182250D02*
G01*
X93805250Y-125182250D01*
X93805250Y-124180250D01*
X95107250Y-124180250D01*
X95107250Y-125182250D01*
X95107250Y-125182250D01*
G37*
G36*
X76057250Y-125182250D02*
G01*
X74755250Y-125182250D01*
X74755250Y-124180250D01*
X76057250Y-124180250D01*
X76057250Y-125182250D01*
X76057250Y-125182250D01*
G37*
G36*
X133299468Y-124004565D02*
G01*
X133338138Y-124016296D01*
X133373777Y-124035346D01*
X133405017Y-124060983D01*
X133430654Y-124092223D01*
X133449704Y-124127862D01*
X133461435Y-124166532D01*
X133466000Y-124212888D01*
X133466000Y-124864112D01*
X133461435Y-124910468D01*
X133449704Y-124949138D01*
X133430654Y-124984777D01*
X133405017Y-125016017D01*
X133373777Y-125041654D01*
X133338138Y-125060704D01*
X133299468Y-125072435D01*
X133253112Y-125077000D01*
X132176888Y-125077000D01*
X132130532Y-125072435D01*
X132091862Y-125060704D01*
X132056223Y-125041654D01*
X132024983Y-125016017D01*
X131999346Y-124984777D01*
X131980296Y-124949138D01*
X131968565Y-124910468D01*
X131964000Y-124864112D01*
X131964000Y-124212888D01*
X131968565Y-124166532D01*
X131980296Y-124127862D01*
X131999346Y-124092223D01*
X132024983Y-124060983D01*
X132056223Y-124035346D01*
X132091862Y-124016296D01*
X132130532Y-124004565D01*
X132176888Y-124000000D01*
X133253112Y-124000000D01*
X133299468Y-124004565D01*
X133299468Y-124004565D01*
G37*
G36*
X87115224Y-121064934D02*
G01*
X87333224Y-121155233D01*
X87487373Y-121219083D01*
X87822298Y-121442873D01*
X88107127Y-121727702D01*
X88330917Y-122062627D01*
X88363312Y-122140836D01*
X88485066Y-122434776D01*
X88563650Y-122829844D01*
X88563650Y-123232656D01*
X88485066Y-123627724D01*
X88434201Y-123750522D01*
X88330917Y-123999873D01*
X88107127Y-124334798D01*
X87822298Y-124619627D01*
X87487373Y-124843417D01*
X87333224Y-124907267D01*
X87115224Y-124997566D01*
X86720156Y-125076150D01*
X86317344Y-125076150D01*
X85922276Y-124997566D01*
X85704276Y-124907267D01*
X85550127Y-124843417D01*
X85215202Y-124619627D01*
X84930373Y-124334798D01*
X84706583Y-123999873D01*
X84603299Y-123750522D01*
X84552434Y-123627724D01*
X84473850Y-123232656D01*
X84473850Y-122829844D01*
X84552434Y-122434776D01*
X84674188Y-122140836D01*
X84706583Y-122062627D01*
X84930373Y-121727702D01*
X85215202Y-121442873D01*
X85550127Y-121219083D01*
X85704276Y-121155233D01*
X85922276Y-121064934D01*
X86317344Y-120986350D01*
X86720156Y-120986350D01*
X87115224Y-121064934D01*
X87115224Y-121064934D01*
G37*
G36*
X68065224Y-121064934D02*
G01*
X68283224Y-121155233D01*
X68437373Y-121219083D01*
X68772298Y-121442873D01*
X69057127Y-121727702D01*
X69280917Y-122062627D01*
X69313312Y-122140836D01*
X69435066Y-122434776D01*
X69513650Y-122829844D01*
X69513650Y-123232656D01*
X69435066Y-123627724D01*
X69384201Y-123750522D01*
X69280917Y-123999873D01*
X69057127Y-124334798D01*
X68772298Y-124619627D01*
X68437373Y-124843417D01*
X68283224Y-124907267D01*
X68065224Y-124997566D01*
X67670156Y-125076150D01*
X67267344Y-125076150D01*
X66872276Y-124997566D01*
X66654276Y-124907267D01*
X66500127Y-124843417D01*
X66165202Y-124619627D01*
X65880373Y-124334798D01*
X65656583Y-123999873D01*
X65553299Y-123750522D01*
X65502434Y-123627724D01*
X65423850Y-123232656D01*
X65423850Y-122829844D01*
X65502434Y-122434776D01*
X65624188Y-122140836D01*
X65656583Y-122062627D01*
X65880373Y-121727702D01*
X66165202Y-121442873D01*
X66500127Y-121219083D01*
X66654276Y-121155233D01*
X66872276Y-121064934D01*
X67267344Y-120986350D01*
X67670156Y-120986350D01*
X68065224Y-121064934D01*
X68065224Y-121064934D01*
G37*
G36*
X72818854Y-122140835D02*
G01*
X72987376Y-122210639D01*
X73139041Y-122311978D01*
X73268022Y-122440959D01*
X73369361Y-122592624D01*
X73439165Y-122761146D01*
X73474750Y-122940047D01*
X73474750Y-123122453D01*
X73439165Y-123301354D01*
X73369361Y-123469876D01*
X73268022Y-123621541D01*
X73139041Y-123750522D01*
X72987376Y-123851861D01*
X72818854Y-123921665D01*
X72639953Y-123957250D01*
X72457547Y-123957250D01*
X72278646Y-123921665D01*
X72110124Y-123851861D01*
X71958459Y-123750522D01*
X71829478Y-123621541D01*
X71728139Y-123469876D01*
X71658335Y-123301354D01*
X71622750Y-123122453D01*
X71622750Y-122940047D01*
X71658335Y-122761146D01*
X71728139Y-122592624D01*
X71829478Y-122440959D01*
X71958459Y-122311978D01*
X72110124Y-122210639D01*
X72278646Y-122140835D01*
X72457547Y-122105250D01*
X72639953Y-122105250D01*
X72818854Y-122140835D01*
X72818854Y-122140835D01*
G37*
G36*
X62658854Y-122140835D02*
G01*
X62827376Y-122210639D01*
X62979041Y-122311978D01*
X63108022Y-122440959D01*
X63209361Y-122592624D01*
X63279165Y-122761146D01*
X63314750Y-122940047D01*
X63314750Y-123122453D01*
X63279165Y-123301354D01*
X63209361Y-123469876D01*
X63108022Y-123621541D01*
X62979041Y-123750522D01*
X62827376Y-123851861D01*
X62658854Y-123921665D01*
X62479953Y-123957250D01*
X62297547Y-123957250D01*
X62118646Y-123921665D01*
X61950124Y-123851861D01*
X61798459Y-123750522D01*
X61669478Y-123621541D01*
X61568139Y-123469876D01*
X61498335Y-123301354D01*
X61462750Y-123122453D01*
X61462750Y-122940047D01*
X61498335Y-122761146D01*
X61568139Y-122592624D01*
X61669478Y-122440959D01*
X61798459Y-122311978D01*
X61950124Y-122210639D01*
X62118646Y-122140835D01*
X62297547Y-122105250D01*
X62479953Y-122105250D01*
X62658854Y-122140835D01*
X62658854Y-122140835D01*
G37*
G36*
X81708854Y-122140835D02*
G01*
X81877376Y-122210639D01*
X82029041Y-122311978D01*
X82158022Y-122440959D01*
X82259361Y-122592624D01*
X82329165Y-122761146D01*
X82364750Y-122940047D01*
X82364750Y-123122453D01*
X82329165Y-123301354D01*
X82259361Y-123469876D01*
X82158022Y-123621541D01*
X82029041Y-123750522D01*
X81877376Y-123851861D01*
X81708854Y-123921665D01*
X81529953Y-123957250D01*
X81347547Y-123957250D01*
X81168646Y-123921665D01*
X81000124Y-123851861D01*
X80848459Y-123750522D01*
X80719478Y-123621541D01*
X80618139Y-123469876D01*
X80548335Y-123301354D01*
X80512750Y-123122453D01*
X80512750Y-122940047D01*
X80548335Y-122761146D01*
X80618139Y-122592624D01*
X80719478Y-122440959D01*
X80848459Y-122311978D01*
X81000124Y-122210639D01*
X81168646Y-122140835D01*
X81347547Y-122105250D01*
X81529953Y-122105250D01*
X81708854Y-122140835D01*
X81708854Y-122140835D01*
G37*
G36*
X91868854Y-122140835D02*
G01*
X92037376Y-122210639D01*
X92189041Y-122311978D01*
X92318022Y-122440959D01*
X92419361Y-122592624D01*
X92489165Y-122761146D01*
X92524750Y-122940047D01*
X92524750Y-123122453D01*
X92489165Y-123301354D01*
X92419361Y-123469876D01*
X92318022Y-123621541D01*
X92189041Y-123750522D01*
X92037376Y-123851861D01*
X91868854Y-123921665D01*
X91689953Y-123957250D01*
X91507547Y-123957250D01*
X91328646Y-123921665D01*
X91160124Y-123851861D01*
X91008459Y-123750522D01*
X90879478Y-123621541D01*
X90778139Y-123469876D01*
X90708335Y-123301354D01*
X90672750Y-123122453D01*
X90672750Y-122940047D01*
X90708335Y-122761146D01*
X90778139Y-122592624D01*
X90879478Y-122440959D01*
X91008459Y-122311978D01*
X91160124Y-122210639D01*
X91328646Y-122140835D01*
X91507547Y-122105250D01*
X91689953Y-122105250D01*
X91868854Y-122140835D01*
X91868854Y-122140835D01*
G37*
G36*
X122440968Y-122639315D02*
G01*
X122479638Y-122651046D01*
X122515277Y-122670096D01*
X122546517Y-122695733D01*
X122572154Y-122726973D01*
X122591204Y-122762612D01*
X122602935Y-122801282D01*
X122607500Y-122847638D01*
X122607500Y-123498862D01*
X122602935Y-123545218D01*
X122591204Y-123583888D01*
X122572154Y-123619527D01*
X122546517Y-123650767D01*
X122515277Y-123676404D01*
X122479638Y-123695454D01*
X122440968Y-123707185D01*
X122394612Y-123711750D01*
X121318388Y-123711750D01*
X121272032Y-123707185D01*
X121233362Y-123695454D01*
X121197723Y-123676404D01*
X121166483Y-123650767D01*
X121140846Y-123619527D01*
X121121796Y-123583888D01*
X121110065Y-123545218D01*
X121105500Y-123498862D01*
X121105500Y-122847638D01*
X121110065Y-122801282D01*
X121121796Y-122762612D01*
X121140846Y-122726973D01*
X121166483Y-122695733D01*
X121197723Y-122670096D01*
X121233362Y-122651046D01*
X121272032Y-122639315D01*
X121318388Y-122634750D01*
X122394612Y-122634750D01*
X122440968Y-122639315D01*
X122440968Y-122639315D01*
G37*
G36*
X119265968Y-122639315D02*
G01*
X119304638Y-122651046D01*
X119340277Y-122670096D01*
X119371517Y-122695733D01*
X119397154Y-122726973D01*
X119416204Y-122762612D01*
X119427935Y-122801282D01*
X119432500Y-122847638D01*
X119432500Y-123498862D01*
X119427935Y-123545218D01*
X119416204Y-123583888D01*
X119397154Y-123619527D01*
X119371517Y-123650767D01*
X119340277Y-123676404D01*
X119304638Y-123695454D01*
X119265968Y-123707185D01*
X119219612Y-123711750D01*
X118143388Y-123711750D01*
X118097032Y-123707185D01*
X118058362Y-123695454D01*
X118022723Y-123676404D01*
X117991483Y-123650767D01*
X117965846Y-123619527D01*
X117946796Y-123583888D01*
X117935065Y-123545218D01*
X117930500Y-123498862D01*
X117930500Y-122847638D01*
X117935065Y-122801282D01*
X117946796Y-122762612D01*
X117965846Y-122726973D01*
X117991483Y-122695733D01*
X118022723Y-122670096D01*
X118058362Y-122651046D01*
X118097032Y-122639315D01*
X118143388Y-122634750D01*
X119219612Y-122634750D01*
X119265968Y-122639315D01*
X119265968Y-122639315D01*
G37*
G36*
X76057250Y-121882250D02*
G01*
X74755250Y-121882250D01*
X74755250Y-120880250D01*
X76057250Y-120880250D01*
X76057250Y-121882250D01*
X76057250Y-121882250D01*
G37*
G36*
X95107250Y-121882250D02*
G01*
X93805250Y-121882250D01*
X93805250Y-120880250D01*
X95107250Y-120880250D01*
X95107250Y-121882250D01*
X95107250Y-121882250D01*
G37*
G36*
X134795377Y-118205787D02*
G01*
X134965216Y-118257307D01*
X135121741Y-118340972D01*
X135157072Y-118369968D01*
X135258936Y-118453564D01*
X135342198Y-118555021D01*
X135371528Y-118590759D01*
X135455193Y-118747284D01*
X135506713Y-118917123D01*
X135519750Y-119049492D01*
X135519750Y-120138008D01*
X135506713Y-120270377D01*
X135455193Y-120440216D01*
X135371528Y-120596741D01*
X135342198Y-120632479D01*
X135258936Y-120733936D01*
X135121739Y-120846529D01*
X134965217Y-120930192D01*
X134965215Y-120930193D01*
X134795376Y-120981713D01*
X134618750Y-120999109D01*
X134442123Y-120981713D01*
X134272284Y-120930193D01*
X134115759Y-120846528D01*
X134080021Y-120817198D01*
X133978564Y-120733936D01*
X133865971Y-120596739D01*
X133782308Y-120440217D01*
X133781180Y-120436500D01*
X133730787Y-120270376D01*
X133717750Y-120138007D01*
X133717751Y-119049492D01*
X133730788Y-118917123D01*
X133782308Y-118747284D01*
X133865973Y-118590759D01*
X133895303Y-118555021D01*
X133978565Y-118453564D01*
X134080429Y-118369968D01*
X134115760Y-118340972D01*
X134272285Y-118257307D01*
X134442124Y-118205787D01*
X134618750Y-118188391D01*
X134795377Y-118205787D01*
X134795377Y-118205787D01*
G37*
G36*
X127495377Y-118205787D02*
G01*
X127665216Y-118257307D01*
X127821741Y-118340972D01*
X127857072Y-118369968D01*
X127958936Y-118453564D01*
X128042198Y-118555021D01*
X128071528Y-118590759D01*
X128155193Y-118747284D01*
X128206713Y-118917123D01*
X128219750Y-119049492D01*
X128219750Y-120138008D01*
X128206713Y-120270377D01*
X128155193Y-120440216D01*
X128071528Y-120596741D01*
X128042198Y-120632479D01*
X127958936Y-120733936D01*
X127821739Y-120846529D01*
X127665217Y-120930192D01*
X127665215Y-120930193D01*
X127495376Y-120981713D01*
X127318750Y-120999109D01*
X127142123Y-120981713D01*
X126972284Y-120930193D01*
X126815759Y-120846528D01*
X126780021Y-120817198D01*
X126678564Y-120733936D01*
X126565971Y-120596739D01*
X126482308Y-120440217D01*
X126481180Y-120436500D01*
X126430787Y-120270376D01*
X126417750Y-120138007D01*
X126417751Y-119049492D01*
X126430788Y-118917123D01*
X126482308Y-118747284D01*
X126565973Y-118590759D01*
X126595303Y-118555021D01*
X126678565Y-118453564D01*
X126780429Y-118369968D01*
X126815760Y-118340972D01*
X126972285Y-118257307D01*
X127142124Y-118205787D01*
X127318750Y-118188391D01*
X127495377Y-118205787D01*
X127495377Y-118205787D01*
G37*
G36*
X132869750Y-120769750D02*
G01*
X129067750Y-120769750D01*
X129067750Y-118417750D01*
X132869750Y-118417750D01*
X132869750Y-120769750D01*
X132869750Y-120769750D01*
G37*
G36*
X110649000Y-120436500D02*
G01*
X109147000Y-120436500D01*
X109147000Y-119134500D01*
X110649000Y-119134500D01*
X110649000Y-120436500D01*
X110649000Y-120436500D01*
G37*
G36*
X112849000Y-120436500D02*
G01*
X111347000Y-120436500D01*
X111347000Y-119134500D01*
X112849000Y-119134500D01*
X112849000Y-120436500D01*
X112849000Y-120436500D01*
G37*
G36*
X116344968Y-119339065D02*
G01*
X116383638Y-119350796D01*
X116419277Y-119369846D01*
X116450517Y-119395483D01*
X116476154Y-119426723D01*
X116495204Y-119462362D01*
X116506935Y-119501032D01*
X116511500Y-119547388D01*
X116511500Y-120198612D01*
X116506935Y-120244968D01*
X116495204Y-120283638D01*
X116476154Y-120319277D01*
X116450517Y-120350517D01*
X116419277Y-120376154D01*
X116383638Y-120395204D01*
X116344968Y-120406935D01*
X116298612Y-120411500D01*
X115222388Y-120411500D01*
X115176032Y-120406935D01*
X115137362Y-120395204D01*
X115101723Y-120376154D01*
X115070483Y-120350517D01*
X115044846Y-120319277D01*
X115025796Y-120283638D01*
X115014065Y-120244968D01*
X115009500Y-120198612D01*
X115009500Y-119547388D01*
X115014065Y-119501032D01*
X115025796Y-119462362D01*
X115044846Y-119426723D01*
X115070483Y-119395483D01*
X115101723Y-119369846D01*
X115137362Y-119350796D01*
X115176032Y-119339065D01*
X115222388Y-119334500D01*
X116298612Y-119334500D01*
X116344968Y-119339065D01*
X116344968Y-119339065D01*
G37*
G36*
X106819968Y-119339065D02*
G01*
X106858638Y-119350796D01*
X106894277Y-119369846D01*
X106925517Y-119395483D01*
X106951154Y-119426723D01*
X106970204Y-119462362D01*
X106981935Y-119501032D01*
X106986500Y-119547388D01*
X106986500Y-120198612D01*
X106981935Y-120244968D01*
X106970204Y-120283638D01*
X106951154Y-120319277D01*
X106925517Y-120350517D01*
X106894277Y-120376154D01*
X106858638Y-120395204D01*
X106819968Y-120406935D01*
X106773612Y-120411500D01*
X105697388Y-120411500D01*
X105651032Y-120406935D01*
X105612362Y-120395204D01*
X105576723Y-120376154D01*
X105545483Y-120350517D01*
X105519846Y-120319277D01*
X105500796Y-120283638D01*
X105489065Y-120244968D01*
X105484500Y-120198612D01*
X105484500Y-119547388D01*
X105489065Y-119501032D01*
X105500796Y-119462362D01*
X105519846Y-119426723D01*
X105545483Y-119395483D01*
X105576723Y-119369846D01*
X105612362Y-119350796D01*
X105651032Y-119339065D01*
X105697388Y-119334500D01*
X106773612Y-119334500D01*
X106819968Y-119339065D01*
X106819968Y-119339065D01*
G37*
G36*
X112849000Y-118736500D02*
G01*
X111347000Y-118736500D01*
X111347000Y-117434500D01*
X112849000Y-117434500D01*
X112849000Y-118736500D01*
X112849000Y-118736500D01*
G37*
G36*
X110649000Y-118736500D02*
G01*
X109147000Y-118736500D01*
X109147000Y-117434500D01*
X110649000Y-117434500D01*
X110649000Y-118736500D01*
X110649000Y-118736500D01*
G37*
G36*
X106819968Y-117464065D02*
G01*
X106858638Y-117475796D01*
X106894277Y-117494846D01*
X106925517Y-117520483D01*
X106951154Y-117551723D01*
X106970204Y-117587362D01*
X106981935Y-117626032D01*
X106986500Y-117672388D01*
X106986500Y-118323612D01*
X106981935Y-118369968D01*
X106970204Y-118408638D01*
X106951154Y-118444277D01*
X106925517Y-118475517D01*
X106894277Y-118501154D01*
X106858638Y-118520204D01*
X106819968Y-118531935D01*
X106773612Y-118536500D01*
X105697388Y-118536500D01*
X105651032Y-118531935D01*
X105612362Y-118520204D01*
X105576723Y-118501154D01*
X105545483Y-118475517D01*
X105519846Y-118444277D01*
X105500796Y-118408638D01*
X105489065Y-118369968D01*
X105484500Y-118323612D01*
X105484500Y-117672388D01*
X105489065Y-117626032D01*
X105500796Y-117587362D01*
X105519846Y-117551723D01*
X105545483Y-117520483D01*
X105576723Y-117494846D01*
X105612362Y-117475796D01*
X105651032Y-117464065D01*
X105697388Y-117459500D01*
X106773612Y-117459500D01*
X106819968Y-117464065D01*
X106819968Y-117464065D01*
G37*
G36*
X116344968Y-117464065D02*
G01*
X116383638Y-117475796D01*
X116419277Y-117494846D01*
X116450517Y-117520483D01*
X116476154Y-117551723D01*
X116495204Y-117587362D01*
X116506935Y-117626032D01*
X116511500Y-117672388D01*
X116511500Y-118323612D01*
X116506935Y-118369968D01*
X116495204Y-118408638D01*
X116476154Y-118444277D01*
X116450517Y-118475517D01*
X116419277Y-118501154D01*
X116383638Y-118520204D01*
X116344968Y-118531935D01*
X116298612Y-118536500D01*
X115222388Y-118536500D01*
X115176032Y-118531935D01*
X115137362Y-118520204D01*
X115101723Y-118501154D01*
X115070483Y-118475517D01*
X115044846Y-118444277D01*
X115025796Y-118408638D01*
X115014065Y-118369968D01*
X115009500Y-118323612D01*
X115009500Y-117672388D01*
X115014065Y-117626032D01*
X115025796Y-117587362D01*
X115044846Y-117551723D01*
X115070483Y-117520483D01*
X115101723Y-117494846D01*
X115137362Y-117475796D01*
X115176032Y-117464065D01*
X115222388Y-117459500D01*
X116298612Y-117459500D01*
X116344968Y-117464065D01*
X116344968Y-117464065D01*
G37*
G36*
X127495377Y-113705787D02*
G01*
X127665216Y-113757307D01*
X127821741Y-113840972D01*
X127857479Y-113870302D01*
X127958936Y-113953564D01*
X128042198Y-114055021D01*
X128071528Y-114090759D01*
X128155193Y-114247284D01*
X128206713Y-114417123D01*
X128219750Y-114549492D01*
X128219750Y-115638008D01*
X128206713Y-115770377D01*
X128155193Y-115940216D01*
X128071528Y-116096741D01*
X128042198Y-116132479D01*
X127958936Y-116233936D01*
X127821739Y-116346529D01*
X127665217Y-116430192D01*
X127665215Y-116430193D01*
X127495376Y-116481713D01*
X127318750Y-116499109D01*
X127142123Y-116481713D01*
X126972284Y-116430193D01*
X126815759Y-116346528D01*
X126780021Y-116317198D01*
X126678564Y-116233936D01*
X126565971Y-116096739D01*
X126482308Y-115940217D01*
X126482307Y-115940215D01*
X126430787Y-115770376D01*
X126417750Y-115638007D01*
X126417751Y-114549492D01*
X126430788Y-114417123D01*
X126482308Y-114247284D01*
X126565973Y-114090759D01*
X126595303Y-114055021D01*
X126678565Y-113953564D01*
X126780022Y-113870302D01*
X126815760Y-113840972D01*
X126972285Y-113757307D01*
X127142124Y-113705787D01*
X127318750Y-113688391D01*
X127495377Y-113705787D01*
X127495377Y-113705787D01*
G37*
G36*
X134795377Y-113705787D02*
G01*
X134965216Y-113757307D01*
X135121741Y-113840972D01*
X135157479Y-113870302D01*
X135258936Y-113953564D01*
X135342198Y-114055021D01*
X135371528Y-114090759D01*
X135455193Y-114247284D01*
X135506713Y-114417123D01*
X135519750Y-114549492D01*
X135519750Y-115638008D01*
X135506713Y-115770377D01*
X135455193Y-115940216D01*
X135371528Y-116096741D01*
X135342198Y-116132479D01*
X135258936Y-116233936D01*
X135121739Y-116346529D01*
X134965217Y-116430192D01*
X134965215Y-116430193D01*
X134795376Y-116481713D01*
X134618750Y-116499109D01*
X134442123Y-116481713D01*
X134272284Y-116430193D01*
X134115759Y-116346528D01*
X134080021Y-116317198D01*
X133978564Y-116233936D01*
X133865971Y-116096739D01*
X133782308Y-115940217D01*
X133782307Y-115940215D01*
X133730787Y-115770376D01*
X133717750Y-115638007D01*
X133717751Y-114549492D01*
X133730788Y-114417123D01*
X133782308Y-114247284D01*
X133865973Y-114090759D01*
X133895303Y-114055021D01*
X133978565Y-113953564D01*
X134080022Y-113870302D01*
X134115760Y-113840972D01*
X134272285Y-113757307D01*
X134442124Y-113705787D01*
X134618750Y-113688391D01*
X134795377Y-113705787D01*
X134795377Y-113705787D01*
G37*
M02*
