G04 #@! TF.GenerationSoftware,KiCad,Pcbnew,(5.1.4)-1*
G04 #@! TF.CreationDate,2022-05-24T18:09:22-07:00*
G04 #@! TF.ProjectId,pcb-keyb-tut,7063622d-6b65-4796-922d-7475742e6b69,rev?*
G04 #@! TF.SameCoordinates,Original*
G04 #@! TF.FileFunction,Legend,Bot*
G04 #@! TF.FilePolarity,Positive*
%FSLAX46Y46*%
G04 Gerber Fmt 4.6, Leading zero omitted, Abs format (unit mm)*
G04 Created by KiCad (PCBNEW (5.1.4)-1) date 2022-05-24 18:09:22*
%MOMM*%
%LPD*%
G04 APERTURE LIST*
%ADD10C,2.352000*%
%ADD11C,2.352000*%
%ADD12C,4.089800*%
%ADD13C,2.007000*%
%ADD14R,2.007000X2.007000*%
%ADD15C,1.852000*%
%ADD16O,1.802000X2.802000*%
G04 APERTURE END LIST*
%LPC*%
D10*
X89047000Y-137251000D03*
D11*
X89027000Y-137541000D02*
X89067000Y-136961000D01*
D10*
X89067000Y-136961000D03*
X83372001Y-138771000D03*
D11*
X82717000Y-139501000D02*
X84027002Y-138041000D01*
D12*
X86527000Y-142041000D03*
D10*
X84027000Y-138041000D03*
D13*
X85257000Y-147121000D03*
D14*
X87797000Y-147121000D03*
D15*
X81447000Y-142041000D03*
X91607000Y-142041000D03*
D10*
X89038750Y-118241250D03*
D11*
X89018750Y-118531250D02*
X89058750Y-117951250D01*
D10*
X89058750Y-117951250D03*
X83363751Y-119761250D03*
D11*
X82708750Y-120491250D02*
X84018752Y-119031250D01*
D12*
X86518750Y-123031250D03*
D10*
X84018750Y-119031250D03*
D13*
X85248750Y-128111250D03*
D14*
X87788750Y-128111250D03*
D15*
X81438750Y-123031250D03*
X91598750Y-123031250D03*
D10*
X69988750Y-137291250D03*
D11*
X69968750Y-137581250D02*
X70008750Y-137001250D01*
D10*
X70008750Y-137001250D03*
X64313751Y-138811250D03*
D11*
X63658750Y-139541250D02*
X64968752Y-138081250D01*
D12*
X67468750Y-142081250D03*
D10*
X64968750Y-138081250D03*
D13*
X66198750Y-147161250D03*
D14*
X68738750Y-147161250D03*
D15*
X62388750Y-142081250D03*
X72548750Y-142081250D03*
D10*
X69988750Y-118241250D03*
D11*
X69968750Y-118531250D02*
X70008750Y-117951250D01*
D10*
X70008750Y-117951250D03*
X64313751Y-119761250D03*
D11*
X63658750Y-120491250D02*
X64968752Y-119031250D01*
D12*
X67468750Y-123031250D03*
D10*
X64968750Y-119031250D03*
D13*
X66198750Y-128111250D03*
D14*
X68738750Y-128111250D03*
D15*
X62388750Y-123031250D03*
X72548750Y-123031250D03*
D16*
X134618750Y-119593750D03*
X127318750Y-119593750D03*
X127318750Y-115093750D03*
X134618750Y-115093750D03*
M02*
