G04 #@! TF.GenerationSoftware,KiCad,Pcbnew,(5.1.4)-1*
G04 #@! TF.CreationDate,2022-05-24T18:09:22-07:00*
G04 #@! TF.ProjectId,pcb-keyb-tut,7063622d-6b65-4796-922d-7475742e6b69,rev?*
G04 #@! TF.SameCoordinates,Original*
G04 #@! TF.FileFunction,Soldermask,Bot*
G04 #@! TF.FilePolarity,Negative*
%FSLAX46Y46*%
G04 Gerber Fmt 4.6, Leading zero omitted, Abs format (unit mm)*
G04 Created by KiCad (PCBNEW (5.1.4)-1) date 2022-05-24 18:09:22*
%MOMM*%
%LPD*%
G04 APERTURE LIST*
%ADD10C,0.100000*%
G04 APERTURE END LIST*
D10*
G36*
X69742250Y-148164750D02*
G01*
X67735250Y-148164750D01*
X67735250Y-146157750D01*
X69742250Y-146157750D01*
X69742250Y-148164750D01*
X69742250Y-148164750D01*
G37*
G36*
X66325175Y-146163238D02*
G01*
X66491460Y-146196313D01*
X66674086Y-146271959D01*
X66838444Y-146381780D01*
X66978220Y-146521556D01*
X67088041Y-146685914D01*
X67163687Y-146868540D01*
X67202250Y-147062414D01*
X67202250Y-147260086D01*
X67163687Y-147453960D01*
X67088041Y-147636586D01*
X66978220Y-147800944D01*
X66838444Y-147940720D01*
X66674086Y-148050541D01*
X66491460Y-148126187D01*
X66325175Y-148159262D01*
X66297587Y-148164750D01*
X66099913Y-148164750D01*
X66072325Y-148159262D01*
X65906040Y-148126187D01*
X65723414Y-148050541D01*
X65559056Y-147940720D01*
X65419280Y-147800944D01*
X65309459Y-147636586D01*
X65233813Y-147453960D01*
X65195250Y-147260086D01*
X65195250Y-147062414D01*
X65233813Y-146868540D01*
X65309459Y-146685914D01*
X65419280Y-146521556D01*
X65559056Y-146381780D01*
X65723414Y-146271959D01*
X65906040Y-146196313D01*
X66072325Y-146163238D01*
X66099913Y-146157750D01*
X66297587Y-146157750D01*
X66325175Y-146163238D01*
X66325175Y-146163238D01*
G37*
G36*
X88800500Y-148124500D02*
G01*
X86793500Y-148124500D01*
X86793500Y-146117500D01*
X88800500Y-146117500D01*
X88800500Y-148124500D01*
X88800500Y-148124500D01*
G37*
G36*
X85383425Y-146122988D02*
G01*
X85549710Y-146156063D01*
X85732336Y-146231709D01*
X85896694Y-146341530D01*
X86036470Y-146481306D01*
X86146291Y-146645664D01*
X86221937Y-146828290D01*
X86260500Y-147022164D01*
X86260500Y-147219836D01*
X86221937Y-147413710D01*
X86146291Y-147596336D01*
X86036470Y-147760694D01*
X85896694Y-147900470D01*
X85732336Y-148010291D01*
X85549710Y-148085937D01*
X85383425Y-148119012D01*
X85355837Y-148124500D01*
X85158163Y-148124500D01*
X85130575Y-148119012D01*
X84964290Y-148085937D01*
X84781664Y-148010291D01*
X84617306Y-147900470D01*
X84477530Y-147760694D01*
X84367709Y-147596336D01*
X84292063Y-147413710D01*
X84253500Y-147219836D01*
X84253500Y-147022164D01*
X84292063Y-146828290D01*
X84367709Y-146645664D01*
X84477530Y-146481306D01*
X84617306Y-146341530D01*
X84781664Y-146231709D01*
X84964290Y-146156063D01*
X85130575Y-146122988D01*
X85158163Y-146117500D01*
X85355837Y-146117500D01*
X85383425Y-146122988D01*
X85383425Y-146122988D01*
G37*
G36*
X68065224Y-140114934D02*
G01*
X68283224Y-140205233D01*
X68437373Y-140269083D01*
X68772298Y-140492873D01*
X69057127Y-140777702D01*
X69280917Y-141112627D01*
X69313312Y-141190836D01*
X69435066Y-141484776D01*
X69513650Y-141879844D01*
X69513650Y-142282656D01*
X69435066Y-142677724D01*
X69384201Y-142800522D01*
X69280917Y-143049873D01*
X69057127Y-143384798D01*
X68772298Y-143669627D01*
X68437373Y-143893417D01*
X68283224Y-143957267D01*
X68065224Y-144047566D01*
X67670156Y-144126150D01*
X67267344Y-144126150D01*
X66872276Y-144047566D01*
X66654276Y-143957267D01*
X66500127Y-143893417D01*
X66165202Y-143669627D01*
X65880373Y-143384798D01*
X65656583Y-143049873D01*
X65553299Y-142800522D01*
X65502434Y-142677724D01*
X65423850Y-142282656D01*
X65423850Y-141879844D01*
X65502434Y-141484776D01*
X65624188Y-141190836D01*
X65656583Y-141112627D01*
X65880373Y-140777702D01*
X66165202Y-140492873D01*
X66500127Y-140269083D01*
X66654276Y-140205233D01*
X66872276Y-140114934D01*
X67267344Y-140036350D01*
X67670156Y-140036350D01*
X68065224Y-140114934D01*
X68065224Y-140114934D01*
G37*
G36*
X87123474Y-140074684D02*
G01*
X87220648Y-140114935D01*
X87495623Y-140228833D01*
X87830548Y-140452623D01*
X88115377Y-140737452D01*
X88339167Y-141072377D01*
X88371562Y-141150586D01*
X88493316Y-141444526D01*
X88571900Y-141839594D01*
X88571900Y-142242406D01*
X88493316Y-142637474D01*
X88425779Y-142800522D01*
X88339167Y-143009623D01*
X88115377Y-143344548D01*
X87830548Y-143629377D01*
X87495623Y-143853167D01*
X87398450Y-143893417D01*
X87123474Y-144007316D01*
X86728406Y-144085900D01*
X86325594Y-144085900D01*
X85930526Y-144007316D01*
X85655550Y-143893417D01*
X85558377Y-143853167D01*
X85223452Y-143629377D01*
X84938623Y-143344548D01*
X84714833Y-143009623D01*
X84628221Y-142800522D01*
X84560684Y-142637474D01*
X84482100Y-142242406D01*
X84482100Y-141839594D01*
X84560684Y-141444526D01*
X84682438Y-141150586D01*
X84714833Y-141072377D01*
X84938623Y-140737452D01*
X85223452Y-140452623D01*
X85558377Y-140228833D01*
X85833352Y-140114935D01*
X85930526Y-140074684D01*
X86325594Y-139996100D01*
X86728406Y-139996100D01*
X87123474Y-140074684D01*
X87123474Y-140074684D01*
G37*
G36*
X62658854Y-141190835D02*
G01*
X62827376Y-141260639D01*
X62979041Y-141361978D01*
X63108022Y-141490959D01*
X63209361Y-141642624D01*
X63279165Y-141811146D01*
X63314750Y-141990047D01*
X63314750Y-142172453D01*
X63279165Y-142351354D01*
X63209361Y-142519876D01*
X63108022Y-142671541D01*
X62979041Y-142800522D01*
X62827376Y-142901861D01*
X62658854Y-142971665D01*
X62479953Y-143007250D01*
X62297547Y-143007250D01*
X62118646Y-142971665D01*
X61950124Y-142901861D01*
X61798459Y-142800522D01*
X61669478Y-142671541D01*
X61568139Y-142519876D01*
X61498335Y-142351354D01*
X61462750Y-142172453D01*
X61462750Y-141990047D01*
X61498335Y-141811146D01*
X61568139Y-141642624D01*
X61669478Y-141490959D01*
X61798459Y-141361978D01*
X61950124Y-141260639D01*
X62118646Y-141190835D01*
X62297547Y-141155250D01*
X62479953Y-141155250D01*
X62658854Y-141190835D01*
X62658854Y-141190835D01*
G37*
G36*
X72818854Y-141190835D02*
G01*
X72987376Y-141260639D01*
X73139041Y-141361978D01*
X73268022Y-141490959D01*
X73369361Y-141642624D01*
X73439165Y-141811146D01*
X73474750Y-141990047D01*
X73474750Y-142172453D01*
X73439165Y-142351354D01*
X73369361Y-142519876D01*
X73268022Y-142671541D01*
X73139041Y-142800522D01*
X72987376Y-142901861D01*
X72818854Y-142971665D01*
X72639953Y-143007250D01*
X72457547Y-143007250D01*
X72278646Y-142971665D01*
X72110124Y-142901861D01*
X71958459Y-142800522D01*
X71829478Y-142671541D01*
X71728139Y-142519876D01*
X71658335Y-142351354D01*
X71622750Y-142172453D01*
X71622750Y-141990047D01*
X71658335Y-141811146D01*
X71728139Y-141642624D01*
X71829478Y-141490959D01*
X71958459Y-141361978D01*
X72110124Y-141260639D01*
X72278646Y-141190835D01*
X72457547Y-141155250D01*
X72639953Y-141155250D01*
X72818854Y-141190835D01*
X72818854Y-141190835D01*
G37*
G36*
X91877104Y-141150585D02*
G01*
X92045626Y-141220389D01*
X92197291Y-141321728D01*
X92326272Y-141450709D01*
X92427611Y-141602374D01*
X92497415Y-141770896D01*
X92533000Y-141949797D01*
X92533000Y-142132203D01*
X92497415Y-142311104D01*
X92427611Y-142479626D01*
X92326272Y-142631291D01*
X92197291Y-142760272D01*
X92045626Y-142861611D01*
X91877104Y-142931415D01*
X91698203Y-142967000D01*
X91515797Y-142967000D01*
X91336896Y-142931415D01*
X91168374Y-142861611D01*
X91016709Y-142760272D01*
X90887728Y-142631291D01*
X90786389Y-142479626D01*
X90716585Y-142311104D01*
X90681000Y-142132203D01*
X90681000Y-141949797D01*
X90716585Y-141770896D01*
X90786389Y-141602374D01*
X90887728Y-141450709D01*
X91016709Y-141321728D01*
X91168374Y-141220389D01*
X91336896Y-141150585D01*
X91515797Y-141115000D01*
X91698203Y-141115000D01*
X91877104Y-141150585D01*
X91877104Y-141150585D01*
G37*
G36*
X81717104Y-141150585D02*
G01*
X81885626Y-141220389D01*
X82037291Y-141321728D01*
X82166272Y-141450709D01*
X82267611Y-141602374D01*
X82337415Y-141770896D01*
X82373000Y-141949797D01*
X82373000Y-142132203D01*
X82337415Y-142311104D01*
X82267611Y-142479626D01*
X82166272Y-142631291D01*
X82037291Y-142760272D01*
X81885626Y-142861611D01*
X81717104Y-142931415D01*
X81538203Y-142967000D01*
X81355797Y-142967000D01*
X81176896Y-142931415D01*
X81008374Y-142861611D01*
X80856709Y-142760272D01*
X80727728Y-142631291D01*
X80626389Y-142479626D01*
X80556585Y-142311104D01*
X80521000Y-142132203D01*
X80521000Y-141949797D01*
X80556585Y-141770896D01*
X80626389Y-141602374D01*
X80727728Y-141450709D01*
X80856709Y-141321728D01*
X81008374Y-141220389D01*
X81176896Y-141150585D01*
X81355797Y-141115000D01*
X81538203Y-141115000D01*
X81717104Y-141150585D01*
X81717104Y-141150585D01*
G37*
G36*
X64991955Y-136905131D02*
G01*
X64997395Y-136905250D01*
X65084578Y-136905250D01*
X65100847Y-136908486D01*
X65119706Y-136910765D01*
X65136282Y-136911496D01*
X65220973Y-136932260D01*
X65226268Y-136933434D01*
X65311777Y-136950443D01*
X65327112Y-136956795D01*
X65345151Y-136962705D01*
X65361271Y-136966657D01*
X65440254Y-137003530D01*
X65445244Y-137005727D01*
X65525795Y-137039092D01*
X65539591Y-137048310D01*
X65556143Y-137057632D01*
X65571176Y-137064650D01*
X65641444Y-137116221D01*
X65645942Y-137119372D01*
X65718406Y-137167791D01*
X65730133Y-137179518D01*
X65744559Y-137191898D01*
X65757929Y-137201711D01*
X65783282Y-137229403D01*
X65816771Y-137265983D01*
X65820579Y-137269964D01*
X65882209Y-137331594D01*
X65891424Y-137345385D01*
X65903146Y-137360328D01*
X65914355Y-137372571D01*
X65959549Y-137447124D01*
X65962496Y-137451751D01*
X66010908Y-137524205D01*
X66017255Y-137539527D01*
X66025842Y-137556481D01*
X66034441Y-137570667D01*
X66064228Y-137652618D01*
X66066202Y-137657698D01*
X66097204Y-137732543D01*
X66099557Y-137738224D01*
X66102791Y-137754483D01*
X66107908Y-137772792D01*
X66113575Y-137788384D01*
X66126805Y-137874595D01*
X66127751Y-137879963D01*
X66144750Y-137965423D01*
X66144750Y-137982002D01*
X66146194Y-138000942D01*
X66148713Y-138017354D01*
X66144870Y-138104499D01*
X66144750Y-138109939D01*
X66144750Y-138197076D01*
X66142471Y-138208535D01*
X66141516Y-138213333D01*
X66139238Y-138232191D01*
X66138506Y-138248781D01*
X66117738Y-138333487D01*
X66116562Y-138338787D01*
X66099557Y-138424277D01*
X66093207Y-138439607D01*
X66087299Y-138457643D01*
X66083345Y-138473770D01*
X66046461Y-138552776D01*
X66044261Y-138557773D01*
X66010908Y-138638295D01*
X66001694Y-138652085D01*
X65992372Y-138668637D01*
X65985352Y-138683674D01*
X65933761Y-138753970D01*
X65930616Y-138758460D01*
X65882211Y-138830904D01*
X65825210Y-138887905D01*
X65820561Y-138892813D01*
X65181413Y-139605145D01*
X64495473Y-140369626D01*
X64367429Y-140486852D01*
X64316703Y-140517602D01*
X64169333Y-140606939D01*
X63951616Y-140686073D01*
X63722645Y-140721211D01*
X63491220Y-140711004D01*
X63266231Y-140655843D01*
X63161477Y-140606939D01*
X63056329Y-140557852D01*
X62959588Y-140486852D01*
X62869573Y-140420789D01*
X62785883Y-140329376D01*
X62713148Y-140249929D01*
X62631314Y-140114935D01*
X62593061Y-140051833D01*
X62513927Y-139834116D01*
X62478789Y-139605145D01*
X62488996Y-139373720D01*
X62544157Y-139148731D01*
X62595722Y-139038278D01*
X62642148Y-138938830D01*
X62671690Y-138898577D01*
X62744864Y-138798872D01*
X63528800Y-137925174D01*
X64031537Y-137364871D01*
X64042431Y-137350839D01*
X64055289Y-137331596D01*
X64112323Y-137274562D01*
X64116973Y-137269653D01*
X64132028Y-137252874D01*
X64153451Y-137233261D01*
X64157432Y-137229453D01*
X64219096Y-137167789D01*
X64232893Y-137158570D01*
X64247852Y-137146835D01*
X64260071Y-137135648D01*
X64308014Y-137106585D01*
X64334580Y-137090481D01*
X64339171Y-137087558D01*
X64411705Y-137039092D01*
X64427050Y-137032736D01*
X64443998Y-137024151D01*
X64458166Y-137015562D01*
X64458167Y-137015562D01*
X64458168Y-137015561D01*
X64540062Y-136985795D01*
X64545160Y-136983813D01*
X64625723Y-136950443D01*
X64642002Y-136947205D01*
X64660292Y-136942094D01*
X64675885Y-136936427D01*
X64762050Y-136923204D01*
X64767413Y-136922259D01*
X64852923Y-136905250D01*
X64869516Y-136905250D01*
X64888459Y-136903805D01*
X64904856Y-136901289D01*
X64991955Y-136905131D01*
X64991955Y-136905131D01*
G37*
G36*
X84050205Y-136864881D02*
G01*
X84055645Y-136865000D01*
X84142828Y-136865000D01*
X84159097Y-136868236D01*
X84177956Y-136870515D01*
X84194532Y-136871246D01*
X84279223Y-136892010D01*
X84284518Y-136893184D01*
X84370027Y-136910193D01*
X84385362Y-136916545D01*
X84403401Y-136922455D01*
X84419521Y-136926407D01*
X84498504Y-136963280D01*
X84503494Y-136965477D01*
X84584045Y-136998842D01*
X84597841Y-137008060D01*
X84614393Y-137017382D01*
X84629426Y-137024400D01*
X84699694Y-137075971D01*
X84704190Y-137079121D01*
X84760993Y-137117075D01*
X84776656Y-137127541D01*
X84788383Y-137139268D01*
X84802809Y-137151648D01*
X84816179Y-137161461D01*
X84853030Y-137201712D01*
X84875021Y-137225733D01*
X84878829Y-137229714D01*
X84940459Y-137291344D01*
X84949674Y-137305135D01*
X84961396Y-137320078D01*
X84972605Y-137332321D01*
X85017799Y-137406874D01*
X85020746Y-137411501D01*
X85069158Y-137483955D01*
X85075505Y-137499277D01*
X85084092Y-137516231D01*
X85092691Y-137530417D01*
X85122478Y-137612368D01*
X85124452Y-137617448D01*
X85157807Y-137697973D01*
X85157807Y-137697974D01*
X85161041Y-137714233D01*
X85166158Y-137732542D01*
X85171825Y-137748134D01*
X85185055Y-137834345D01*
X85186001Y-137839713D01*
X85203000Y-137925173D01*
X85203000Y-137941752D01*
X85204444Y-137960692D01*
X85206963Y-137977104D01*
X85203120Y-138064249D01*
X85203000Y-138069689D01*
X85203000Y-138156825D01*
X85199766Y-138173083D01*
X85197488Y-138191941D01*
X85196756Y-138208531D01*
X85175988Y-138293237D01*
X85174812Y-138298537D01*
X85157807Y-138384027D01*
X85151457Y-138399357D01*
X85145549Y-138417393D01*
X85141595Y-138433520D01*
X85104711Y-138512526D01*
X85102511Y-138517523D01*
X85069158Y-138598045D01*
X85059944Y-138611835D01*
X85050622Y-138628387D01*
X85043602Y-138643424D01*
X84992011Y-138713720D01*
X84988866Y-138718210D01*
X84940461Y-138790654D01*
X84883460Y-138847655D01*
X84878811Y-138852563D01*
X84515701Y-139257250D01*
X83553723Y-140329376D01*
X83425679Y-140446602D01*
X83359282Y-140486852D01*
X83227583Y-140566689D01*
X83009866Y-140645823D01*
X82780895Y-140680961D01*
X82549470Y-140670754D01*
X82324481Y-140615593D01*
X82219727Y-140566689D01*
X82114579Y-140517602D01*
X82017838Y-140446602D01*
X81927823Y-140380539D01*
X81808247Y-140249928D01*
X81771398Y-140209679D01*
X81689564Y-140074685D01*
X81651311Y-140011583D01*
X81572177Y-139793866D01*
X81537039Y-139564895D01*
X81547246Y-139333470D01*
X81602407Y-139108481D01*
X81655521Y-138994709D01*
X81700398Y-138898580D01*
X81704630Y-138892814D01*
X81803114Y-138758622D01*
X82480963Y-138003158D01*
X83089787Y-137324621D01*
X83100681Y-137310589D01*
X83113539Y-137291346D01*
X83170573Y-137234312D01*
X83175223Y-137229403D01*
X83190278Y-137212624D01*
X83211701Y-137193011D01*
X83215682Y-137189203D01*
X83277346Y-137127539D01*
X83291143Y-137118320D01*
X83306102Y-137106585D01*
X83318321Y-137095398D01*
X83369044Y-137064650D01*
X83392830Y-137050231D01*
X83397421Y-137047308D01*
X83469955Y-136998842D01*
X83485300Y-136992486D01*
X83502248Y-136983901D01*
X83504995Y-136982236D01*
X83516418Y-136975311D01*
X83598312Y-136945545D01*
X83603410Y-136943563D01*
X83683973Y-136910193D01*
X83700252Y-136906955D01*
X83718542Y-136901844D01*
X83734135Y-136896177D01*
X83820300Y-136882954D01*
X83825663Y-136882009D01*
X83911173Y-136865000D01*
X83927766Y-136865000D01*
X83946709Y-136863555D01*
X83963106Y-136861039D01*
X84050205Y-136864881D01*
X84050205Y-136864881D01*
G37*
G36*
X70096877Y-135823511D02*
G01*
X70117650Y-135825250D01*
X70124577Y-135825250D01*
X70219504Y-135844132D01*
X70223098Y-135844792D01*
X70318480Y-135860874D01*
X70324953Y-135863335D01*
X70344978Y-135869091D01*
X70351777Y-135870443D01*
X70414164Y-135896284D01*
X70441193Y-135907480D01*
X70444594Y-135908831D01*
X70535005Y-135943211D01*
X70540877Y-135946890D01*
X70559386Y-135956437D01*
X70565795Y-135959092D01*
X70646313Y-136012892D01*
X70649304Y-136014828D01*
X70731307Y-136066209D01*
X70736334Y-136070950D01*
X70752646Y-136083941D01*
X70758402Y-136087787D01*
X70826860Y-136156245D01*
X70829439Y-136158749D01*
X70899840Y-136225139D01*
X70903845Y-136230769D01*
X70917309Y-136246694D01*
X70922209Y-136251594D01*
X70975994Y-136332089D01*
X70978041Y-136335057D01*
X71034130Y-136413895D01*
X71036964Y-136420208D01*
X71047058Y-136438443D01*
X71050908Y-136444205D01*
X71087970Y-136533680D01*
X71089374Y-136536935D01*
X71129015Y-136625223D01*
X71130565Y-136631975D01*
X71136902Y-136651812D01*
X71139557Y-136658223D01*
X71150436Y-136712917D01*
X71158442Y-136753167D01*
X71159188Y-136756651D01*
X71180848Y-136851001D01*
X71180848Y-136851004D01*
X71181050Y-136857904D01*
X71183397Y-136878620D01*
X71184750Y-136885424D01*
X71184750Y-136982236D01*
X71184803Y-136985834D01*
X71185938Y-137024527D01*
X71185045Y-137037475D01*
X71184750Y-137046047D01*
X71184750Y-137117076D01*
X71178831Y-137146835D01*
X71178354Y-137149229D01*
X71176250Y-137165000D01*
X71137988Y-137719795D01*
X71109126Y-137890980D01*
X71026788Y-138107505D01*
X70903791Y-138303807D01*
X70744861Y-138472340D01*
X70556105Y-138606630D01*
X70344777Y-138701515D01*
X70118999Y-138753348D01*
X69887448Y-138760139D01*
X69887447Y-138760139D01*
X69841762Y-138752436D01*
X69659020Y-138721626D01*
X69442495Y-138639288D01*
X69246193Y-138516291D01*
X69077660Y-138357361D01*
X68943370Y-138168605D01*
X68848485Y-137957277D01*
X68796652Y-137731499D01*
X68791562Y-137557973D01*
X68832454Y-136965044D01*
X68832750Y-136956446D01*
X68832750Y-136885425D01*
X68837269Y-136862705D01*
X68851638Y-136790469D01*
X68852294Y-136786895D01*
X68857981Y-136753167D01*
X68868374Y-136691520D01*
X68870835Y-136685049D01*
X68876592Y-136665017D01*
X68877943Y-136658224D01*
X68880593Y-136651826D01*
X68915014Y-136568726D01*
X68916303Y-136565480D01*
X68950712Y-136474995D01*
X68954386Y-136469131D01*
X68963937Y-136450615D01*
X68966592Y-136444205D01*
X69020407Y-136363665D01*
X69022327Y-136360699D01*
X69073709Y-136278693D01*
X69078461Y-136273654D01*
X69091439Y-136257357D01*
X69095287Y-136251598D01*
X69163743Y-136183142D01*
X69166296Y-136180512D01*
X69186773Y-136158798D01*
X69232639Y-136110160D01*
X69238271Y-136106153D01*
X69254197Y-136092688D01*
X69259096Y-136087789D01*
X69339574Y-136034016D01*
X69342556Y-136031960D01*
X69421395Y-135975870D01*
X69427705Y-135973037D01*
X69445944Y-135962941D01*
X69451701Y-135959094D01*
X69451704Y-135959093D01*
X69451705Y-135959092D01*
X69541179Y-135922031D01*
X69544437Y-135920625D01*
X69632723Y-135880985D01*
X69639475Y-135879435D01*
X69659312Y-135873098D01*
X69665723Y-135870443D01*
X69760649Y-135851561D01*
X69764196Y-135850801D01*
X69858501Y-135829151D01*
X69860880Y-135829081D01*
X69865415Y-135828948D01*
X69886131Y-135826601D01*
X69892924Y-135825250D01*
X69989709Y-135825250D01*
X69993334Y-135825197D01*
X70090052Y-135822360D01*
X70096877Y-135823511D01*
X70096877Y-135823511D01*
G37*
G36*
X89155127Y-135783261D02*
G01*
X89175900Y-135785000D01*
X89182827Y-135785000D01*
X89277754Y-135803882D01*
X89281348Y-135804542D01*
X89376730Y-135820624D01*
X89383203Y-135823085D01*
X89403228Y-135828841D01*
X89410027Y-135830193D01*
X89459762Y-135850794D01*
X89499443Y-135867230D01*
X89502844Y-135868581D01*
X89593255Y-135902961D01*
X89599127Y-135906640D01*
X89617636Y-135916187D01*
X89624045Y-135918842D01*
X89704563Y-135972642D01*
X89707554Y-135974578D01*
X89789557Y-136025959D01*
X89794584Y-136030700D01*
X89810896Y-136043691D01*
X89816652Y-136047537D01*
X89885110Y-136115995D01*
X89887689Y-136118499D01*
X89958090Y-136184889D01*
X89962095Y-136190519D01*
X89975559Y-136206444D01*
X89980459Y-136211344D01*
X90025462Y-136278695D01*
X90034244Y-136291839D01*
X90036291Y-136294807D01*
X90092380Y-136373645D01*
X90095214Y-136379958D01*
X90105308Y-136398193D01*
X90109158Y-136403955D01*
X90146220Y-136493430D01*
X90147624Y-136496685D01*
X90187265Y-136584973D01*
X90188815Y-136591725D01*
X90195152Y-136611562D01*
X90197807Y-136617973D01*
X90216692Y-136712917D01*
X90217438Y-136716401D01*
X90239098Y-136810751D01*
X90239098Y-136810754D01*
X90239300Y-136817654D01*
X90241647Y-136838370D01*
X90243000Y-136845174D01*
X90243000Y-136941986D01*
X90243053Y-136945584D01*
X90244188Y-136984277D01*
X90243295Y-136997225D01*
X90243000Y-137005797D01*
X90243000Y-137076826D01*
X90237081Y-137106585D01*
X90236604Y-137108979D01*
X90234500Y-137124750D01*
X90196238Y-137679545D01*
X90167376Y-137850730D01*
X90085038Y-138067255D01*
X89962041Y-138263557D01*
X89803111Y-138432090D01*
X89614355Y-138566380D01*
X89403027Y-138661265D01*
X89177249Y-138713098D01*
X88945698Y-138719889D01*
X88945697Y-138719889D01*
X88900012Y-138712186D01*
X88717270Y-138681376D01*
X88500745Y-138599038D01*
X88304443Y-138476041D01*
X88135910Y-138317111D01*
X88001620Y-138128355D01*
X87906735Y-137917027D01*
X87854902Y-137691249D01*
X87849812Y-137517723D01*
X87890704Y-136924794D01*
X87891000Y-136916196D01*
X87891000Y-136845175D01*
X87897847Y-136810751D01*
X87909888Y-136750219D01*
X87910544Y-136746645D01*
X87916231Y-136712917D01*
X87926624Y-136651270D01*
X87929085Y-136644799D01*
X87934842Y-136624767D01*
X87936193Y-136617974D01*
X87938843Y-136611576D01*
X87973264Y-136528476D01*
X87974553Y-136525230D01*
X88008962Y-136434745D01*
X88012636Y-136428881D01*
X88022187Y-136410365D01*
X88024842Y-136403955D01*
X88078657Y-136323415D01*
X88080577Y-136320449D01*
X88131959Y-136238443D01*
X88136711Y-136233404D01*
X88149689Y-136217107D01*
X88153537Y-136211348D01*
X88221993Y-136142892D01*
X88224546Y-136140262D01*
X88245023Y-136118548D01*
X88290889Y-136069910D01*
X88296521Y-136065903D01*
X88312447Y-136052438D01*
X88317346Y-136047539D01*
X88397824Y-135993766D01*
X88400806Y-135991710D01*
X88479645Y-135935620D01*
X88485955Y-135932787D01*
X88504194Y-135922691D01*
X88509951Y-135918844D01*
X88509954Y-135918843D01*
X88509955Y-135918842D01*
X88599429Y-135881781D01*
X88602687Y-135880375D01*
X88690973Y-135840735D01*
X88697725Y-135839185D01*
X88717562Y-135832848D01*
X88723973Y-135830193D01*
X88818899Y-135811311D01*
X88822446Y-135810551D01*
X88916751Y-135788901D01*
X88919130Y-135788831D01*
X88923665Y-135788698D01*
X88944381Y-135786351D01*
X88951174Y-135785000D01*
X89047959Y-135785000D01*
X89051584Y-135784947D01*
X89148302Y-135782110D01*
X89155127Y-135783261D01*
X89155127Y-135783261D01*
G37*
G36*
X85375175Y-127113238D02*
G01*
X85541460Y-127146313D01*
X85724086Y-127221959D01*
X85888444Y-127331780D01*
X86028220Y-127471556D01*
X86138041Y-127635914D01*
X86213687Y-127818540D01*
X86252250Y-128012414D01*
X86252250Y-128210086D01*
X86213687Y-128403960D01*
X86138041Y-128586586D01*
X86028220Y-128750944D01*
X85888444Y-128890720D01*
X85724086Y-129000541D01*
X85541460Y-129076187D01*
X85375175Y-129109262D01*
X85347587Y-129114750D01*
X85149913Y-129114750D01*
X85122325Y-129109262D01*
X84956040Y-129076187D01*
X84773414Y-129000541D01*
X84609056Y-128890720D01*
X84469280Y-128750944D01*
X84359459Y-128586586D01*
X84283813Y-128403960D01*
X84245250Y-128210086D01*
X84245250Y-128012414D01*
X84283813Y-127818540D01*
X84359459Y-127635914D01*
X84469280Y-127471556D01*
X84609056Y-127331780D01*
X84773414Y-127221959D01*
X84956040Y-127146313D01*
X85122325Y-127113238D01*
X85149913Y-127107750D01*
X85347587Y-127107750D01*
X85375175Y-127113238D01*
X85375175Y-127113238D01*
G37*
G36*
X88792250Y-129114750D02*
G01*
X86785250Y-129114750D01*
X86785250Y-127107750D01*
X88792250Y-127107750D01*
X88792250Y-129114750D01*
X88792250Y-129114750D01*
G37*
G36*
X66325175Y-127113238D02*
G01*
X66491460Y-127146313D01*
X66674086Y-127221959D01*
X66838444Y-127331780D01*
X66978220Y-127471556D01*
X67088041Y-127635914D01*
X67163687Y-127818540D01*
X67202250Y-128012414D01*
X67202250Y-128210086D01*
X67163687Y-128403960D01*
X67088041Y-128586586D01*
X66978220Y-128750944D01*
X66838444Y-128890720D01*
X66674086Y-129000541D01*
X66491460Y-129076187D01*
X66325175Y-129109262D01*
X66297587Y-129114750D01*
X66099913Y-129114750D01*
X66072325Y-129109262D01*
X65906040Y-129076187D01*
X65723414Y-129000541D01*
X65559056Y-128890720D01*
X65419280Y-128750944D01*
X65309459Y-128586586D01*
X65233813Y-128403960D01*
X65195250Y-128210086D01*
X65195250Y-128012414D01*
X65233813Y-127818540D01*
X65309459Y-127635914D01*
X65419280Y-127471556D01*
X65559056Y-127331780D01*
X65723414Y-127221959D01*
X65906040Y-127146313D01*
X66072325Y-127113238D01*
X66099913Y-127107750D01*
X66297587Y-127107750D01*
X66325175Y-127113238D01*
X66325175Y-127113238D01*
G37*
G36*
X69742250Y-129114750D02*
G01*
X67735250Y-129114750D01*
X67735250Y-127107750D01*
X69742250Y-127107750D01*
X69742250Y-129114750D01*
X69742250Y-129114750D01*
G37*
G36*
X87115224Y-121064934D02*
G01*
X87333224Y-121155233D01*
X87487373Y-121219083D01*
X87822298Y-121442873D01*
X88107127Y-121727702D01*
X88330917Y-122062627D01*
X88363312Y-122140836D01*
X88485066Y-122434776D01*
X88563650Y-122829844D01*
X88563650Y-123232656D01*
X88485066Y-123627724D01*
X88434201Y-123750522D01*
X88330917Y-123999873D01*
X88107127Y-124334798D01*
X87822298Y-124619627D01*
X87487373Y-124843417D01*
X87333224Y-124907267D01*
X87115224Y-124997566D01*
X86720156Y-125076150D01*
X86317344Y-125076150D01*
X85922276Y-124997566D01*
X85704276Y-124907267D01*
X85550127Y-124843417D01*
X85215202Y-124619627D01*
X84930373Y-124334798D01*
X84706583Y-123999873D01*
X84603299Y-123750522D01*
X84552434Y-123627724D01*
X84473850Y-123232656D01*
X84473850Y-122829844D01*
X84552434Y-122434776D01*
X84674188Y-122140836D01*
X84706583Y-122062627D01*
X84930373Y-121727702D01*
X85215202Y-121442873D01*
X85550127Y-121219083D01*
X85704276Y-121155233D01*
X85922276Y-121064934D01*
X86317344Y-120986350D01*
X86720156Y-120986350D01*
X87115224Y-121064934D01*
X87115224Y-121064934D01*
G37*
G36*
X68065224Y-121064934D02*
G01*
X68283224Y-121155233D01*
X68437373Y-121219083D01*
X68772298Y-121442873D01*
X69057127Y-121727702D01*
X69280917Y-122062627D01*
X69313312Y-122140836D01*
X69435066Y-122434776D01*
X69513650Y-122829844D01*
X69513650Y-123232656D01*
X69435066Y-123627724D01*
X69384201Y-123750522D01*
X69280917Y-123999873D01*
X69057127Y-124334798D01*
X68772298Y-124619627D01*
X68437373Y-124843417D01*
X68283224Y-124907267D01*
X68065224Y-124997566D01*
X67670156Y-125076150D01*
X67267344Y-125076150D01*
X66872276Y-124997566D01*
X66654276Y-124907267D01*
X66500127Y-124843417D01*
X66165202Y-124619627D01*
X65880373Y-124334798D01*
X65656583Y-123999873D01*
X65553299Y-123750522D01*
X65502434Y-123627724D01*
X65423850Y-123232656D01*
X65423850Y-122829844D01*
X65502434Y-122434776D01*
X65624188Y-122140836D01*
X65656583Y-122062627D01*
X65880373Y-121727702D01*
X66165202Y-121442873D01*
X66500127Y-121219083D01*
X66654276Y-121155233D01*
X66872276Y-121064934D01*
X67267344Y-120986350D01*
X67670156Y-120986350D01*
X68065224Y-121064934D01*
X68065224Y-121064934D01*
G37*
G36*
X91868854Y-122140835D02*
G01*
X92037376Y-122210639D01*
X92189041Y-122311978D01*
X92318022Y-122440959D01*
X92419361Y-122592624D01*
X92489165Y-122761146D01*
X92524750Y-122940047D01*
X92524750Y-123122453D01*
X92489165Y-123301354D01*
X92419361Y-123469876D01*
X92318022Y-123621541D01*
X92189041Y-123750522D01*
X92037376Y-123851861D01*
X91868854Y-123921665D01*
X91689953Y-123957250D01*
X91507547Y-123957250D01*
X91328646Y-123921665D01*
X91160124Y-123851861D01*
X91008459Y-123750522D01*
X90879478Y-123621541D01*
X90778139Y-123469876D01*
X90708335Y-123301354D01*
X90672750Y-123122453D01*
X90672750Y-122940047D01*
X90708335Y-122761146D01*
X90778139Y-122592624D01*
X90879478Y-122440959D01*
X91008459Y-122311978D01*
X91160124Y-122210639D01*
X91328646Y-122140835D01*
X91507547Y-122105250D01*
X91689953Y-122105250D01*
X91868854Y-122140835D01*
X91868854Y-122140835D01*
G37*
G36*
X81708854Y-122140835D02*
G01*
X81877376Y-122210639D01*
X82029041Y-122311978D01*
X82158022Y-122440959D01*
X82259361Y-122592624D01*
X82329165Y-122761146D01*
X82364750Y-122940047D01*
X82364750Y-123122453D01*
X82329165Y-123301354D01*
X82259361Y-123469876D01*
X82158022Y-123621541D01*
X82029041Y-123750522D01*
X81877376Y-123851861D01*
X81708854Y-123921665D01*
X81529953Y-123957250D01*
X81347547Y-123957250D01*
X81168646Y-123921665D01*
X81000124Y-123851861D01*
X80848459Y-123750522D01*
X80719478Y-123621541D01*
X80618139Y-123469876D01*
X80548335Y-123301354D01*
X80512750Y-123122453D01*
X80512750Y-122940047D01*
X80548335Y-122761146D01*
X80618139Y-122592624D01*
X80719478Y-122440959D01*
X80848459Y-122311978D01*
X81000124Y-122210639D01*
X81168646Y-122140835D01*
X81347547Y-122105250D01*
X81529953Y-122105250D01*
X81708854Y-122140835D01*
X81708854Y-122140835D01*
G37*
G36*
X72818854Y-122140835D02*
G01*
X72987376Y-122210639D01*
X73139041Y-122311978D01*
X73268022Y-122440959D01*
X73369361Y-122592624D01*
X73439165Y-122761146D01*
X73474750Y-122940047D01*
X73474750Y-123122453D01*
X73439165Y-123301354D01*
X73369361Y-123469876D01*
X73268022Y-123621541D01*
X73139041Y-123750522D01*
X72987376Y-123851861D01*
X72818854Y-123921665D01*
X72639953Y-123957250D01*
X72457547Y-123957250D01*
X72278646Y-123921665D01*
X72110124Y-123851861D01*
X71958459Y-123750522D01*
X71829478Y-123621541D01*
X71728139Y-123469876D01*
X71658335Y-123301354D01*
X71622750Y-123122453D01*
X71622750Y-122940047D01*
X71658335Y-122761146D01*
X71728139Y-122592624D01*
X71829478Y-122440959D01*
X71958459Y-122311978D01*
X72110124Y-122210639D01*
X72278646Y-122140835D01*
X72457547Y-122105250D01*
X72639953Y-122105250D01*
X72818854Y-122140835D01*
X72818854Y-122140835D01*
G37*
G36*
X62658854Y-122140835D02*
G01*
X62827376Y-122210639D01*
X62979041Y-122311978D01*
X63108022Y-122440959D01*
X63209361Y-122592624D01*
X63279165Y-122761146D01*
X63314750Y-122940047D01*
X63314750Y-123122453D01*
X63279165Y-123301354D01*
X63209361Y-123469876D01*
X63108022Y-123621541D01*
X62979041Y-123750522D01*
X62827376Y-123851861D01*
X62658854Y-123921665D01*
X62479953Y-123957250D01*
X62297547Y-123957250D01*
X62118646Y-123921665D01*
X61950124Y-123851861D01*
X61798459Y-123750522D01*
X61669478Y-123621541D01*
X61568139Y-123469876D01*
X61498335Y-123301354D01*
X61462750Y-123122453D01*
X61462750Y-122940047D01*
X61498335Y-122761146D01*
X61568139Y-122592624D01*
X61669478Y-122440959D01*
X61798459Y-122311978D01*
X61950124Y-122210639D01*
X62118646Y-122140835D01*
X62297547Y-122105250D01*
X62479953Y-122105250D01*
X62658854Y-122140835D01*
X62658854Y-122140835D01*
G37*
G36*
X84041955Y-117855131D02*
G01*
X84047395Y-117855250D01*
X84134578Y-117855250D01*
X84150847Y-117858486D01*
X84169706Y-117860765D01*
X84186282Y-117861496D01*
X84270973Y-117882260D01*
X84276268Y-117883434D01*
X84361777Y-117900443D01*
X84377112Y-117906795D01*
X84395151Y-117912705D01*
X84411271Y-117916657D01*
X84490254Y-117953530D01*
X84495244Y-117955727D01*
X84575795Y-117989092D01*
X84589591Y-117998310D01*
X84606143Y-118007632D01*
X84621176Y-118014650D01*
X84691444Y-118066221D01*
X84695942Y-118069372D01*
X84768406Y-118117791D01*
X84780133Y-118129518D01*
X84794559Y-118141898D01*
X84807929Y-118151711D01*
X84857437Y-118205787D01*
X84866771Y-118215983D01*
X84870579Y-118219964D01*
X84932209Y-118281594D01*
X84941424Y-118295385D01*
X84953146Y-118310328D01*
X84964355Y-118322571D01*
X85009549Y-118397124D01*
X85012496Y-118401751D01*
X85060908Y-118474205D01*
X85067255Y-118489527D01*
X85075842Y-118506481D01*
X85084441Y-118520667D01*
X85114228Y-118602618D01*
X85116202Y-118607698D01*
X85149557Y-118688223D01*
X85149557Y-118688224D01*
X85152791Y-118704483D01*
X85157908Y-118722792D01*
X85163575Y-118738384D01*
X85176805Y-118824595D01*
X85177751Y-118829963D01*
X85194750Y-118915423D01*
X85194750Y-118932002D01*
X85196194Y-118950942D01*
X85198713Y-118967354D01*
X85194870Y-119054499D01*
X85194750Y-119059939D01*
X85194750Y-119147075D01*
X85191516Y-119163333D01*
X85189238Y-119182191D01*
X85188506Y-119198781D01*
X85167738Y-119283487D01*
X85166562Y-119288787D01*
X85149557Y-119374277D01*
X85143207Y-119389607D01*
X85137299Y-119407643D01*
X85133345Y-119423770D01*
X85096461Y-119502776D01*
X85094261Y-119507773D01*
X85060908Y-119588295D01*
X85051694Y-119602085D01*
X85042372Y-119618637D01*
X85035352Y-119633674D01*
X84983761Y-119703970D01*
X84980616Y-119708460D01*
X84932211Y-119780904D01*
X84875210Y-119837905D01*
X84870561Y-119842813D01*
X84486927Y-120270374D01*
X83545473Y-121319626D01*
X83417429Y-121436852D01*
X83318381Y-121496895D01*
X83219333Y-121556939D01*
X83001616Y-121636073D01*
X82772645Y-121671211D01*
X82541220Y-121661004D01*
X82316231Y-121605843D01*
X82211477Y-121556939D01*
X82106329Y-121507852D01*
X82009588Y-121436852D01*
X81919573Y-121370789D01*
X81845144Y-121289491D01*
X81763148Y-121199929D01*
X81681314Y-121064935D01*
X81643061Y-121001833D01*
X81563927Y-120784116D01*
X81528789Y-120555145D01*
X81538996Y-120323720D01*
X81594157Y-120098731D01*
X81645722Y-119988278D01*
X81692148Y-119888830D01*
X81692150Y-119888827D01*
X81794864Y-119748872D01*
X82541159Y-118917125D01*
X83081537Y-118314871D01*
X83092431Y-118300839D01*
X83105289Y-118281596D01*
X83162323Y-118224562D01*
X83166973Y-118219653D01*
X83182028Y-118202874D01*
X83203451Y-118183261D01*
X83207432Y-118179453D01*
X83269096Y-118117789D01*
X83282893Y-118108570D01*
X83297852Y-118096835D01*
X83310071Y-118085648D01*
X83342135Y-118066211D01*
X83384580Y-118040481D01*
X83389171Y-118037558D01*
X83461705Y-117989092D01*
X83477050Y-117982736D01*
X83493998Y-117974151D01*
X83508166Y-117965562D01*
X83508167Y-117965562D01*
X83508168Y-117965561D01*
X83590062Y-117935795D01*
X83595160Y-117933813D01*
X83675723Y-117900443D01*
X83692002Y-117897205D01*
X83710292Y-117892094D01*
X83725885Y-117886427D01*
X83812050Y-117873204D01*
X83817413Y-117872259D01*
X83902923Y-117855250D01*
X83919516Y-117855250D01*
X83938459Y-117853805D01*
X83954856Y-117851289D01*
X84041955Y-117855131D01*
X84041955Y-117855131D01*
G37*
G36*
X64991955Y-117855131D02*
G01*
X64997395Y-117855250D01*
X65084578Y-117855250D01*
X65100847Y-117858486D01*
X65119706Y-117860765D01*
X65136282Y-117861496D01*
X65220973Y-117882260D01*
X65226268Y-117883434D01*
X65311777Y-117900443D01*
X65327112Y-117906795D01*
X65345151Y-117912705D01*
X65361271Y-117916657D01*
X65440254Y-117953530D01*
X65445244Y-117955727D01*
X65525795Y-117989092D01*
X65539591Y-117998310D01*
X65556143Y-118007632D01*
X65571176Y-118014650D01*
X65641444Y-118066221D01*
X65645942Y-118069372D01*
X65718406Y-118117791D01*
X65730133Y-118129518D01*
X65744559Y-118141898D01*
X65757929Y-118151711D01*
X65807437Y-118205787D01*
X65816771Y-118215983D01*
X65820579Y-118219964D01*
X65882209Y-118281594D01*
X65891424Y-118295385D01*
X65903146Y-118310328D01*
X65914355Y-118322571D01*
X65959549Y-118397124D01*
X65962496Y-118401751D01*
X66010908Y-118474205D01*
X66017255Y-118489527D01*
X66025842Y-118506481D01*
X66034441Y-118520667D01*
X66064228Y-118602618D01*
X66066202Y-118607698D01*
X66099557Y-118688223D01*
X66099557Y-118688224D01*
X66102791Y-118704483D01*
X66107908Y-118722792D01*
X66113575Y-118738384D01*
X66126805Y-118824595D01*
X66127751Y-118829963D01*
X66144750Y-118915423D01*
X66144750Y-118932002D01*
X66146194Y-118950942D01*
X66148713Y-118967354D01*
X66144870Y-119054499D01*
X66144750Y-119059939D01*
X66144750Y-119147075D01*
X66141516Y-119163333D01*
X66139238Y-119182191D01*
X66138506Y-119198781D01*
X66117738Y-119283487D01*
X66116562Y-119288787D01*
X66099557Y-119374277D01*
X66093207Y-119389607D01*
X66087299Y-119407643D01*
X66083345Y-119423770D01*
X66046461Y-119502776D01*
X66044261Y-119507773D01*
X66010908Y-119588295D01*
X66001694Y-119602085D01*
X65992372Y-119618637D01*
X65985352Y-119633674D01*
X65933761Y-119703970D01*
X65930616Y-119708460D01*
X65882211Y-119780904D01*
X65825210Y-119837905D01*
X65820561Y-119842813D01*
X65436927Y-120270374D01*
X64495473Y-121319626D01*
X64367429Y-121436852D01*
X64268381Y-121496895D01*
X64169333Y-121556939D01*
X63951616Y-121636073D01*
X63722645Y-121671211D01*
X63491220Y-121661004D01*
X63266231Y-121605843D01*
X63161477Y-121556939D01*
X63056329Y-121507852D01*
X62959588Y-121436852D01*
X62869573Y-121370789D01*
X62795144Y-121289491D01*
X62713148Y-121199929D01*
X62631314Y-121064935D01*
X62593061Y-121001833D01*
X62513927Y-120784116D01*
X62478789Y-120555145D01*
X62488996Y-120323720D01*
X62544157Y-120098731D01*
X62595722Y-119988278D01*
X62642148Y-119888830D01*
X62642150Y-119888827D01*
X62744864Y-119748872D01*
X63491159Y-118917125D01*
X64031537Y-118314871D01*
X64042431Y-118300839D01*
X64055289Y-118281596D01*
X64112323Y-118224562D01*
X64116973Y-118219653D01*
X64132028Y-118202874D01*
X64153451Y-118183261D01*
X64157432Y-118179453D01*
X64219096Y-118117789D01*
X64232893Y-118108570D01*
X64247852Y-118096835D01*
X64260071Y-118085648D01*
X64292135Y-118066211D01*
X64334580Y-118040481D01*
X64339171Y-118037558D01*
X64411705Y-117989092D01*
X64427050Y-117982736D01*
X64443998Y-117974151D01*
X64458166Y-117965562D01*
X64458167Y-117965562D01*
X64458168Y-117965561D01*
X64540062Y-117935795D01*
X64545160Y-117933813D01*
X64625723Y-117900443D01*
X64642002Y-117897205D01*
X64660292Y-117892094D01*
X64675885Y-117886427D01*
X64762050Y-117873204D01*
X64767413Y-117872259D01*
X64852923Y-117855250D01*
X64869516Y-117855250D01*
X64888459Y-117853805D01*
X64904856Y-117851289D01*
X64991955Y-117855131D01*
X64991955Y-117855131D01*
G37*
G36*
X134795377Y-118205787D02*
G01*
X134965216Y-118257307D01*
X135121741Y-118340972D01*
X135157479Y-118370302D01*
X135258936Y-118453564D01*
X135314004Y-118520666D01*
X135371528Y-118590759D01*
X135455193Y-118747284D01*
X135506713Y-118917123D01*
X135506713Y-118917125D01*
X135519750Y-119049490D01*
X135519750Y-120138010D01*
X135513231Y-120204193D01*
X135506713Y-120270377D01*
X135455193Y-120440216D01*
X135371528Y-120596741D01*
X135342198Y-120632479D01*
X135258936Y-120733936D01*
X135121739Y-120846529D01*
X134965217Y-120930192D01*
X134965215Y-120930193D01*
X134795376Y-120981713D01*
X134618750Y-120999109D01*
X134442123Y-120981713D01*
X134272284Y-120930193D01*
X134115759Y-120846528D01*
X134039716Y-120784121D01*
X133978564Y-120733936D01*
X133865971Y-120596739D01*
X133782308Y-120440217D01*
X133782307Y-120440215D01*
X133730787Y-120270376D01*
X133717750Y-120138007D01*
X133717751Y-119049492D01*
X133730788Y-118917123D01*
X133782308Y-118747284D01*
X133865973Y-118590759D01*
X133923497Y-118520666D01*
X133978565Y-118453564D01*
X134080022Y-118370302D01*
X134115760Y-118340972D01*
X134272285Y-118257307D01*
X134442124Y-118205787D01*
X134618750Y-118188391D01*
X134795377Y-118205787D01*
X134795377Y-118205787D01*
G37*
G36*
X127495377Y-118205787D02*
G01*
X127665216Y-118257307D01*
X127821741Y-118340972D01*
X127857479Y-118370302D01*
X127958936Y-118453564D01*
X128014004Y-118520666D01*
X128071528Y-118590759D01*
X128155193Y-118747284D01*
X128206713Y-118917123D01*
X128206713Y-118917125D01*
X128219750Y-119049490D01*
X128219750Y-120138010D01*
X128213231Y-120204193D01*
X128206713Y-120270377D01*
X128155193Y-120440216D01*
X128071528Y-120596741D01*
X128042198Y-120632479D01*
X127958936Y-120733936D01*
X127821739Y-120846529D01*
X127665217Y-120930192D01*
X127665215Y-120930193D01*
X127495376Y-120981713D01*
X127318750Y-120999109D01*
X127142123Y-120981713D01*
X126972284Y-120930193D01*
X126815759Y-120846528D01*
X126739716Y-120784121D01*
X126678564Y-120733936D01*
X126565971Y-120596739D01*
X126482308Y-120440217D01*
X126482307Y-120440215D01*
X126430787Y-120270376D01*
X126417750Y-120138007D01*
X126417751Y-119049492D01*
X126430788Y-118917123D01*
X126482308Y-118747284D01*
X126565973Y-118590759D01*
X126623497Y-118520666D01*
X126678565Y-118453564D01*
X126780022Y-118370302D01*
X126815760Y-118340972D01*
X126972285Y-118257307D01*
X127142124Y-118205787D01*
X127318750Y-118188391D01*
X127495377Y-118205787D01*
X127495377Y-118205787D01*
G37*
G36*
X70096877Y-116773511D02*
G01*
X70117650Y-116775250D01*
X70124577Y-116775250D01*
X70219504Y-116794132D01*
X70223098Y-116794792D01*
X70318480Y-116810874D01*
X70324953Y-116813335D01*
X70344978Y-116819091D01*
X70351777Y-116820443D01*
X70414164Y-116846284D01*
X70441193Y-116857480D01*
X70444594Y-116858831D01*
X70535005Y-116893211D01*
X70540877Y-116896890D01*
X70559386Y-116906437D01*
X70565795Y-116909092D01*
X70646313Y-116962892D01*
X70649304Y-116964828D01*
X70731307Y-117016209D01*
X70736334Y-117020950D01*
X70752646Y-117033941D01*
X70758402Y-117037787D01*
X70826860Y-117106245D01*
X70829439Y-117108749D01*
X70899840Y-117175139D01*
X70903845Y-117180769D01*
X70917309Y-117196694D01*
X70922209Y-117201594D01*
X70975994Y-117282089D01*
X70978041Y-117285057D01*
X71034130Y-117363895D01*
X71036964Y-117370208D01*
X71047058Y-117388443D01*
X71050908Y-117394205D01*
X71087970Y-117483680D01*
X71089374Y-117486935D01*
X71129015Y-117575223D01*
X71130565Y-117581975D01*
X71136902Y-117601812D01*
X71139557Y-117608223D01*
X71158442Y-117703167D01*
X71159188Y-117706651D01*
X71180848Y-117801001D01*
X71180848Y-117801004D01*
X71181050Y-117807904D01*
X71183397Y-117828620D01*
X71184750Y-117835424D01*
X71184750Y-117932236D01*
X71184803Y-117935834D01*
X71185938Y-117974527D01*
X71185045Y-117987475D01*
X71184750Y-117996047D01*
X71184750Y-118067076D01*
X71178831Y-118096835D01*
X71178354Y-118099229D01*
X71176250Y-118115000D01*
X71137988Y-118669795D01*
X71109126Y-118840980D01*
X71026788Y-119057505D01*
X70903791Y-119253807D01*
X70744861Y-119422340D01*
X70556105Y-119556630D01*
X70344777Y-119651515D01*
X70118999Y-119703348D01*
X69887448Y-119710139D01*
X69887447Y-119710139D01*
X69841762Y-119702436D01*
X69659020Y-119671626D01*
X69442495Y-119589288D01*
X69246193Y-119466291D01*
X69077660Y-119307361D01*
X68943370Y-119118605D01*
X68848485Y-118907277D01*
X68796652Y-118681499D01*
X68791562Y-118507973D01*
X68832454Y-117915044D01*
X68832750Y-117906446D01*
X68832750Y-117835425D01*
X68851632Y-117740500D01*
X68852294Y-117736895D01*
X68857981Y-117703167D01*
X68868374Y-117641520D01*
X68870835Y-117635049D01*
X68876592Y-117615017D01*
X68877943Y-117608224D01*
X68880593Y-117601826D01*
X68915014Y-117518726D01*
X68916303Y-117515480D01*
X68950712Y-117424995D01*
X68954386Y-117419131D01*
X68963937Y-117400615D01*
X68966592Y-117394205D01*
X69020407Y-117313665D01*
X69022327Y-117310699D01*
X69073709Y-117228693D01*
X69078461Y-117223654D01*
X69091439Y-117207357D01*
X69095287Y-117201598D01*
X69163743Y-117133142D01*
X69166296Y-117130512D01*
X69186773Y-117108798D01*
X69232639Y-117060160D01*
X69238271Y-117056153D01*
X69254197Y-117042688D01*
X69259096Y-117037789D01*
X69339574Y-116984016D01*
X69342556Y-116981960D01*
X69421395Y-116925870D01*
X69427705Y-116923037D01*
X69445944Y-116912941D01*
X69451701Y-116909094D01*
X69451704Y-116909093D01*
X69451705Y-116909092D01*
X69541179Y-116872031D01*
X69544437Y-116870625D01*
X69632723Y-116830985D01*
X69639475Y-116829435D01*
X69659312Y-116823098D01*
X69665723Y-116820443D01*
X69760649Y-116801561D01*
X69764196Y-116800801D01*
X69858501Y-116779151D01*
X69860880Y-116779081D01*
X69865415Y-116778948D01*
X69886131Y-116776601D01*
X69892924Y-116775250D01*
X69989709Y-116775250D01*
X69993334Y-116775197D01*
X70090052Y-116772360D01*
X70096877Y-116773511D01*
X70096877Y-116773511D01*
G37*
G36*
X89146877Y-116773511D02*
G01*
X89167650Y-116775250D01*
X89174577Y-116775250D01*
X89269504Y-116794132D01*
X89273098Y-116794792D01*
X89368480Y-116810874D01*
X89374953Y-116813335D01*
X89394978Y-116819091D01*
X89401777Y-116820443D01*
X89464164Y-116846284D01*
X89491193Y-116857480D01*
X89494594Y-116858831D01*
X89585005Y-116893211D01*
X89590877Y-116896890D01*
X89609386Y-116906437D01*
X89615795Y-116909092D01*
X89696313Y-116962892D01*
X89699304Y-116964828D01*
X89781307Y-117016209D01*
X89786334Y-117020950D01*
X89802646Y-117033941D01*
X89808402Y-117037787D01*
X89876860Y-117106245D01*
X89879439Y-117108749D01*
X89949840Y-117175139D01*
X89953845Y-117180769D01*
X89967309Y-117196694D01*
X89972209Y-117201594D01*
X90025994Y-117282089D01*
X90028041Y-117285057D01*
X90084130Y-117363895D01*
X90086964Y-117370208D01*
X90097058Y-117388443D01*
X90100908Y-117394205D01*
X90137970Y-117483680D01*
X90139374Y-117486935D01*
X90179015Y-117575223D01*
X90180565Y-117581975D01*
X90186902Y-117601812D01*
X90189557Y-117608223D01*
X90208442Y-117703167D01*
X90209188Y-117706651D01*
X90230848Y-117801001D01*
X90230848Y-117801004D01*
X90231050Y-117807904D01*
X90233397Y-117828620D01*
X90234750Y-117835424D01*
X90234750Y-117932236D01*
X90234803Y-117935834D01*
X90235938Y-117974527D01*
X90235045Y-117987475D01*
X90234750Y-117996047D01*
X90234750Y-118067076D01*
X90228831Y-118096835D01*
X90228354Y-118099229D01*
X90226250Y-118115000D01*
X90187988Y-118669795D01*
X90159126Y-118840980D01*
X90076788Y-119057505D01*
X89953791Y-119253807D01*
X89794861Y-119422340D01*
X89606105Y-119556630D01*
X89394777Y-119651515D01*
X89168999Y-119703348D01*
X88937448Y-119710139D01*
X88937447Y-119710139D01*
X88891762Y-119702436D01*
X88709020Y-119671626D01*
X88492495Y-119589288D01*
X88296193Y-119466291D01*
X88127660Y-119307361D01*
X87993370Y-119118605D01*
X87898485Y-118907277D01*
X87846652Y-118681499D01*
X87841562Y-118507973D01*
X87882454Y-117915044D01*
X87882750Y-117906446D01*
X87882750Y-117835425D01*
X87901632Y-117740500D01*
X87902294Y-117736895D01*
X87907981Y-117703167D01*
X87918374Y-117641520D01*
X87920835Y-117635049D01*
X87926592Y-117615017D01*
X87927943Y-117608224D01*
X87930593Y-117601826D01*
X87965014Y-117518726D01*
X87966303Y-117515480D01*
X88000712Y-117424995D01*
X88004386Y-117419131D01*
X88013937Y-117400615D01*
X88016592Y-117394205D01*
X88070407Y-117313665D01*
X88072327Y-117310699D01*
X88123709Y-117228693D01*
X88128461Y-117223654D01*
X88141439Y-117207357D01*
X88145287Y-117201598D01*
X88213743Y-117133142D01*
X88216296Y-117130512D01*
X88236773Y-117108798D01*
X88282639Y-117060160D01*
X88288271Y-117056153D01*
X88304197Y-117042688D01*
X88309096Y-117037789D01*
X88389574Y-116984016D01*
X88392556Y-116981960D01*
X88471395Y-116925870D01*
X88477705Y-116923037D01*
X88495944Y-116912941D01*
X88501701Y-116909094D01*
X88501704Y-116909093D01*
X88501705Y-116909092D01*
X88591179Y-116872031D01*
X88594437Y-116870625D01*
X88682723Y-116830985D01*
X88689475Y-116829435D01*
X88709312Y-116823098D01*
X88715723Y-116820443D01*
X88810649Y-116801561D01*
X88814196Y-116800801D01*
X88908501Y-116779151D01*
X88910880Y-116779081D01*
X88915415Y-116778948D01*
X88936131Y-116776601D01*
X88942924Y-116775250D01*
X89039709Y-116775250D01*
X89043334Y-116775197D01*
X89140052Y-116772360D01*
X89146877Y-116773511D01*
X89146877Y-116773511D01*
G37*
G36*
X134795377Y-113705787D02*
G01*
X134965216Y-113757307D01*
X135121741Y-113840972D01*
X135157479Y-113870302D01*
X135258936Y-113953564D01*
X135342198Y-114055021D01*
X135371528Y-114090759D01*
X135455193Y-114247284D01*
X135506713Y-114417123D01*
X135519750Y-114549492D01*
X135519750Y-115638008D01*
X135506713Y-115770377D01*
X135455193Y-115940216D01*
X135371528Y-116096741D01*
X135342198Y-116132479D01*
X135258936Y-116233936D01*
X135121739Y-116346529D01*
X134965217Y-116430192D01*
X134965215Y-116430193D01*
X134795376Y-116481713D01*
X134618750Y-116499109D01*
X134442123Y-116481713D01*
X134272284Y-116430193D01*
X134115759Y-116346528D01*
X134080021Y-116317198D01*
X133978564Y-116233936D01*
X133865971Y-116096739D01*
X133782308Y-115940217D01*
X133782307Y-115940215D01*
X133730787Y-115770376D01*
X133717750Y-115638007D01*
X133717751Y-114549492D01*
X133730788Y-114417123D01*
X133782308Y-114247284D01*
X133865973Y-114090759D01*
X133895303Y-114055021D01*
X133978565Y-113953564D01*
X134080022Y-113870302D01*
X134115760Y-113840972D01*
X134272285Y-113757307D01*
X134442124Y-113705787D01*
X134618750Y-113688391D01*
X134795377Y-113705787D01*
X134795377Y-113705787D01*
G37*
G36*
X127495377Y-113705787D02*
G01*
X127665216Y-113757307D01*
X127821741Y-113840972D01*
X127857479Y-113870302D01*
X127958936Y-113953564D01*
X128042198Y-114055021D01*
X128071528Y-114090759D01*
X128155193Y-114247284D01*
X128206713Y-114417123D01*
X128219750Y-114549492D01*
X128219750Y-115638008D01*
X128206713Y-115770377D01*
X128155193Y-115940216D01*
X128071528Y-116096741D01*
X128042198Y-116132479D01*
X127958936Y-116233936D01*
X127821739Y-116346529D01*
X127665217Y-116430192D01*
X127665215Y-116430193D01*
X127495376Y-116481713D01*
X127318750Y-116499109D01*
X127142123Y-116481713D01*
X126972284Y-116430193D01*
X126815759Y-116346528D01*
X126780021Y-116317198D01*
X126678564Y-116233936D01*
X126565971Y-116096739D01*
X126482308Y-115940217D01*
X126482307Y-115940215D01*
X126430787Y-115770376D01*
X126417750Y-115638007D01*
X126417751Y-114549492D01*
X126430788Y-114417123D01*
X126482308Y-114247284D01*
X126565973Y-114090759D01*
X126595303Y-114055021D01*
X126678565Y-113953564D01*
X126780022Y-113870302D01*
X126815760Y-113840972D01*
X126972285Y-113757307D01*
X127142124Y-113705787D01*
X127318750Y-113688391D01*
X127495377Y-113705787D01*
X127495377Y-113705787D01*
G37*
M02*
